<?xml version="1.0" encoding="UTF-8"?>
<svg id="Capa_1" xmlns="http://www.w3.org/2000/svg" version="1.1" viewBox="0 0 200 200">
  <!-- Generator: Adobe Illustrator 30.2.1, SVG Export Plug-In . SVG Version: 2.1.1 Build 1)  -->
  <path d="M140.2,101.24c.18-3.1.43-7.45,3.17-9.12l3.57-2.17c1.09-.66,2.22-1.47,2.6-2.72.11-.37-.6-.77-.9-.86-2.22-.65-.98-2.13-2.49-4.29-.57-.81-.9-1.81-.71-2.79.15-.77,1.27-.91,1.56-1.41.63-3.91,2.85-7.21,6.92-7.25,5.32-.06,7.87,6.25,7.72,11.01-.12,3.97-2.36,4.33-3.93,6.48-.28.39-.08.8.08,1.01.23.3.87.61,1.26.34,1.45-.97,3.02-1.31,4.68-1.78,1.78-.51,3.45-1.27,5.28-1.56,2.05-.32,1-4.71-1.11-6.99-.59-.64-1.19-2-.53-2.69.59-.62,1.07-.87.92-1.87-.25-1.7.56-3.37,1.75-4.45s2.87-1.48,4.6-1.29c3.24.35,5.46,2.97,5,6.22-.09.64.63.8.95,1.17.85,1,.33,2.61-.64,3.42s-1.45,1.6-1.76,2.78-.76,2.31-.28,3.62c3.24.74,6.42,1.46,9.47,2.68,1.61.65,2.65,1.62,3.1,3.31,1.39,5.25,2.04,12.72,2.42,18.27.03.5-.21.91-.73.91h-22.25c-.64-2.45.74-3.9.47-5.29-.15-.79-1.44-1.04-2.14-.94-1.67.24-3.08.32-4.77-.49-1.14,2.01-1.68,4.29-.88,6.68l-22.11.06c-.52,0-.83-.48-.81-.92l.54-9.08ZM157.52,93.18c.55-.96.19-2.04-.7-2.53-1.25-.69-1.38-1.91-.94-3.18s1.59-1.89,2.25-3.03c2.56-4.44-.49-10.36-2.17-9.83-.25.08-.71.41-.75.81-.24,2.49-1.9,4.51-4.23,5.45-.41.16-.7.46-.79.76-.21.71,1.35,3.43,2.11,4.39-.75,1.4-1.51,2.74-2.37,4.06-.63.98-1.8,1.11-2.91,1.83,2.34,2.87,8.8,4.22,10.49,1.29ZM167.35,101.16c1.08-.53,3.78-.78,3.95-4.51.09-2.1-.13-4.18-.63-6.27-.12-.26-.43-.26-.45-.13-.03.21-.13.35-.13.54v5.3c0,2.53-2.38,3.44-2.89,2.95-.13-.12-.26-.4-.25-.7l.09-8.22c0-.5-.1-1.39-.61-1.5-.6.18-.64,1.1-.64,1.71l.03,7.03c0,.44.41,1.52-.11,1.77-5.02.41-1.93-8.23-3.17-9.4-.15-.14-.79-.2-.81.12-.17,2.47-.19,4.83-.09,7.23.07,1.65,1.06,3.03,2.61,3.51,2.19.68,1.71,2.55,2.56,2.25.63-.23.12-1.47.57-1.69ZM175.6,97.01c1.16-.13,1.88-1.01,1.92-2.1l.17-5.46c0-.28-.13-.71-.29-.83-.15-.11-.5-.07-.78-.01-1.73.37-3.32.32-5.11.02-.08.72.4.95.52,1.41.49,1.94.6,3.84.75,5.85.03.43.12.99.57,1.12.71.21,1.45.09,2.26,0Z"/>
  <path d="M172.07,170.25c-.09-1.94,3.1.33,3.41.51s.76.19.89-.03c.67-1.07-3.26-3.34-4.85-2.33-.83.53-1.07,2.54-1.55,2.76-.59.28-2.27-1.14-3.28-.93-1.87.39-3.48,1.46-5.15,2.31l-3.24,1.67c-1.22.63-2.48.75-3.81.31-4.96-1.64-7.35-1.33-12.34.01l-.99-3.66c-.37-1.36,3.03-.62,3.79-1.06-.25-7.32,3.3-6.24,3.8-7.05.34-.55-.73-1.57.19-2.85.42-.59,1.12-.83,1.96-.74.99.1,1.77.66,1.94,1.43.5,2.29-1.27,2.3-1.4,3.28-.11.89,3.01,4.14,4.33,2.56.6-.72,1.44-.62,2.14-.1,2.16,1.6,2.05,4.26,2.87,3.99,1.33-.45-1.62-5.61-3.83-5.74.81-2.11,1.81-1.53,3.29-4.23.34-.63,1.37-1.76,2.19-1.51.99.3.59,1.89.56,2.66-.06,2.02.66,3.79,1.18,5.72.83-.48.83-1.34.72-2.11l-1.23-8.83c-1.25.36-1.88,1.27-2.89,1.78-2.07,1.06-1.67,3.63-3.42,2.55-1.97-1.23-4.97-3.02-7.35-3.12-.69-3.14-.66-6.44.48-9.52,1.36-3.66,4.66-4.77,2.65-7.2.87-.53,1.67-.17,2.46.19,2.26.98,3.88,2.64,6.19,4.18-3.72-14.38-.69-8.16.99-8.64s2.99.15,4.55.51c1.68.39,5.27-.28,5.76.26.68.73-1.53,1.77-.97,4.33.21.98-.43,1.81-1.34,2.07-1.36.39-2.58-.04-3.98-.32-.89-.18-2.45-.12-3.16.57s.1,2.11.79,2.57c1.15.76,8.21,5.23,8.17,5.87-.03.49-3.2-.16-5.86,1.47-.75.46-1.05,1.04-.85,1.96l1.11,4.88c.98-.59,1.5-1.48,2.33-1.92,1.07-.57,1.18-1.37,1.08-2.48-.07-.86.88-1.43,1.47-1.51.85-.11,1.62.26,2.06.91,1.27,1.88-2.17,3.6.43,4.94,1.05-.51,1.88-1.75,2.89-2.37,1.88-1.16.02-2.73.92-3.85.83-1.05,2.71-1,3.46.11s.22,2.39-.75,3.35c1.44,1,2.57,2.33,2.26,4.09-.13.77-.71,1.52-.12,2.3.63-.66.92-1.39,1.53-1.82,1.12-.77,2.26-.27,3.05.42,1.13.99-.02,2.39.06,3.38,2.09,2.22,1.31.89,2.12,3.8.14.52,2.43.29,3.29.91-.33,1.78-.89,3.44-.94,5.24-.03,1.03,1.65,1.39,1.6,1.83-.03.23-.3.4-.55.41-4.73.28-5.23-2.86-9.17-1.09-4.23,1.9-5,1.78-9.12.1-1.51-.62-3-.39-4.38.31-2.66,1.36-5.21.67-7.92-.22l-4.75-1.57,7.43-3.95c2.63-1.4,3.45,1.15,4.96,1.03,1.32-.11,1.85-1.62,1.8-2.79ZM179.3,166.4c2.15.86,4.03,1.81,5.83,3.43.52-1.25-.34-2.28-1.41-2.76l-6.69-3.07c-.71-.33-1.32.13-1.95.43-.96.46-1.86,1.76-1.09,2.76.42.55,1.4-.33,1.42-.91s.51-.99.97-.98c1.09.03,1.88.69,2.91,1.1ZM155.25,170.71c2.87-1.91-6.33-2.15-6.65-.71-.49.95,5.16.2,6.65.71Z"/>
  <path d="M83.29,145.69c1.97-1.52,4.93-1.41,6.77.16.87.74,1,1.87,1.28,2.97,1.17.64,4.63.4,4.69,2.02s-2.58,1.51-3.69,1.57c-2.09.1.49,2.93-3.62,4.1,0,1.06.5,7.33,2.08,6.57,1.08-.52-.41-2.32-.3-3.54,2.04.5,3.21,2.02,3.63,3.96.51,2.38.54,4.78.69,7.22.02.36.23.67.51.74,1.19.27.99-2.99,2.51-5.74.99-1.78,2.31-3.19,4.31-3.96-.22-.83-.52-1.51-.8-2.26-.76-2.02-3.2-.61-3.21-1.72,0-.63.7-1.11,1.2-1.33,2.96-1.32.36-4.39,5.4-6.21.81-.58.93-2.12.95-3.21-1.9.59-3.83.81-5.45-.28-2.85-1.91-2.4-.76-4.94-1.86.26-1.29,1.26-2.01,2.14-2.82,2.4-2.2,5.2-3.29,8.33-3.87.72-.29,1.19-1.29,2.21-1.03.82.21,1.25.83,1.91,1.58s1.98.91,2.89,1.53c2.57,1.74,4.49,4.26,5.57,7.18-2,.93-3.36-.39-4.97.45-1.86.98-3.75.66-5.6-.77-.2,1.16-.25,2.19-.15,3.28,4.09,1.58,1.96,3.97,5.19,4.94.55.16.96.57,1.02,1.01.19,1.44-1.74,1.5-2.35,1.97-.49.66-.28,1.65-.48,2.42-.61,2.26-2.38.91-3.35,1.83-.26.24-.63,1.02-.23,1.36,2.13,1.83,3.61,4.05,4.67,6.64.94,2.31,1.89,4.6,1.99,7.21h-36.55c-.34,0-.58-.07-.7-.2-.13-.14-.26-.44-.24-.74l1.02-12.12c.24-2.82,1.78-4.93,4.41-5.92,1.04-.39,2.31-1.79,1.75-2.86-.47-.9-1.34-1.46-1.39-2.6-.06-1.34-2.2-.12-4.47-1.38-.38-.21-.5-.63-.5-.93-.01-.49.32-.81.77-.97l3.84-1.34c.46-.77.27-2.29,1.27-3.07Z"/>
  <path d="M9.79,177.84c-.71,0-.95-.26-.94-.77.04-2.37.32-4.67.91-6.94.37-1.41,1.17-2.39,2.49-3.01,2.49-1.16,5.07-1.99,7.69-2.88,1.83-.62,3.37-1.48,4.51-3.21.75.61.9,1.38,1.17,2.19,1.15,3.45,1.9,6.93,3.36,10.36.92-1.33.81-2.49,1.23-3.7.2-.57-.16-1.32-.53-1.74-1.22-1.37.98-2.09,1.2-3.69.08-.63-.63-.63-1.05-.77-2.86-.96-4.8-3.39-5.52-6.34-2.26-1.02-3.5-5.06-2.54-6.36.47-.63,2.13-.11,2.05-1.06-1.43-.38-5.28-.53-5.41-2.53-.04-.56.64-.81,1.08-.91,1.51-.35,3.03.39,3.86-.35.76-.68-1-3.85.95-6.98s7.71-2.79,10.63-2.21c2.07.41,3.84,1.62,4.51,3.59.89,2.6-.06,5.06.72,5.69.82.66,4.61-.46,4.85.87.07.4-.02.88-.38,1.17-2.39,1.92-5.45,1.01-5.3,1.89.09.54,1.46.14,1.94.69.61.7.73,4.31-1.02,5.62-.78.59-1.28,1.15-1.54,2.12-.8,3-3.16,4.97-6.3,5.43.37,1.44,1.26,2.04,1.89,2.97.38.56-1.75,1.48-.94,3.37.45,1.05.48,2.07,1.21,3.3,1.12-2.73,1.78-5.35,2.68-8.04.52-1.55.86-3.16,1.82-4.58,1.11.98,1.86,2.12,3.14,2.59l8.38,3.14c1.21.45,2.38,1.15,2.82,2.42.93,2.73,1.37,5.57,1.46,8.62l-45.07.03ZM32.6,149.34c2.56.8,5.09-2.19,4.67-3.27-.38-.97-3.31.47-4.34,1.53-.31.32-1.07,1.5-.33,1.73ZM31.45,147.48c.02-.25-.02-.82-.41-1-2.49-1.14-5.81-.03-5.44,1.42.27,1.06,5.74.84,5.85-.42ZM37.16,154.14c0-1.26-.51-2.22-1.29-2.81-2.17-1.67-2.6.48-4.88-1.01-1.49-.97-3.47-.28-4.35,1.26s-.8,3.48.09,5.07c.8,1.44,2.37,2.29,4.16,2.61,3.24.57,6.28-1.61,6.27-5.11Z"/>
  <path d="M51.55,46.62l-37.93.02c-.48,0-.57-.86-.56-1.16.14-3.93,1.26-7.66,3.19-11.04,1.28-2.24,3.27-3.7,4.72-5.76,1.2-1.71.44-4.38.08-6.2-.21-1.06-.08-1.96.14-2.93.55-2.42,1.03-4.76,1.73-7.15.52-1.76,1.34-3.49,2.83-4.62,3.43-2.6,8.39-2.2,11.41.86,2.69,2.72,3.32,8.48,3.76,12.17.22,1.87.72,3.56,1.3,5.36.23.72.17,1.83.84,2.33,2.36,1.75,4.36,3.76,5.68,6.47,1.72,3.54,2.68,7.38,2.83,11.64ZM26.74,22.65c2.07,2.09,6.74,1.97,7.88-1.08.8-2.14.27-4.94.17-7.13-.09-2-1.6-3.52-3.09-4.08-1.86-.7-3.83-.34-5.19,1.05-1.09,1.11-1.42,2.63-1.4,4.17.03,2.14-.11,5.32,1.63,7.08ZM26.07,36.35c2.14.3,4.14.71,6.19.48.8-.09,1.08-.49,1.22-1.25.65-3.53,3.35-5.2,2.66-6.35-1.68-2.79-.6-5.33-2.44-4.45-3.18,1.53-4.28.14-4.7,1.61-.63,2.18-2.46,1.86-3.36,2.56s-1.63,1.7-2.24,2.66c-.67,1.06-.59,2.13-.06,3.1s1.42,1.45,2.73,1.63Z"/>
  <path d="M41.14,93.28c.15.89,1.98,7.95,2.82,6.2.63-1.32-1.15-3.74-1.25-5.67.68.19,1.18.75,1.55,1.34,2.66,4.27,4.1,10.54,4.24,15.54,0,.35-.41.52-.72.52H14.22c.11-4.88.85-9.54,2.24-14.06.8-2.59,2.25-4.86,4.49-6.27,3.03,4.37-1.84,8.13.45,9.29,5.95-8.7-2.71-11.24-1.05-18.86.2-.94,1.06-1.62,1.92-1.45.36,3.66.17,4.56,2.65,7.55,1.68,2.02,2.83,4.55,2.4,7.14l-.83,4.95c-.04.23.52.4.7.23,1.31-1.26,1.45-3.6,1.68-5.8,2.17,1.3,4.62,1.3,6.77.01.18,1.09.87,6.51,2.01,6.39.22-.02.61-.48.54-.78l-.84-4.09c-.63-3.06.13-6.1,1.64-8.81.87-1.55,1.51-3.15,1.64-4.95.04-.52-.21-1.43.2-1.79,1.17-.38,2.1.71,2.33,1.86,1.01,4.92-2.58,8.29-2.05,11.51Z"/>
  <path d="M88.46,111.21c-1.44,0,1.87-8.37,10.79-11.43,2.44-.84,4.71-1.62,7.29-1.76.68-.04,1.04.21,1.15.89l.94,5.91c.05.31.3.43.31.59.02.28.97.28.95.02l-1.02-9.74-.54-5.78-.46-7.56c-.05-.91.1-2.26-.46-3.02-2.37-3.22-5.82-5.25-9.86-6.41,1.48-1.27,3.62-2.27,5.87-2.26,2.57.01,4.61,1.52,6.05,3.38.88,1.13.3,2.3.67,3.38l3.49,10.24,4.22,13.95c.13.41.35.74.11,1.17-.34.6-2.14.39-2.54,1.15-.45.85.53,2.01.12,2.86-.25.51-2.53.3-3.16,1.16-.7.96.96,3.31-.76,3.3l-23.16-.02Z"/>
  <path d="M87.15,97.35c-1.47-2.83.15-5.03-1.84-5.81-.32-.12-.65-.37-.76-.58-.17-.32-.1-.73.09-1.05l1.49-2.51c-.15-1.35-.68-2.7-.28-4.08.23-.79,1.24-1.11,2.06-1.08,4.59.21,8.38,3.71,11.6,6.7,1.15,1.07,2.34,2.18,4.06,2.41-.34-1.13-1.41-1.41-2.1-2.16-3.76-4.1-9.23-8.78-15.21-8.31,1.86-5.19,7.19-8.62,12.52-6.45,2.62,1.07,4.92,2.74,6.78,4.87.7.8,1.04,1.78,1.09,2.87l.41,9.05c-1.07.66-2.26,1.12-2.77,2.22-.48,1.02-.05,2.21.02,3.39-3.13.89-6.25,1.78-9.02,3.51-.34.21-.62.45-1.02.34-.85-.22-.56-2.27-1.5-2.38-1.45-.17-4.78.71-5.64-.97ZM101.32,95.93c.74-.51.88-1.2.85-1.92-.02-.51-.29-1.33-1.05-1.38-.97-.06-1.58,1.06-1.8,1.92-.16.66.13,1.19.55,1.47.39.26.95.25,1.44-.09Z"/>
  <path d="M173.11,31.89c.16.31.14.73.03,1.1l-2.29,7.48-1.24,5.64c-.29.46-1.7.46-2.08.08-.56-.62-.03-1.73-.82-2.33-.52.79-.14,1.52-.36,2.31-.59.24-1.57.5-2.16.04-.33-.26-.41-1.11-.41-1.55-.02-3.02-.79-5.62-1.7-8.42s-1.15-5.9.07-8.59,3.64-4.27,6.08-5.53c.75-.39,1.13-.97.96-1.74-.13-.6-.59-1.28-1.37-1.2-.19.02-.43.17-.49.28-.24.46.78.24.91,1.15.11.78-1.22.14-2.61,1.46l-1.95,1.85c-1.09,1.04-3.75,3.01-4.82,1.57-.33-.44-.55-1.11-.37-1.71l1.67-5.62c1.12-3.77,4.91-2.76,4.14-3.87l-1.49-2.14c-.91-1.31-.58-3.07.37-4.22,2.28-2.74,5.47-.01,5.97-.7.77-1.06,1.57-1.89,2.99-1.66l2.21.35c.26.04.48.31.53.51.22.96-2.88.76-3.43,1.42.94,1.12,2.91-.71,3.38,1.03.44,1.6,1.86.94,2.33,1.39.18.17.16.51.01.72-1.32,1.8-3.68-.49-4.42-.26.07.96.94.93,1.35,1.39,2,2.18,3.17,1.3,3.68,2.41.18.39.37,1.23-.03,1.36-.53.16-1.03-.47-1.53-.4-5,.66-5.1-2.69-6.98-2.26-.32.07-.82.51-.79,1.03,1.77.89,3.05,2.32,3.67,4.24.86,2.65,1.28,5.32,1.14,8.2-.16,3.19-2.05,6.61-5.29,7.44-.8.2-1.19-1.61-.82-2.1.46-.61,1.21-.89,1.6-1.79-.89.08-1.85.72-2.34,1.58-.54.95-.19,2.61.71,3.24,1.54,1.08,4.89-2.27,5.97-3.19Z"/>
  <path d="M29.91,92.73c-.99-.61-1.59-1.69-1.97-2.68-.68-1.77-1.66-3.1-2.78-4.61-1.82-2.45-2.1-5.9-.95-8.67,1.21-2.92,3.85-4.45,6.9-4.51,3.22-.07,6.02,1.5,7.42,4.42,1.5,3.15,1.12,6.74-.8,9.66-1.34,2.03-1.14,5.24-3.64,6.45-1.34.65-2.86.75-4.18-.06ZM27.62,82.4c1.08.62,2.33.13,2.61-.85.27-.91-.04-1.97-1.06-2.42-.83-.36-1.69.25-2.06.92-.4.72-.35,1.85.51,2.34ZM35.27,82.43c.77-.38.88-1.2.77-1.92-.08-.54-.52-1.22-1.23-1.44-.88-.27-1.58.36-1.94.98-.39.68-.18,1.47.25,1.99.46.56,1.37.76,2.15.38ZM33.07,84.62c-.37-.45-.85-.65-1.39-.57-1.59.24-2.15,2.88-1.05,4.96.39.73.89,1.16,1.7,1.03,1.57-.25,2.33-3.53.74-5.42Z"/>
  <path d="M89.38,27.01c.21,1.26,4.81,2.94,3.17,4.8-.52.59-1.74-.17-2.22-.62-3-2.8-4.85-1.01-7.27-3.67-.46-.5-.96-.51-1.46-.1l-6.29,5.24c-.34.28-.81.29-1.09.2-.44-.14-.61-.6-.62-1.11l-.12-6.21c0-.47.32-1.03.75-1.24,2.22-1.11,4.46-2.08,6.87-2.81,1.35-.41,2.75-.11,4.09.18,3.78.83,14.25,2.6,13.8,7.91-1.33.11-2.11-.96-3.42-1.49.27,1.4,1,2.42.75,3.71-.07.37-.34,1-.85.78-2.06-.87-1.07-4.54-6.1-5.59Z"/>
  <path d="M110.71,30.59c-1.15.6-3.44,2.18-4.44,1.35-.23-.19-.35-.59-.26-.98.44-1.92,2.88-1.37,4.59-2.65-.77-.36-1.5.24-2.3.27l-3.26.15c-.63.03-3.88,1.53-4.34-.03-.19-.65.09-1.23.77-1.52,2.03-.87,4.14-1.19,6.35-1.62l17.27-3.36c.22-.04.98-.07,1.06.2.43,2.59.36,5.25.03,7.9-1.93.74-4.98-.84-6.45-.26-2.38.94-2.39,2.02-6.42.47-.89-.34-1.71-.37-2.59.09Z"/>
  <path d="M182.39,45.28l-3.08,2.16c-.84.59-1.82.46-2.76.12-1.84-.66-3.6-1.1-5.74-1.22.4-2.15.76-4.16,1.33-6.28.28-1.05,1.22-2.39,2.43-1.86.78.35,1.54,1.22,2.5.84,1.83-.71,2.24,1.34,3.23,1.95.87.54,2.57-.29,3.03,1.29.31,1.07.23,2.17-.94,3Z"/>
  <path d="M162.95,46.48c-7.33.79-5.44,3.52-11.39-1.17-.72-.57-.98-1.36-.84-2.31.11-.71.62-1.57,1.59-1.77.61-.13,1.21.22,1.86,0,.97-3.93,3.46-1.25,5.25-2.7.47-.39,1.06-.46,1.57-.25.41.17.85.72.94,1.31l1.02,6.89Z"/>
  <path d="M176.86,49.57c-4.57,2.36-15.05,2.63-19.5-.13,3.99-2.36,15.99-2.94,19.5.13Z"/>
  <path d="M177.26,28.36c-.39.89,2.43,2.3.6,4.06-.75-.58-1.22-1.23-2.01-1.69-.52-.3-1.56-.57-1.64-1.27.37-3.8.33-7.61-1-11.24-.3-.82-.87-1.31-1.13-2.34,7.47,3.17,5.32,9.36,6.23,10.25.79.77,2.37-.12,2.6.77.09.32.08.8-.26,1.13-.87.85-2.08.78-3.38.33Z"/>
  <path d="M157.33,178.43h-17.23c-.22,0-.47-.3-.5-.42s.11-.3.26-.45c1.25-1.32,2.92-1.94,4.67-2.36,3.41-.81,6.8-.57,10.03.76,1.44.59,2.84,1.1,3.9,2.15-.34.31-.68.32-1.12.32Z"/>
  <path d="M111.95,33.84c-.7-.45-.78,1.72-1.42,2.03-.29.14-.87.21-.98-.13-.14-.42.16-.96-.31-1.14-.47.49-.55,1.21-1.09,1.37s-1.05-.37-1.2-.75c-.77-1.93,2.18-2.79,3.08-3.31,1.28-.74,3.35-1.23,4.38.19.54.75-.4,3.63-1.88,3.12-.58-.2-.33-1.23-.58-1.39Z"/>
  <path d="M169.55,112.35c.32.78-1.65,2.16-3.82,1.1-.43-.21-.6-.58-.55-.99.13-1,2.5-.77,3.66-.71.37.02.6.35.71.61Z"/>
  <path d="M31.21,22.01c-.72.19-2.71.13-2.85-.62-.18-.95,2.12-1.23,3.3-.42.38.26-.1.83-.45,1.04Z"/>
</svg>