<?xml version="1.0" encoding="UTF-8"?>
<svg id="Capa_1" xmlns="http://www.w3.org/2000/svg" version="1.1" viewBox="0 0 200 200">
  <!-- Generator: Adobe Illustrator 30.2.1, SVG Export Plug-In . SVG Version: 2.1.1 Build 1)  -->
  <path d="M114.65,38c0,.64-.38.99-.84,1.1-1.35.35-.18,3.35-1.11,4.69-.75,1.08-5.24,2.27-6.03,3.51-.3.47-.84,3.79.64,4.24l9.86,3.02c1.67.51,2.24,1.51,2.22,3.24h-38.55c-.26-1.49.56-2.79,2.06-3.23l9.94-2.89c1.66-.48,1.61-2.81,1.08-4.08-1.55.04-4.71,1.95-5.58,1.45-.4-.23-.74-3.2-1.15-3.8l-.26,4.22c-.04.62-.55,1.06-1.08,1.06s-.94-.52-1.05-1.15c-1.14-6.2-.74-15.63,1.41-21.67,1.18-3.32,3.35-6.03,6.32-7.83,4.38-2.65,10.5-2.6,14.19,1.16,5.03.65,7.06,5.25,6.82,9.74-5.5-.05-6.13,1.13-8.91-3.88-.9.95-2.18,3.78-4.23,3.82l-8.34.14c-.25,0-.31.33-.35.46-.05.17-.04.68.3.68l16.91.03c.08,2.22.11,4.27.02,6.41-.01.3-.21.6-.53.6l-16.88.06c.78,3.83,3.25,6.78,6.58,8.35,3.88,1.83,8.75-2.73,10.02-6.31,1.1-.26,1.75-1.16,1.78-2.3l.16-6.74c1.28-.15,2.54-.05,3.83-.08.48,0,.77.3.77.77v5.19Z"/>
  <path d="M147.9,27.69c1.27-1.04,2.99-.59,3.91.63l1.43-.22c.41-.06.57.62.6.91.1,1.31-1.23,1.05-.59,2.24.21.39.33.73.18,1.17-.3.91-2.91.89-3.42,1.23-.38.25-.26,1.54.15,1.72,1.23-.11,2.6-.77,3.84-.57l.15,4.16,5.31,2.6.11,10.97c0,.26,1.15.25,1.15,0v-11.46c0-.58-4.11-2.14-4.89-2.83l-.02-15.46c0-.34.59-.34.79-.26l4.72,1.93.02-5.91c0-.46.34-.8.7-.83.44-.03.85.28.85.82v6.45c0,.45.77.81.94.45.28-.59-.43-1.73.65-2,1.27-.32.64,2.09.84,3.01l3.01,1.52.04,24.55c.2.35,1.32.29,1.32-.14l.08-17.72,9.84,4.85.09,13.17,2.91.07c.41.01.55.44.59.71.03.22-.04.82-.44.82h-43.27c-.4,0-.4-.5-.42-.69-.14-1.36,1.78-.67,2.9-.93l.06-15.21,6.35-1.71c.08-1.02.13-1.91.06-2.89-.91-.6-1.43-1.45-1.54-2.33-.13-1.04.12-2.12,1-2.84ZM162.2,31.63c.2-.44.38-1.34-.08-1.55-.76-.34-1.6-.16-2.35-.07-.14.62-.08,1.05.08,1.59.77.06,1.44.11,2.35.03ZM159.61,33.98v1.88h2.75v-1.88h-2.75ZM152.49,42.56c.14-.59.12-.9-.03-1.33h-6.86c-.14.48-.15.86,0,1.33h6.88ZM176.21,44.1l-.06-2.43c-.73-.12-1.36-.15-2.12-.08v2.48c.74.12,1.36.13,2.18.03ZM152.44,46.13c.19-.28.22-1.22-.06-1.24-2.25-.11-4.46-.08-6.69-.01-.3,0-.29,1.18,0,1.2,2.26.16,4.56.06,6.75.05Z"/>
  <path d="M35.81,42.66c-.97,1.96-3.2.87-5.36,1.27-.66,1.83-1.36,3.54-1.89,5.37-.12.4.37.71.69,1.01.55.5.02,2.35-.9,2.19-3.06-.52-5.86-1.61-8.83-2.31-.42-.1-.8-.39-.91-.69-.13-.32-.06-.75.1-1.15l3.63-9.14-3.57-3.18,20.51-.03,2.82-2.76,11.66-.08c.35,0,.29-1.11-.04-1.11l-12.38-.02-3.08,2.91h-20.71c-.32-7.12-.1-2.79,2.1-7.15l6.46-.12c.19-.1.23-.85.05-.93-1.01-.26-2.03.02-3.09-.13.22-1.41.58-2.62,1.07-3.93l10.25-.04c1.46,0,.96,2.9.98,4.01l-4.84.09c-.13.32-.12.63.03,1l21.65-.04c.16-1.1,3.38-.59,4.25-.59.31.48.05,1.13.41,1.55.3.35.9.17,1.25.53.13,1.56.17,3.16,0,4.74-.06.41-.86.42-.96.82-.42,1.63.55,3.7-.9,3.71l-4.62.02c-1.37,0-.15,2.1-.99,2.15-2.86.19-5.71.12-8.59.06-.62-.01-.62-1.1-.87-1.46-.92-.44-2.08-.1-3.09-.19-1.32-.12-1.42,1.86-2.29,3.6ZM34.24,41.42c.48-1.05.92-1.9,1.01-2.98-1-.21-1.84-.16-2.75-.1-.49,1.05-.87,1.95-1.18,3.1,1.07.12,1.91.23,2.92-.02Z"/>
  <path d="M116.55,110.45l-32.14.04c-1.51,0,.57-2.83.86-3.54l4.33-.25c.73-.04.99-1.67,1.1-2.36l-5.74-.06c-1-.01-1.75-.71-1.75-1.75v-18.35c.01-.79.59-1.62,1.42-1.62l30.01-.03c1.08,0,1.84.55,1.84,1.67v18.67c0,.79-.69,1.39-1.4,1.39l-5.77.04c.13.68.38,2.11,1.14,2.36,1.46.48,3.03-.09,4.58.24.64.98,1.14,2,1.53,3.54ZM113.28,85.69h-26.68v12.17h26.68v-12.17ZM101.84,102.21c.19-.65.17-1.06.01-1.61l-4.72.02c-.33.24-.3,1.5.09,1.54,1.53.17,3.03,0,4.62.04ZM106.83,102.13c.1-.38.24-1.33-.2-1.45-.6-.16-1.48-.21-1.99.02-.45.2-.31,1.08-.17,1.45.83.15,1.54.13,2.36-.02ZM111.71,102.05c.31-.22.22-1.3-.07-1.36-.68-.13-1.66-.23-2.33,0-.34.12-.34,1.17-.07,1.41.69.15,1.78.28,2.47-.06Z"/>
  <path d="M33.8,159.8c-1.73,0-1.22,2.17-2.55,2.28-2.82.25-5.56.17-8.38.11-1.11-.03-2.04-.68-2.17-1.76l-.23-2c-.71-.23-1.52,0-2.13-.45-1.12-.81.22-2.56-.29-3.71-.61-1.37-1.31-2.7-1.63-4.26,2.02-.73,4.12-.34,6.04.43l5.02,2.03c.84.34,1.69.64,2.63.23.01-.62-.55-.88-1.05-1.11l-5.09-2.34c8.64-5.36,21.22-4.32,28.12,2.99,3.57-.25,7.35,1.98,9.91,4.11.31.25.43.62.42.95-.03,1.17-3.7,2.26-4.82,2.57-1.44.39-.81,2.2-2.77,2.28-2.86.12-5.66.2-8.51-.06-2.14-.2-1.27-2.26-2.55-2.26l-9.96-.03ZM46.4,152.55c.48,0,1.01.44,1.37.03.07-.23-.4-.55-.68-.71-4.09-2.32-8.69-3.39-13.56-3.05.38,1.34.85,2.53,1.57,3.61l11.3.11ZM29.18,159.6c.5-.02.69-.45.71-.72.01-.19-.11-.68-.45-.67-1.94.06-3.84-.17-5.75.11-.41.06-.22,1.32.3,1.33,1.74.05,3.38.03,5.19-.05ZM53.2,159.6c.6,0,.81-.49.73-.89-.07-.31-.37-.56-.81-.53-1.68.12-3.32-.13-4.96.11-.4.06-.38,1.29.04,1.31,1.69.09,3.25.02,4.99,0Z"/>
  <path d="M51.93,101.67l-27.31.02c-.04-3.02-.19-5.92.03-8.91.2-2.74,1.96-4.89,4.26-6.25,2.42-1.48,5.16-1.97,8.11-2.09.21-1,.05-1.94.07-2.94-1.07-.77-1.73-1.75-1.6-3.05.11-1.11.73-2.26,1.94-2.66,1.59-.53,3.1.28,3.72,1.68.67,1.5.03,3.17-1.45,4.04-.07.98-.05,1.87,0,2.93,2.98.03,5.83.56,8.37,2.09s4.25,3.74,4.26,6.65l.02,7.6c0,.19-.08.9-.41.9ZM35.03,95.69c0-1.71-1.38-3.09-3.09-3.09s-3.09,1.38-3.09,3.09,1.38,3.09,3.09,3.09,3.09-1.38,3.09-3.09ZM48.05,95.68c0-1.72-1.39-3.11-3.11-3.11s-3.11,1.39-3.11,3.11,1.39,3.11,3.11,3.11,3.11-1.39,3.11-3.11Z"/>
  <path d="M93.72,168.17l-.04-13.88c-.97-.8-1.9-1.31-2.93-1.93-.39-.41-1.21-.68-1.4-1.26l-.15-5.47c-1.22-.44-1.76-1.47-1.79-2.67-.05-1.75,1.23-3.04,3.01-2.98,1.37.05,2.56,1.01,2.85,2.16.37,1.45-.36,2.66-1.61,3.45l-.03,4.14c1.5,1.45,4.47,1.85,4.47,3.96,0,2.23-.07,4.36.04,6.58,1.3-.87,2.59-1.36,2.59-2.48l-.02-12.92c-1.37-.76-2.08-2.07-1.75-3.52.31-1.34,1.4-2.32,2.77-2.37,1.45-.06,2.64.83,3.05,2.06.51,1.56-.13,3-1.61,3.75v13.55c.75.8,1.54,1.36,2.67,1.94l.06-6.61c.02-1.86,3.18-2.53,4.23-3.78.43-1.29,0-2.82.18-4.28-1.8-.92-2.33-3.11-1.1-4.66.66-.82,1.73-1.05,2.69-.96s1.87.64,2.32,1.58c.75,1.55,0,3.31-1.53,4.06l-.09,5.27c0,.44-.5.8-.83,1.02l-3.38,2.21-.07,13.99h-12.61Z"/>
  <path d="M165.78,169.68l-10.66.03-4.66-5.33v-17.11c-.01-.6.47-1.35,1.11-1.35l17.38-.03c.79,0,1.37.58,1.37,1.38v16.96s-4.53,5.45-4.53,5.45ZM166.22,163.38l-.04-7.9c-.37-.35-1.13-.25-1.61-.33-.15-.71-.02-1.4-.13-2.15-.25-1.7-1.31-3.26-3.04-3.69-2.54-.64-4.91,1.25-5.21,3.81-.08.73-.02,1.37-.2,2.02-.48.16-.9.09-1.36.32l.07,8.01,11.51-.07Z"/>
  <path d="M45.44,113.07h-13.73s-.09-4.3-.09-4.3c-2.73-.9-5.08-2.74-5.69-5.72l25.34-.02c-.7,2.71-2.83,4.88-5.75,5.76l-.08,4.29Z"/>
  <path d="M161.63,113.59c-.55-.06-.76-1.01-.65-1.33.26-.33.77-.46,1.17-.66,1.42-.72,2.37-2.05,2.62-3.5.28-1.55-.36-3.12-1.46-4.23s-2.49-1.51-4.19-1.31l7.84-12.35c2.36.86,4.36,1.96,6.56,2.89.25.11.43.49.35.78-1.4,5.6-2.86,12.16-6.31,16.84-1.4,1.9-3.44,3.12-5.93,2.86ZM165.37,103.25l3.96-8.31c-.24-.33-.64-.27-.79-.17-.1.07-.24.2-.34.41l-3.21,6.78c-.23.49-.46,1.26.38,1.28Z"/>
  <path d="M150.96,93.6c-2.42-1.57-5.38-.96-7.34,1-.15.15-.46.28-.61.33-.17.05-.52-.17-.61-.42-.96-2.57-1.57-5.21-1.8-7.98-.13-1.53.46-2.9,1.79-3.72,3.88-2.39,10.04-1.32,11.95,3.59.54,1.38.86,2.79.98,4.24-1.16.95-2.13,1.92-3.15,2.92-.4.39-.73.36-1.22.04Z"/>
  <path d="M164.11,83.91c-.32-.63-.16-1.16.2-1.64.61-.81,1.11-1.71,1.88-2.38.71-.62,2.24.75,2.33,1.11.31,1.31-1.45,2.06-.8,2.78.79-.49.91-1.34,1.49-1.85,1.34-1.17,3.68,1.28,4.99.89-1.75-1.83-4.23-1.41-6.15-4.06.64-.71,1.27-1.47,2.14-1.87.68-.32,1.22.31,1.75.59.81.42,1.48.78,2.16,1.39.52.46,1.4.63,1.76,1.29,1.21,2.27,2.49,1.02,2.58,3.45s-.94,4.75-2.24,6.88c-.29.47-.56.92-.93,1.1-.55.26-1.08.16-1.61-.08l-5.63-2.52c-1.04-.46-1.86-1.06-2.38-2.07l-1.53-3Z"/>
  <path d="M147.37,104.01l-4.1-7.12c.94-1.09,1.99-1.9,3.19-2.54,2.76-.98,4.28,1.29,5.02,1.39.51.06,3.29-3.44,4.39-4l4.19,7.07c-.86,1.31-1.43,2.65-2.41,3.83l-4.34-3.21-5.94,4.58Z"/>
  <path d="M166.66,135.79v8.56h-12.56v-8.56h12.56ZM159.01,141.19c.03-.87.03-1.41-.03-2.11-.73-.17-1.4-.18-2.19-.04-.18.75-.17,1.43-.01,2.18.81.02,1.43.11,2.23-.03ZM164.44,141.15c0-.8.05-1.31-.04-1.97-.74-.27-1.48-.21-2.29-.12-.14.76-.13,1.38,0,2.13.83.05,1.54.1,2.34-.05Z"/>
  <path d="M159.15,112.15c.45.21-.07,1.39-.56,1.47-1.96.32-3.75-.51-4.95-2.02l-5.22-6.52c1.64-1.49,3.31-2.68,5.14-3.99l3.18,3.18c-1.12,1.24-1.58,2.89-1.1,4.47.52,1.73,1.89,2.66,3.52,3.41Z"/>
  <circle cx="160.12" cy="107.32" r="3.47"/>
  <path d="M56.63,99.53c0,1.78-1.83,1.62-3.09,1.62v-8.22c.81-.08,3.09-.06,3.09,1.21v5.39Z"/>
  <path d="M23.42,101.14c-.77.13-3.15,0-3.11-1.13.09-2.14-.18-4.25.13-6.34.62-.75,2.03-.79,2.92-.7l.06,8.18Z"/>
  <rect x="88.24" y="86.99" width="13.52" height="9.42"/>
  <path d="M110.45,92.8c-.88.11-1.65.07-2.49.02-.17-.64-.17-1.23,0-1.89.82-.19,1.64-.15,2.48-.02.16.63.23,1.19.02,1.89Z"/>
  <path d="M106.13,92.8c-.79.09-1.48.1-2.26-.02-.24-.59-.19-1.2-.02-1.82.76-.18,1.51-.2,2.28-.03.17.62.13,1.16-.01,1.88Z"/>
  <path d="M162.58,155.23h-4.43c-.27-.83-.31-1.82-.1-2.72.26-1.1,1.21-1.83,2.21-1.85,1.12-.02,2.1.7,2.4,1.86.23.87.15,1.77-.08,2.71Z"/>
  <path d="M161.08,161.88c-.08.4-1.34.36-1.42,0-.35-1.46-.34-2.98-.25-4.45.04-.56.79-.66,1.13-.6.49.09.95.57.88,1.19-.14,1.27-.04,2.5-.33,3.86Z"/>
</svg>