<?xml version="1.0" encoding="UTF-8" standalone="no"?>
<!-- Created with Inkscape (http://www.inkscape.org/) -->

<svg
   width="708.1427mm"
   height="628.58344mm"
   viewBox="0 0 708.1427 628.58343"
   version="1.1"
   id="svg1"
   xml:space="preserve"
   inkscape:version="1.4.2 (f4327f4, 2025-05-13)"
   sodipodi:docname="clip-artists.svg"
   xmlns:inkscape="http://www.inkscape.org/namespaces/inkscape"
   xmlns:sodipodi="http://sodipodi.sourceforge.net/DTD/sodipodi-0.dtd"
   xmlns="http://www.w3.org/2000/svg"
   xmlns:svg="http://www.w3.org/2000/svg"><sodipodi:namedview
     id="namedview1"
     pagecolor="#ffffff"
     bordercolor="#000000"
     borderopacity="0.25"
     inkscape:showpageshadow="2"
     inkscape:pageopacity="0.0"
     inkscape:pagecheckerboard="0"
     inkscape:deskcolor="#d1d1d1"
     inkscape:document-units="mm"
     inkscape:zoom="0.12315096"
     inkscape:cx="-649.60923"
     inkscape:cy="1047.4949"
     inkscape:window-width="1920"
     inkscape:window-height="1006"
     inkscape:window-x="1991"
     inkscape:window-y="36"
     inkscape:window-maximized="1"
     inkscape:current-layer="layer1" /><defs
     id="defs1" /><g
     inkscape:label="Capa 1"
     inkscape:groupmode="layer"
     id="layer1"
     transform="translate(239.63617,20.376376)"><path
       style="fill:#000000"
       d="m 56.262299,607.6984 c -1.8119,-0.44657 -3.33571,-0.53981 -10.58333,-0.64763 -7.82707,-0.11643 -8.52082,-0.16455 -9.18356,-0.63699 -0.63124,-0.44999 -1.18724,-0.51104 -4.65403,-0.51104 -5.49595,0 -7.87048,-0.64162 -12.14986,-3.28301 l -1.62735,-1.00446 -6.43323,-0.19676 c -5.4818502,-0.16767 -6.7690502,-0.28719 -8.7041602,-0.80822 l -2.27094002,-0.61145 -2.43146998,0.83528 c -1.33731,0.45941 -2.76492,0.83528 -3.17247,0.83528 -0.84961,0 -15.3208598,-3.77342 -16.1281198,-4.20545 -0.36999,-0.19801 -1.14896,-0.2075 -2.5414,-0.031 -2.34069,0.29677 -3.33164,0.16135 -4.78674,-0.65414 -0.58209,-0.32622 -1.65365,-0.67016 -2.38125,-0.7643 -3.80524,-0.49236 -10.57715,-2.41289 -15.17149,-4.30269 -3.2913,-1.35381 -4.95328,-1.66076 -10.62539,-1.9624 -6.02367,-0.32033 -7.5098,-0.65899 -8.96451,-2.04282 l -1.03672,-0.98621 -2.73844,-0.009 c -2.21951,-0.007 -3.20404,-0.14919 -5.19538,-0.74924 -1.78353,-0.53744 -2.73532,-0.69332 -3.47263,-0.56875 -0.88258,0.14911 -1.08572,0.0826 -1.5499,-0.50752 -0.29381,-0.37352 -0.79086,-0.67913 -1.10455,-0.67913 -0.31369,0 -0.99943,-0.41672 -1.52386,-0.92604 -0.73084,-0.70978 -1.17574,-0.92609 -1.90511,-0.92625 -0.83816,-1.8e-4 -2.34884,-0.62511 -4.84744,-2.00526 -0.56238,-0.31064 -1.90003,-0.41264 -6.08542,-0.46403 -5.062089,-0.0622 -5.480689,-0.10634 -7.423769,-0.7836 -1.13256,-0.39475 -2.86927,-1.12568 -3.85937,-1.62429 -2.45426,-1.23594 -4.29859,-1.66332 -8.5412,-1.9792 -4.27713,-0.31846 -7.05673,-0.89018 -8.69128,-1.78767 -1.4319,-0.78621 -3.46439,-1.27186 -7.01146,-1.67533 -7.80185,-0.88745 -11.11547,-2.56377 -14.79559,-7.48493 -1.30876,-1.75011 -1.42185,-1.83066 -4.31429,-3.07276 -3.68158,-1.58098 -5.41285,-2.61479 -7.83701,-4.67976 -2.172,-1.85017 -2.79338,-2.22421 -3.69498,-2.22421 -0.81702,0 -1.22417,-0.48862 -1.42177,-1.70628 -0.0857,-0.52786 -0.36175,-1.06999 -0.61353,-1.20474 -0.45588,-0.24398 -2.72784,-0.54822 -7.85182,-1.05144 -1.48147,-0.14549 -3.3443,-0.508 -4.13963,-0.80557 -2.1239,-0.79465 -4.56031,-2.46729 -5.29946,-3.63817 -0.60333,-0.95575 -0.77367,-1.04728 -2.53437,-1.36194 -2.81646,-0.50333 -4.85562,-1.62969 -6.28677,-3.47261 -0.65397,-0.84212 -1.45689,-1.59836 -1.78427,-1.68053 -0.6719,-0.16863 -2.24854,-1.8134 -4.34891,-4.53682 -1.14569,-1.48555 -1.88036,-2.11718 -3.77644,-3.24679 l -2.35404,-1.40243 -3.23501,-0.0785 c -3.09674,-0.0751 -3.2506,-0.10556 -3.59958,-0.71248 -0.20051,-0.34871 -0.96343,-1.10401 -1.69537,-1.67845 l -1.3308,-1.04442 1.0796,-0.35987 c 0.59378,-0.19793 1.27015,-0.65067 1.50303,-1.0061 0.5345,-0.81575 0.96056,-0.81176 2.3838,0.0223 0.75525,0.4426 1.72564,0.72315 2.87139,0.83015 l 1.73062,0.1616 0.31185,-1.15811 c 0.39806,-1.4783 0.21922,-3.04223 -0.5233,-4.57608 -0.81695,-1.68759 -3.82455,-4.82293 -6.99436,-7.29144 -1.47184,-1.1462 -3.37079,-2.67704 -4.2199,-3.40187 -1.03673,-0.885 -2.18445,-1.55152 -3.49419,-2.02921 -1.16884,-0.4263 -2.41331,-1.11884 -3.10566,-1.72827 -1.35817,-1.19551 -2.74071,-3.64564 -2.99289,-5.30398 -0.0982,-0.64594 -0.35836,-1.38121 -0.57807,-1.63391 -0.4564,-0.52493 -0.50258,-1.26209 -0.21986,-3.50928 0.17694,-1.40636 0.12305,-1.73698 -0.47225,-2.89744 -0.36959,-0.72047 -0.62416,-1.35776 -0.56571,-1.41622 0.0585,-0.0584 0.78314,0.2036 1.61041,0.58234 1.76231,0.80681 2.52628,0.86253 3.0932,0.22559 0.49187,-0.55262 1.25739,-3.03583 1.25739,-4.07875 0,-0.44107 0.30485,-1.08274 0.75235,-1.58357 0.97214,-1.08801 2.12537,-1.13765 3.17038,-0.13647 0.51696,0.49529 1.01816,0.70556 1.68175,0.70556 1.56234,0 1.94351,-0.98021 1.42972,-3.67666 -0.39813,-2.08947 -1.02735,-3.20161 -1.71033,-3.02301 -0.49282,0.12887 -1.37418,-0.77018 -2.71897,-2.77355 -0.58796,-0.87589 -0.81579,-1.0247 -1.39834,-0.91334 -1.40911,0.26937 -2.30587,-1.14771 -2.94826,-4.65891 l -0.4422,-2.41703 h -1.27429 c -0.98061,0 -1.361,-0.12378 -1.65047,-0.53706 -0.33237,-0.47453 -0.30331,-0.73781 0.24958,-2.261 0.76938,-2.11963 0.789,-3.31223 0.0786,-4.7797 -0.8146,-1.68273 -2.05417,-2.64882 -3.68675,-2.87336 -1.17642,-0.1618 -1.57784,-0.38761 -2.85752,-1.60747 l -1.48883,-1.41922 0.32308,-1.13245 c 1.04138,-3.65016 1.15188,-4.29205 1.00801,-5.85556 -0.0823,-0.89479 -0.2499,-3.71048 -0.37236,-6.2571 -0.24335,-5.0609 -0.65945,-6.63472 -2.12425,-8.03472 -0.38791,-0.37074 -0.84356,-0.80874 -1.01256,-0.97333 -0.169,-0.1646 -0.60569,-0.57116 -0.97042,-0.90348 -0.92271,-0.84072 -1.25135,-2.16544 -1.42275,-5.73499 -0.17848,-3.71685 0.003,-4.99098 0.71245,-4.99098 0.27586,0 0.57514,0.11907 0.66508,0.26459 0.0899,0.14552 0.73395,0.26458 1.43113,0.26458 1.56212,0 2.69626,0.7573 4.94164,3.29968 1.79321,2.0304 4.52085,3.84913 7.18046,4.78776 2.13027,0.75182 2.65292,0.77505 5.01733,0.22297 2.11492,-0.49381 3.57405,-0.38264 7.52069,0.57299 2.71595,0.65763 2.73345,0.65839 3.13663,0.13588 0.49386,-0.64001 1.60634,-1.08077 2.73778,-1.08471 0.78508,-0.003 0.89316,-0.12113 1.58141,-1.7324 0.96049,-2.24861 1.19663,-4.65714 0.62196,-6.34371 -1.21016,-3.55162 -4.65246,-7.43341 -8.79663,-9.91969 -2.98375,-1.79011 -3.91024,-2.45622 -5.43395,-3.90686 -1.14786,-1.0928 -1.29699,-1.1577 -2.27905,-0.99178 -1.11902,0.18906 -1.16189,0.16375 -2.44586,-1.44381 -1.04884,-1.31318 -3.24579,-3.42848 -3.96875,-3.82126 -0.3638,-0.19765 -0.98813,-0.72665 -1.3874,-1.17555 -0.39927,-0.44891 -1.53036,-1.40203 -2.51354,-2.11804 -1.71416,-1.24836 -2.51486,-2.09878 -3.21595,-3.41563 -0.28566,-0.53654 -0.23053,-0.71431 0.46826,-1.51019 0.96264,-1.09639 1.26244,-2.71718 0.85446,-4.61951 -0.3435,-1.60167 -0.80192,-2.54404 -2.00296,-4.1175 l -0.88318,-1.15703 0.67691,-1.66674 c 0.85486,-2.10487 0.87924,-4.65694 0.093,-9.73653 -0.30406,-1.96454 -0.55362,-4.02606 -0.55457,-4.58116 -9.5e-4,-0.55511 -0.25452,-1.59691 -0.56348,-2.31511 -0.46799,-1.08787 -0.67775,-1.30654 -1.25677,-1.31017 -1.05098,-0.007 -2.70174,-1.06286 -3.51105,-2.24662 -0.90945,-1.33023 -2.03842,-4.69377 -2.24778,-6.69673 -0.12919,-1.23607 -0.0564,-1.73147 0.37836,-2.57525 1.22599,-2.37935 2.56251,-2.90435 3.50163,-1.37548 0.29051,0.47294 0.9075,1.78263 1.37108,2.91041 l 0.84287,2.05052 h 1.22137 c 1.00419,0 1.35295,0.13735 1.96138,0.7724 0.61726,0.64429 0.88861,0.74829 1.63591,0.62702 0.77487,-0.12574 0.99436,-0.0281 1.6246,0.72309 2.45297,2.92353 3.75828,3.60569 6.29338,3.28895 1.09401,-0.13669 1.52001,-0.32446 1.83835,-0.81031 0.3208,-0.4896 0.64964,-0.6324 1.45629,-0.6324 2.39322,0 3.86988,-3.53215 2.77454,-6.63666 -0.49941,-1.4155 -0.71409,-1.55629 -2.38073,-1.56137 -1.52822,-0.005 -2.29432,-0.4411 -2.76381,-1.57454 -0.25773,-0.62222 -0.54237,-0.83229 -1.29323,-0.95441 -2.11645,-0.34424 -2.58669,-0.46853 -3.47631,-0.91882 -1.16717,-0.59077 -1.71889,-1.19995 -2.26029,-2.49571 -0.51709,-1.23759 -0.35274,-2.36726 0.49928,-3.43167 0.81224,-1.01473 1.29526,-0.80211 2.17672,0.95815 1.01138,2.01968 1.84346,3.03328 2.65789,3.23769 0.93533,0.23475 1.23487,-0.11558 1.90925,-2.23307 1.24089,-3.8963 1.10752,-4.38965 -2.12176,-7.84864 -1.79178,-1.91923 -2.32746,-2.68621 -2.69727,-3.86195 -0.78895,-2.50828 -2.83517,-5.32569 -4.50132,-6.19782 -0.925,-0.48417 -2.29118,-0.5158 -3.34927,-0.0775 -1.17007,0.48466 -1.5746,0.0145 -1.5696,-1.82407 0.006,-2.03514 0.24848,-2.37622 1.37311,-1.92783 3.00318,1.19737 3.1734,1.22535 3.67626,0.60434 0.69191,-0.85446 0.77641,-2.29365 0.84086,-14.32068 0.062,-11.56723 0.003,-12.3202 -1.24938,-15.84212 -0.45388,-1.27677 -0.5423,-3.25964 -0.17627,-3.95288 0.12941,-0.24509 0.49575,-2.78079 0.81409,-5.63488 0.63315,-5.67659 0.68778,-4.64168 -0.6338,-12.00866 -0.96267,-5.36625 -0.79645,-9.99976 0.50119,-13.97098 0.69867,-2.13818 1.35617,-7.45065 1.64679,-13.30569 l 0.14568,-2.93501 -0.81163,-0.83029 c -0.9924,-1.0152 -1.36504,-2.27042 -1.36697,-4.60459 -0.001,-1.22369 -0.19709,-2.29959 -0.62745,-3.44296 -0.83747,-2.22495 -1.49069,-5.17727 -1.49069,-6.73737 0,-0.69984 -0.12415,-1.68837 -0.27589,-2.19673 -0.15174,-0.50836 -0.33103,-3.18648 -0.39842,-5.95138 -0.11292,-4.633 -0.16387,-5.05827 -0.64993,-5.42492 -0.55908,-0.42174 -1.05701,-1.79723 -1.05701,-2.91987 0,-0.64916 0.0485,-0.66976 1.24974,-0.53091 1.75392,0.20273 1.91656,0.63343 1.92136,5.08817 0.002,1.99144 0.12535,3.94023 0.27379,4.33066 0.34425,0.90545 0.3842,3.14037 0.1261,7.05439 -0.17845,2.7061 -0.14676,3.18757 0.24966,3.79259 0.44314,0.67631 0.46697,0.68132 0.98963,0.20832 0.68086,-0.61617 1.27513,-1.75876 1.27513,-2.45165 0,-0.58792 1.44578,-5.74252 1.92444,-6.86115 0.59082,-1.38075 1.27747,-2.15333 1.91383,-2.15333 0.54475,0 0.65265,-0.16527 0.82057,-1.25678 0.32516,-2.11361 0.22681,-4.3715 -0.22831,-5.2416 -0.23298,-0.44541 -1.27231,-1.61048 -2.30963,-2.58903 -2.18498,-2.0612 -2.29326,-2.70041 -0.50588,-2.98622 1.65072,-0.26397 1.82386,-0.72327 1.82916,-4.85243 0.005,-3.92476 0.39248,-6.29817 1.41641,-8.67663 0.35921,-0.83441 0.7224,-2.28049 0.80709,-3.21352 0.10643,-1.17255 0.47596,-2.39813 1.19663,-3.96875 1.98349,-4.32277 2.01405,-7.04087 0.13034,-11.59143 -0.67268,-1.62502 -0.90923,-2.58884 -0.90923,-3.70459 0,-1.49334 0.0147,-1.52183 1.50345,-2.90732 0.8269,-0.76956 1.60081,-1.3992 1.7198,-1.3992 0.42258,0 0.21332,-5.87532 -0.33281,-9.34423 -0.81045,-5.14777 -0.40454,-6.83526 2.10067,-8.73312 1.89089,-1.43248 2.45025,-3.04862 3.3586,-9.7039 0.2284,-1.67349 0.65189,-4.11051 0.94107,-5.41559 0.78801,-3.55628 0.3545,-5.34079 -1.86842,-7.69119 -0.84052,-0.88874 -1.40481,-1.77309 -1.60446,-2.51453 -0.16938,-0.62901 -0.59519,-1.56637 -0.94626,-2.08301 -0.87584,-1.28891 -0.80966,-1.79428 0.45433,-3.46947 0.60095,-0.79645 1.32794,-1.98387 1.61554,-2.63871 1.06618,-2.4276 0.84119,-6.40162 -0.41212,-7.27947 -0.47633,-0.33364 -0.63547,-0.31826 -1.36373,0.13184 -0.45346,0.28025 -1.35475,0.58301 -2.00288,0.67279 -0.64812,0.0898 -1.63393,0.35536 -2.19069,0.59016 -1.26864,0.53504 -1.53704,0.23422 -1.43774,-1.61137 l 0.0688,-1.27834 1.43409,-0.50374 c 0.78874,-0.27705 2.45562,-0.63857 3.70416,-0.80337 4.31827,-0.57001 6.52231,-1.85824 7.31329,-4.27453 0.61672,-1.883968 1.60197,-3.804578 2.03741,-3.971668 0.19797,-0.076 0.49944,-0.90354 0.67374,-1.84946 0.57803,-3.1371 0.34231,-4.25112 -1.07691,-5.08948 -0.44995,-0.26579 -2.07102,-1.65562 -3.60238,-3.08851 -2.91814,-2.73051 -4.3938,-3.65943 -5.81323,-3.65943 -1.20138,0 -3.33123,-1.15269 -4.93844,-2.67273 -0.75369,-0.71281 -1.49092,-1.29602 -1.63827,-1.29602 -0.57012,0 -2.71855,-2.19342 -3.94651,-4.02916 -0.70784,-1.05818 -1.55571,-2.26052 -1.88415,-2.67187 -0.84827,-1.06238 -0.78422,-2.42543 0.18585,-3.95506 0.92325,-1.45582 1.9153,-1.86442 2.63779,-1.08645 0.25424,0.27376 1.69116,2.49204 3.19315,4.92952 1.50199,2.43747 2.8799,4.43177 3.06203,4.43177 0.45656,0 1.60369,1.41287 2.36179,2.90892 0.51597,1.01822 0.87291,1.34989 1.95263,1.81437 1.98525,0.85403 3.20751,0.71812 3.20751,-0.35666 0,-1.1866 0.7668,-1.69327 2.67671,-1.76867 1.54233,-0.0609 1.8853,0.02 2.88188,0.67948 1.10675,0.73241 1.18527,0.74454 3.63061,0.56121 2.42902,-0.18211 2.49157,-0.17277 2.22146,0.33194 -0.48016,0.89718 -2.103,2.14667 -3.00449,2.31326 -0.47605,0.088 -1.40133,0.12362 -2.05617,0.0792 l -1.19063,-0.0808 -0.0779,2.08707 c -0.0692,1.85195 -0.0118,2.15746 0.50914,2.71198 0.41431,0.44101 0.87858,0.62491 1.57765,0.62491 1.37285,0 1.73473,0.18414 2.36455,1.20322 0.7535,1.21918 1.31301,1.32209 2.87761,0.52925 1.42015,-0.71965 2.38771,-0.85145 2.8508,-0.38836 0.20425,0.20425 0.57788,0.20467 1.30969,0.001 1.55851,-0.43275 1.92003,-0.3596 2.8302,0.57264 0.83502,0.85526 0.85213,0.85953 3.17732,0.79216 2.15016,-0.0623 2.50327,0.004 4.39972,0.82582 4.06797,1.76287 6.16546,1.87196 9.10704,0.47365 1.77586,-0.84417 3.86692,-2.51788 3.86692,-3.09513 0,-0.4305 0.80868,-0.91473 1.52764,-0.91473 0.48356,0 1.11819,-0.95986 1.11819,-1.69124 0,-0.18888 0.24304,-0.56337 0.5401,-0.83219 0.457,-0.41359 0.52823,-0.75402 0.46302,-2.2128 -0.0922,-2.06326 -0.11148,-2.07369 -3.91353,-2.12238 -1.88696,-0.0242 -2.80106,-0.16264 -3.66692,-0.55554 -0.63435,-0.28784 -1.50538,-0.52335 -1.93562,-0.52335 -1.18667,0 -1.6836,-0.38372 -2.76425,-2.13452 -1.16054,-1.88022 -4.02368,-4.12825 -6.38129,-5.01034 -1.94076,-0.72613 -6.05218,-1.08793 -12.35732,-1.08744 -5.56681,4.4e-4 -6.71695,-0.25669 -8.23487,-1.84107 -0.67947,-0.70921 -0.89544,-0.77455 -2.56027,-0.77455 -2.18926,0 -2.14768,-0.27074 0.20359,-1.32569 0.93998,-0.42174 1.72744,-0.95762 1.81002,-1.23176 0.47204,-1.56703 1.55329,-6.87795 1.75981,-8.64391 0.3313,-2.83295 1.23362,-4.7491 2.55324,-5.42205 1.26998,-0.64763 9.97535,-2.9818 14.37596,-3.85464 4.51839,-0.89619 8.09828,-1.1811 14.95992,-1.19062 5.35122,-0.007 5.93598,-0.0542 7.09618,-0.56739 0.79155,-0.35014 2.27161,-0.65315 3.95779,-0.81027 1.48137,-0.13804 3.70543,-0.50134 4.94236,-0.80733 1.86871,-0.46229 2.72239,-0.52968 5.04903,-0.39861 1.85945,0.10475 2.89633,0.0615 3.08658,-0.12876 0.15758,-0.15758 0.52168,-0.42154 0.8091,-0.58659 0.28743,-0.16505 1.33257,-0.76973 2.32253,-1.34373 3.29888,-1.91277 7.43276,-3.0574 11.04197,-3.0574 1.07723,0 2.51727,-0.0766 3.2001,-0.17016 1.10657,-0.15168 1.29807,-0.28107 1.76209,-1.19063 0.55223,-1.08245 1.02976,-1.27234 1.56818,-0.62358 0.18718,0.22553 0.76402,0.39687 1.33611,0.39687 1.53438,0 2.1162,-0.95055 3.15795,-5.15937 0.3389,-1.3692 1.12431,-2.63327 1.98759,-3.19892 0.89775,-0.58823 2.34863,-0.18943 3.43457,0.94405 1.24854,1.3032 2.1479,1.09095 6.59441,-1.55632 3.32801,-1.98136 4.28844,-2.17183 7.42862,-1.4732 2.54506,0.56622 4.82493,0.43948 10.059709,-0.55921 3.54637,-0.67658 3.9014,-0.69678 8.33437,-0.47425 6.02941,0.30267 13.94083,0.23117 16.82027,-0.15202 1.25575,-0.16711 3.43202,-0.71743 4.83615,-1.22294 l 2.55296,-0.9191 2.28571,0.3175 2.2857,0.3175 1.33521,-0.8568 c 1.651,-1.05944 2.36824,-1.2566 5.86734,-1.61281 6.54533,-0.66633 11.74695,-0.79681 19.12035,-0.47964 8.23969,0.35443 12.08781,0.16868 20.43485,-0.98641 9.2283398,-1.27704 12.74190978,-1.68494 16.9333398,-1.96581 2.32833,-0.15603 6.9519702,-0.46233 10.2747602,-0.68068 3.32279,-0.21835 8.20435,-0.69411 10.84792,-1.05725 7.07274,-0.97157 12.57275,-1.62648 16.39681,-1.95245 1.86354,-0.15885 5.7926,-0.75954 8.73125,-1.33486 6.77937,-1.32725 8.8532,-1.60159 12.106737,-1.60159 2.582833,0 2.643273,-0.0144 3.816103,-0.90965 1.21604,-0.92823 1.560968,-1.01671 5.295166,-1.35838 1.018646,-0.0932 3.56856,-0.50715 5.666475,-0.9198901 3.372382,-0.66346 3.880368,-0.83316 4.383746,-1.46445 l 0.569354,-0.71404 1.746797,0.69883 c 2.185114,0.87418 4.097485,0.90669 8.349693,0.14194 3.987518,-0.71715 6.470414,-0.60851 8.62375,0.37731 1.9682,0.90108 2.50315,0.88982 4.0403,-0.085 1.56985,-0.99557 3.02051,-1.0431 4.93471,-0.16167 l 1.37267,0.63207 9.6573,-0.0545 9.65729,-0.0545 1.19062,-0.64375 c 1.70123,-0.91982 5.66175,-0.91562 9.35201,0.01 l 2.60514,0.65339 0.70216,-0.82756 c 0.91912,-1.08328 1.52003,-1.22848 3.10024,-0.74912 3.17318,0.96257 14.72171,0.14562 28.42587,-2.01087 6.15942,-0.96925 8.00382,-0.95016 10.03547,0.1039 1.25011,0.64858 1.66511,0.72139 4.11176,0.72139 2.09616,0 2.79697,-0.0912 3.05068,-0.39688 0.53264,-0.64178 1.40335,-0.46474 2.14363,0.43587 0.78685,0.95727 1.76739,1.07185 3.13232,0.36601 1.37481,-0.71094 3.49094,-0.9826 5.33758,-0.6852 1.31386,0.21159 1.74783,0.19296 2.07259,-0.089 1.08342,-0.94054 1.76007,-1.0825 5.30555,-1.11304 2.19714,-0.0189 4.29468,-0.19321 5.44988,-0.45281 1.03291,-0.23212 4.36666,-0.78598 7.40834,-1.23079 6.71978,-0.98269 8.75793,-1.37416 13.20324,-2.53595996 1.89177,-0.49442 6.41614,-1.4383 10.05416,-2.09751004 3.63803,-0.65921 8.09416,-1.5582 9.90253,-1.99776 5.11809,-1.24406 7.5851,-1.55842 14.70372,-1.87365 5.84006,-0.25861 6.73851,-0.35743 7.67292,-0.844 0.58208,-0.3031 1.59412,-0.81612 2.24896,-1.14006 1.26899,-0.62773 10.72763,-2.7119199 15.34583,-3.3814199 1.52797,-0.22151 4.98078,-0.64888 7.67292,-0.94971 4.03397,-0.45078 5.33683,-0.70668 7.40833,-1.45511 3.73824,-1.35062 5.43538,-1.72569 7.80868,-1.72569 1.99896,0 2.21912,-0.0571 3.31323,-0.85989 1.16479,-0.85462 1.19152,-0.85999 4.3516,-0.87543 2.75936,-0.0135 3.35324,-0.0971 4.49323,-0.63284 1.22231,-0.5744 1.53774,-0.60671 4.53828,-0.46494 2.39153,0.113 3.65857,0.0499 4.9041,-0.24422 3.12291,-0.73746 7.21636,-1.14566 11.54082,-1.15084 l 4.30516,-0.005 0.30138,-0.66146 c 0.29541,-0.64837 0.36013,-0.66146 3.27137,-0.66146 2.11995,0 3.1869,0.11312 3.72784,0.39525 0.94116,0.49084 1.10371,0.49084 2.04487,0 0.96596,-0.50379 5.19745,-0.55181 5.68478,-0.0645 0.22371,0.22369 1.37542,0.34331 3.55864,0.36962 6.19993,0.0747 11.3191,0.82813 21.39619,3.14906 3.44412,0.79324 6.45586,1.44225 6.69275,1.44225 0.2369,0 0.73053,0.29981 1.09696,0.66625 0.63317,0.63316 0.76794,0.65777 2.71421,0.49545 l 2.04797,-0.17079 0.69626,0.82746 c 0.43046,0.51158 0.94331,0.82747 1.3434,0.82747 0.41915,0 0.87826,0.30294 1.30316,0.85989 0.6278,0.82293 0.80833,0.88571 4.19859,1.4603 1.94841,0.3302199 4.00325,0.5981099 4.56629,0.5953099 0.70955,-0.004 1.49157,0.27911 2.54816,0.92095 0.83843,0.50933 1.65768,0.92605 1.82054,0.92605 0.70894,0 0.15438,0.45875 -1.54491,1.27803 -1.0052,0.48463 -2.12419,0.84229 -2.48664,0.7948 -0.42488,-0.0557 -0.90877,0.14827 -1.36201,0.57405 -0.54714,0.51398 -1.00625,0.66808 -2.07072,0.69502 -0.75225,0.019 -1.55236,0.0488 -1.77802,0.0661 -0.22566,0.0173 -0.67215,0.5705 -0.99219,1.22924 -0.51173,1.05329 -0.58189,1.62909 -0.58189,4.77561 v 3.57791 l -0.92604,0.95352 c -0.50932,0.52443 -0.92604,1.05431 -0.92604,1.17751 0,0.12319 -0.32742,0.22773 -0.7276,0.23231 -0.85727,0.01 -1.54854,0.83844 -2.00395,2.4021701 -0.17114,0.58765 -0.43022,1.08515 -0.57574,1.10556 -0.14552,0.0204 -0.5414,-0.46469 -0.87972,-1.07801 -0.57673,-1.0454901 -0.68707,-1.1151201 -1.76704,-1.1151201 -1.10081,0 -1.80084,0.37821 -2.04263,1.1035801 -0.0607,0.18202 -0.65727,0.33789 -1.38768,0.36255 -1.64299,0.0555 -1.99303,0.51582 -1.99173,2.61933 0.002,2.8886 1.37491,4.11662 4.60306,4.11662 1.69186,0 1.74595,-0.0208 1.74595,-0.66995 0,-0.82488 0.62396,-2.36888 1.06827,-2.64348 0.21142,-0.13067 0.65563,0.19075 1.2462,0.90172 1.51532,1.82425 1.42501,1.79757 9.45948,2.79455 1.74625,0.21669 5.36579,0.5204 8.04342,0.67492 4.86755,0.28088 4.86884,0.28081 7.22658,-0.41291 2.70026,-0.7945 3.545,-0.71717 3.83819,0.35137 0.31834,1.16022 0.17597,3.33099 -0.27576,4.20455 -0.5839,1.12914 -1.45048,1.6187 -3.95687,2.23539 -1.19655,0.29441 -2.60562,0.81614 -3.13126,1.15939 -0.8813,0.5755 -0.97035,0.75354 -1.14382,2.28675 -0.34913,3.08599 -1.01291,3.93437 -3.07826,3.93437 -0.84578,0 -1.2581,0.15815 -1.72455,0.66146 -0.43598,0.47042 -0.88915,0.66145 -1.56909,0.66145 -1.36677,0 -1.95614,0.40883 -2.56116,1.77659 -0.29248,0.66119 -0.87659,1.74588 -1.29803,2.41042 -1.10253,1.73851 -1.05748,3.27606 0.15978,5.45272 0.50932,0.91076 0.9256,2.00167 0.92505,2.42424 -0.001,0.82297 -0.87859,2.48812 -1.31124,2.48812 -0.14392,0 -0.44639,0.35719 -0.67214,0.79375 -0.28829,0.55749 -0.60533,0.79375 -1.06513,0.79375 -0.78967,0 -1.635,0.78772 -1.87607,1.74824 -0.0971,0.38685 -0.0704,1.37215 0.0594,2.18954 0.21628,1.36228 0.28945,1.48024 0.87762,1.41494 0.40472,-0.0449 0.91367,0.18936 1.37829,0.63449 0.70303,0.67354 0.86084,0.70509 3.45938,0.69145 2.38917,-0.0125 2.79462,0.0521 3.30942,0.52798 0.68225,0.63063 1.28614,2.36827 1.54132,4.43503 0.0988,0.80036 0.35404,1.87192 0.56715,2.38125 0.52821,1.2624 0.52472,2.9975 -0.008,3.81003 -0.2606,0.39772 -0.43852,1.20601 -0.43852,1.99218 0,2.08663 0.99073,2.33819 4.7625,1.20924 1.21545,-0.3638 2.60807,-0.66145 3.09471,-0.66145 h 0.88479 l -0.56476,1.12447 c -0.83664,1.66579 -1.75491,2.79328 -2.65335,3.25788 -0.43932,0.22718 -1.88013,0.5746 -3.2018,0.77203 -1.499,0.22393 -2.66155,0.55178 -3.09017,0.87146 -0.67246,0.50153 -0.68874,0.58816 -0.76253,4.05634 -0.10283,4.83299 0.20555,6.68306 1.30263,7.81496 0.74644,0.77013 0.97211,0.86015 1.81745,0.72498 0.77741,-0.12432 1.11039,-0.0294 1.71163,0.48773 l 0.74646,0.64208 -1.03032,1.38006 c -0.60845,0.815 -1.30167,1.43977 -1.69305,1.52587 -0.85173,0.18738 -3.47939,1.19468 -3.8832,1.48859 -0.36324,0.26439 -0.63121,1.66297 -0.67338,3.51451 -0.0354,1.55472 1.09594,4.654858 2.08187,5.704738 0.79932,0.85116 2.21265,1.29471 4.1255,1.29471 1.18465,0 1.52713,0.10354 1.82463,0.55159 0.33371,0.5026 0.69784,0.56472 4.09881,0.69936 l 3.73255,0.14776 1.66427,-0.83165 c 2.60395,-1.3012 4.92272,-1.03175 9.04992,1.05165 2.06433,1.04207 3.53903,1.19097 6.27295,0.63335 2.70434,-0.55158 3.55924,-0.4433 7.15897,0.90676 1.52797,0.57306 3.10253,1.1103 3.49903,1.19387 0.69348,0.14617 0.60791,0.25855 -2.24895,2.95337 -3.32278,3.13432 -5.02663,4.25095 -6.86361,4.49811 -0.88095,0.11853 -1.36194,0.34194 -1.63571,0.75976 -0.24877,0.37968 -0.77027,0.65303 -1.45463,0.76246 -0.59529,0.0952 -1.72221,0.62969 -2.54959,1.20927 -1.87115,1.31074 -3.24512,1.60392 -7.51667,1.60392 -2.9168,0 -3.42204,0.062 -3.56614,0.43749 -0.15608,0.40676 -0.19059,0.40671 -0.49132,-7.5e-4 -0.29142,-0.39483 -0.5462,-0.3035 -2.57241,0.92211 -3.77664,2.28441 -5.21549,2.87404 -7.01396,2.87428 -1.30332,1.7e-4 -1.64959,0.0956 -1.92047,0.52937 -0.18176,0.29104 -0.55301,0.52917 -0.825,0.52917 -0.27199,0 -0.61534,0.14883 -0.76301,0.33073 -0.58073,0.71538 -1.68377,4.92637 -1.90617,7.27705 -0.22933,2.424 -0.53012,3.24014 -1.19415,3.24014 -0.61707,0 -1.71055,1.08602 -3.06233,3.04145 -2.19011,3.16811 -3.07972,3.45538 -4.91993,1.58875 -0.64558,-0.65484 -1.29299,-1.19062 -1.43868,-1.19062 -0.51651,0 -1.55523,1.40419 -2.12647,2.87466 -0.78614,2.0237 -0.82646,5.7925 -0.0784,7.32524 l 0.50999,1.04489 2.0361,0.077 2.0361,0.077 1.34083,-1.33378 c 1.50963,-1.50171 2.5832,-1.7437 3.58026,-0.80701 0.5604,0.52646 0.56274,0.52636 3.85351,-0.16842 4.55577,-0.96184 8.09095,-0.95903 11.89174,0.009 3.45559,0.88053 11.08496,1.40434 14.41447,0.98965 1.43886,-0.17921 2.21615,-0.17599 2.44039,0.0101 0.6252,0.51887 0.66914,1.87854 0.10115,3.13034 -0.29712,0.65484 -0.54284,1.68888 -0.54603,2.29787 -0.003,0.609 -0.12193,1.41267 -0.26385,1.78594 -0.22567,0.59357 -0.41158,0.67868 -1.48235,0.67868 -0.89281,0 -2.05876,0.36515 -4.30603,1.34854 -1.69494,0.7417 -3.20077,1.53155 -3.34629,1.75524 -0.97246,1.49478 -1.50992,1.89165 -2.85084,2.1051 -1.25197,0.19928 -1.42393,0.31192 -1.84661,1.2096 -0.51963,1.10356 -0.7263,1.17556 -1.64551,0.57327 -0.61526,-0.40314 -0.77088,-0.33633 -4.81933,2.06917 -2.30095,1.36718 -5.62912,3.28302 -7.39593,4.25743 -1.76681,0.97442 -3.36496,1.95551 -3.55144,2.1802 -0.49671,0.5985 -0.64016,3.13298 -0.23296,4.11604 l 0.34456,0.83184 4.98109,-0.18704 4.98108,-0.18704 2.48238,-1.03723 c 5.76789,-2.41003 9.02353,-2.3064 11.99921,0.38195 1.22189,1.1039 1.46131,1.14688 2.37689,0.42668 0.8477,-0.6668 1.16156,-0.66459 1.74108,0.0122 0.40901,0.47768 0.65084,0.52022 2.05453,0.36141 1.42026,-0.16068 1.65842,-0.11661 2.21979,0.41077 0.34586,0.32492 0.77708,0.96595 0.95827,1.42452 0.8204,2.07635 1.86233,2.32798 2.63065,0.63532 0.28073,-0.61846 0.51304,-1.45972 0.51623,-1.86947 0.003,-0.40975 0.12907,-0.9753 0.27971,-1.25677 0.86439,-1.61514 2.14372,0.79173 2.20161,4.14201 0.0507,2.93679 -0.11505,3.10058 -3.32047,3.2803 -2.41173,0.13522 -2.42131,0.13855 -2.67432,0.92946 -0.30136,0.94199 -0.93057,1.71979 -1.39126,1.71979 -0.18183,0 -0.69816,0.65127 -1.14739,1.44726 -0.91035,1.61305 -1.70582,2.1419 -3.79796,2.52497 -1.03154,0.18888 -1.52505,0.43918 -1.91806,0.97282 -1.26307,1.715 -1.65521,1.97052 -2.71195,1.76716 -1.4517,-0.27937 -1.85051,-0.20168 -2.71982,0.5298 -0.87305,0.73462 -1.16415,0.84117 -2.9675,1.08614 -1.67593,0.22767 -2.46395,0.95075 -3.95278,3.62704 -1.31664,2.36677 -2.16184,3.35916 -3.65122,4.28707 -0.5071,0.31593 -1.19754,1.04716 -1.53431,1.62494 -0.52316,0.89758 -0.59708,1.32745 -0.50779,2.95299 0.15076,2.7447 0.48341,3.13853 2.8162,3.3341 1.67994,0.14084 2.01642,0.0849 3.20858,-0.53363 1.88514,-0.97805 5.09051,-1.17198 6.10388,-0.36931 0.38382,0.30403 0.77755,0.87028 0.87495,1.25833 0.0974,0.38806 0.46116,0.92901 0.80837,1.20212 0.74128,0.5831 1.08814,2.29622 0.73829,3.64636 -0.2671,1.03076 -0.0268,0.88097 -4.2893,2.674 -2.59349,1.09096 -3.68141,1.40986 -5.15938,1.51233 -1.18472,0.0821 -1.95063,0.2624 -2.08447,0.49059 -0.27831,0.47452 -0.83321,0.45839 -1.24363,-0.0361 -0.4819,-0.58065 -1.29717,-0.48668 -2.39837,0.27645 l -0.97161,0.67333 -0.12377,2.57041 c -0.18214,3.78257 -0.74615,4.45598 -2.59166,3.0944 -0.57836,-0.4267 -1.24633,-0.66146 -1.88205,-0.66146 -0.88305,0 -1.1113,0.15816 -2.19559,1.52135 -1.14631,1.44116 -1.2102,1.60898 -1.21206,3.1835 -0.002,2.03883 0.42348,3.10949 1.85444,4.6619 l 1.10301,1.19662 -1.22199,0.3077 c -1.88925,0.47572 -2.3589,1.24936 -2.18548,3.60009 0.0772,1.04689 0.30181,2.23752 0.49907,2.64583 l 0.35864,0.74238 h 3.37298 3.37298 l 0.9418,1.18913 0.9418,1.18913 -0.0878,2.81875 c -0.0945,3.03218 -0.37313,3.6963 -1.77586,4.23259 -0.60451,0.23111 -0.62449,0.32176 -0.49966,2.26688 0.11485,1.78954 0.21327,2.09775 0.84288,2.63931 0.39207,0.33724 0.94434,0.61317 1.22726,0.61317 0.64051,0 0.63945,0.10381 -0.0148,1.45526 -0.33798,0.69816 -0.90215,1.30277 -1.56136,1.67327 -0.57515,0.32325 -1.39518,1.14583 -1.85206,1.8578 -0.69228,1.07883 -0.81989,1.5342 -0.81989,2.92558 0,2.86672 0.71288,3.31684 1.7191,1.08545 0.47126,-1.04506 0.49768,-1.05986 1.89295,-1.05986 h 1.41503 v 1.70257 c 0,2.56371 -0.49932,3.57614 -1.76811,3.58505 -0.34536,0.002 -0.64589,0.21958 -0.74767,0.54026 -0.28827,0.90825 -1.18761,1.32002 -2.32346,1.06383 -0.90561,-0.20426 -1.04557,-0.16086 -1.44444,0.44788 -0.35788,0.54619 -0.42974,1.24224 -0.37883,3.66937 0.0683,3.25622 -0.25709,4.58586 -1.25259,5.11864 -0.36542,0.19556 -0.55157,0.55553 -0.55157,1.0666 0,1.45462 0.55952,3.37957 1.13955,3.92047 l 0.58024,0.5411 3.43959,-0.78773 c 1.89177,-0.43324 3.79677,-0.79878 4.23333,-0.8123 0.43656,-0.0135 1.0777,-0.24534 1.42474,-0.51516 1.36885,-1.06424 1.91288,-0.45977 2.39786,2.6643 0.14513,0.93482 0.41597,1.79765 0.60188,1.91741 0.31158,0.20071 3.26979,0.0235 3.70166,-0.22179 0.35734,-0.20292 0.73446,-2.07589 0.73692,-3.65988 0.003,-2.01274 0.64477,-3.17644 1.89947,-3.44488 0.48352,-0.10345 1.02656,-0.30682 1.20674,-0.45192 0.41753,-0.33627 0.67078,0.25771 0.55202,1.29477 -0.0659,0.57523 -0.2815,0.81318 -0.92554,1.02136 -1.63289,0.52782 -1.84803,0.93926 -2.00787,3.83988 -0.10426,1.89205 -0.29359,2.92691 -0.66633,3.64203 -0.76963,1.47656 -0.93997,2.50755 -0.96313,5.82933 -0.0207,2.97361 -0.0275,3.005 -0.79169,3.66246 -0.56293,0.48432 -0.96469,0.62436 -1.4899,0.51932 -0.51724,-0.10345 -1.0747,0.0817 -1.98564,0.65937 -0.83764,0.53121 -1.48737,0.76097 -1.91874,0.67851 -0.43497,-0.0831 -1.73616,0.38685 -3.90621,1.41096 -2.60689,1.23028 -3.33738,1.69695 -3.67343,2.34681 -0.57733,1.11643 -1.6729,1.61388 -3.55436,1.61388 -1.42661,0 -1.63284,0.0717 -2.09205,0.7276 -0.34581,0.49393 -0.56561,1.40739 -0.68437,2.84427 -0.0962,1.16417 -0.3976,2.97443 -0.66972,4.0228 -0.52211,2.01145 -0.50966,4.81591 0.0277,6.22981 0.33798,0.88933 1.14647,0.95683 2.38873,0.19942 0.7231,-0.44087 1.33489,-0.52834 3.70125,-0.52916 2.54345,-8.9e-4 2.86348,-0.0543 3.11225,-0.51911 0.15251,-0.28496 1.03225,-0.94031 1.95498,-1.45633 1.26423,-0.707 1.86805,-0.90015 2.45008,-0.78374 0.5776,0.11552 0.89797,0.0157 1.27034,-0.39575 0.63143,-0.69773 1.07716,-0.6966 1.56786,0.004 l 0.38818,0.5542 1.17142,-0.68649 c 0.64428,-0.37758 1.41611,-0.6865 1.71518,-0.6865 0.29907,0 0.61203,-0.17791 0.69548,-0.39536 0.23768,-0.61941 1.80339,-1.45465 2.72887,-1.45574 1.10188,-10e-4 2.40236,1.09603 2.60466,2.19778 0.17247,0.93934 -0.51569,4.5772 -0.96924,5.12369 -0.45599,0.54944 -0.69992,0.42755 -1.41669,-0.70787 -0.48735,-0.77202 -0.84614,-1.05834 -1.32623,-1.05834 -0.6548,0 -1.71647,0.81826 -1.71647,1.32292 0,0.14552 -0.4707,0.26458 -1.04599,0.26458 -1.15386,0 -1.34147,0.18026 -2.6849,2.57969 -0.84803,1.51462 -1.42698,1.73865 -2.22224,0.8599 -0.26339,-0.29104 -0.80645,-0.52917 -1.2068,-0.52917 -0.67264,0 -0.7417,0.10024 -0.90947,1.32005 -0.20239,1.47151 -1.02428,2.88086 -1.94884,3.34181 -0.3353,0.16716 -0.72163,0.41592 -0.8585,0.55279 -0.13686,0.13687 -0.24939,2.30813 -0.25006,4.82503 -6.8e-4,2.56007 -0.11846,4.79526 -0.26735,5.07345 -0.18645,0.34839 -0.56044,0.49837 -1.24902,0.5009 -2.6153,0.01 -2.96725,0.63278 -2.96725,5.25391 v 3.45609 l 0.93486,0.93486 c 1.23796,1.23796 1.9219,1.19701 4.34474,-0.26018 1.08477,-0.65241 2.11846,-1.18621 2.29709,-1.18621 0.17863,0 0.5902,-0.38695 0.9146,-0.8599 0.74236,-1.08228 1.56817,-1.77245 2.12988,-1.78005 0.23909,-0.003 0.50617,-0.19208 0.59349,-0.41966 0.1091,-0.28431 0.42636,-0.38779 1.01396,-0.33073 0.68281,0.0663 0.9756,0.29636 1.45267,1.14138 0.82177,1.45558 0.75684,2.66506 -0.28795,5.36351 -0.49178,1.27017 -1.27935,3.52803 -1.75014,5.01745 -1.06889,3.38159 -2.07603,5.04904 -3.18338,5.27052 -0.65247,0.13049 -0.93064,0.42783 -1.47322,1.57474 -0.73864,1.56138 -1.71492,2.48524 -2.62623,2.48524 -0.34307,0 -0.779,0.28029 -1.02875,0.66146 -0.24549,0.37467 -0.68886,0.66302 -1.02262,0.66507 -1.209,0.007 -1.75333,0.34375 -2.61496,1.61574 -0.48657,0.71831 -1.93364,2.14703 -3.21573,3.17494 -2.24526,1.80014 -3.62002,3.33571 -4.23528,4.73071 -0.16046,0.3638 -0.63741,1.06793 -1.0599,1.56474 -0.68202,0.80199 -0.74968,1.03816 -0.60331,2.10598 0.0907,0.66148 0.27946,1.3173 0.41954,1.45739 0.14009,0.14008 0.94262,0.22735 1.7834,0.19392 1.23144,-0.049 1.6316,-0.18128 2.05786,-0.68048 1.09934,-1.28742 1.91424,-1.57161 5.00109,-1.74413 2.32765,-0.13008 3.18273,-0.29072 4.12454,-0.77486 0.65346,-0.33591 2.81109,-0.99247 4.79473,-1.45902 3.05771,-0.71917 3.91075,-1.03782 5.60487,-2.09373 1.09904,-0.685 2.14813,-1.42604 2.33132,-1.64676 0.46572,-0.56117 2.06178,-1.34007 3.47529,-1.69599 0.7942,-0.19998 1.3842,-0.55838 1.76327,-1.0711 0.35272,-0.47708 0.81048,-0.77055 1.20191,-0.77055 0.38601,0 1.18147,-0.50011 2.0426,-1.28419 l 1.41038,-1.2842 3.43656,-0.14578 c 2.87925,-0.12215 3.47996,-0.21999 3.70417,-0.60334 0.81248,-1.38915 1.52598,-1.97415 2.40779,-1.97415 0.6427,0 0.90253,0.11926 0.90253,0.41426 0,1.22486 -1.88636,3.2899 -3.00522,3.2899 -1.25634,0 -2.78433,1.10009 -5.2502,3.77995 -1.26627,1.37614 -2.75455,2.72928 -3.3073,3.00698 -0.55274,0.2777 -1.31728,0.71349 -1.69897,0.96843 -0.38169,0.25494 -1.3628,0.57238 -2.18025,0.70542 -1.58141,0.25738 -2.61779,0.85257 -3.03214,1.74136 -0.14492,0.31085 -0.72561,0.68613 -1.35211,0.87384 -0.8623,0.25835 -1.36562,0.68033 -2.34378,1.96501 -1.82544,2.39748 -2.57654,3.09859 -3.31949,3.09859 -0.82982,0 -2.58114,1.92604 -3.60874,3.96875 -0.40263,0.80037 -0.93101,2.46724 -1.17417,3.70417 -1.20356,6.12213 -3.36476,9.80312 -6.98828,11.90258 -1.2195,0.70658 -1.62732,1.09921 -1.74311,1.6782 -0.0831,0.41569 -0.48561,1.07219 -0.89437,1.45887 -0.40876,0.38668 -1.26158,1.71509 -1.89514,2.95202 -1.79839,3.51108 -5.50178,9.42296 -6.34987,10.13657 -0.42201,0.3551 -1.29409,0.72464 -1.93794,0.82119 -1.48378,0.2225 -2.04982,0.7594 -3.14507,2.98311 l -0.88115,1.78903 -0.0912,4.82515 c -0.0861,4.55543 -0.0602,4.86873 0.46404,5.60492 0.31452,0.44171 0.73155,1.73647 0.9619,2.98646 0.6882,3.73446 1.43999,5.94392 2.4068,7.07342 1.40762,1.64448 1.10339,3.76071 -0.76916,5.35041 -0.73177,0.62123 -0.81202,0.83566 -0.78337,2.09319 0.0184,0.80844 0.18851,1.55765 0.40214,1.77128 0.37438,0.37438 2.29606,0.53763 2.78339,0.23644 0.14544,-0.0899 0.34727,-0.78838 0.44851,-1.5522 0.10124,-0.76382 0.40922,-2.34127 0.6844,-3.50543 0.27517,-1.16417 0.50115,-3.01665 0.50217,-4.11662 0.002,-2.11848 0.3945,-3.10537 1.12384,-2.8255 1.01238,0.38849 1.80565,-0.92209 2.20396,-3.64122 l 0.19379,-1.32291 0.24292,1.05833 c 0.34121,1.48658 0.1263,2.99792 -0.6638,4.66803 -1.09199,2.30829 -1.10482,2.60397 -0.24187,5.57274 0.43546,1.4981 0.86762,3.0576 0.96035,3.46556 0.15883,0.69878 0.24042,0.7371 1.40822,0.66146 1.31589,-0.0852 1.71055,-0.49359 2.03871,-2.10944 0.11468,-0.5647 0.40114,-0.79183 1.42943,-1.13338 1.52058,-0.50505 3.06754,-1.76484 4.4058,-3.58792 0.83276,-1.13444 1.09465,-1.31934 1.86868,-1.31934 0.76178,0 1.00243,0.16197 1.56519,1.05343 0.66429,1.05231 1.7895,4.15902 2.07622,5.73248 0.13296,0.72963 0.0588,0.87129 -0.59887,1.1437 -1.70147,0.70477 -2.77076,2.51189 -3.06427,5.17864 -0.14206,1.29078 -0.0492,1.96638 0.51276,3.73175 0.38905,1.22212 0.8662,2.22469 1.10181,2.3151 0.86784,0.33302 1.68967,0.14935 2.09419,-0.46802 0.35434,-0.54079 0.8828,-4.44412 0.91505,-6.75878 0.0172,-1.23782 0.24143,-0.38066 0.67668,2.58725 0.24186,1.64926 0.36367,3.40421 0.27068,3.89989 -0.21079,1.12363 -1.07603,1.95747 -2.03116,1.95747 -0.62328,0 -0.85462,0.238 -1.60375,1.64989 -0.52443,0.98838 -1.91672,2.74763 -3.47257,4.38779 -1.42843,1.50585 -3.0075,3.37938 -3.50903,4.16341 -1.22941,1.92187 -1.70644,2.15198 -2.71023,1.30734 -0.43174,-0.36328 -0.89456,-0.66051 -1.0285,-0.66051 -0.36833,0 -1.03789,1.56363 -1.38449,3.23319 -0.34691,1.67105 -0.596,1.97268 -1.73518,2.10121 -0.73231,0.0826 -0.92687,0.3598 -2.51354,3.58088 -0.94589,1.92023 -1.97696,3.7657 -2.29128,4.10104 -0.5304,0.56589 -0.57826,0.93308 -0.66569,5.10764 -0.088,4.20441 -0.13987,4.59593 -0.79411,5.99999 -0.48754,1.04631 -1.0198,1.71376 -1.75421,2.19977 -0.90641,0.59984 -1.07957,0.87161 -1.23451,1.93751 -0.0991,0.6819 -0.40871,1.63283 -0.68798,2.11318 -0.27928,0.48036 -0.58475,1.35477 -0.67884,1.94314 -0.0941,0.58837 -0.40478,1.28751 -0.69044,1.55364 -0.72099,0.67171 -1.04902,5.02256 -0.37867,5.02256 0.23313,0 0.6458,0.23822 0.91706,0.52938 0.49104,0.52707 0.50277,0.52423 2.6825,-0.65093 2.6555,-1.43167 2.71337,-1.47826 3.71637,-2.99251 0.89344,-1.34885 1.00005,-1.09028 0.39313,0.95344 -0.42092,1.41739 -1.54768,2.92855 -4.17566,5.6002 -2.99889,3.04873 -4.02339,5.01267 -4.31663,8.27492 -0.24424,2.71706 -0.45371,3.18003 -1.35331,2.99107 -0.78313,-0.16449 -1.16261,2.2e-4 -1.54263,0.66959 -0.53628,0.94459 -3.33683,3.0915 -4.43311,3.39844 -0.9373,0.26243 -1.74683,0.93465 -4.4997,3.73645 -1.84624,1.87905 -4.45607,4.29496 -5.79964,5.36869 -1.34357,1.07373 -4.26073,3.68252 -6.48258,5.79731 -4.13713,3.9378 -5.77949,5.17704 -10.03918,7.57507 -2.79447,1.57317 -2.80858,1.57647 -14.09922,3.29424 -7.15945,1.08924 -7.62756,1.19546 -9.26042,2.1012 -2.65412,1.47225 -4.36468,1.76377 -10.37559,1.76828 -4.94331,0.004 -5.23102,0.0316 -5.49941,0.53307 -0.23378,0.43684 -0.55399,0.52917 -1.8351,0.52917 -2.39091,0 -7.23461,0.92006 -13.22367,2.51182 -2.99554,0.79615 -6.39465,1.5786 -7.55357,1.73878 -1.55397,0.21477 -2.2004,0.42438 -2.4624,0.79844 -0.3104,0.44316 -0.69582,0.50753 -3.05224,0.50975 -1.67377,0.002 -4.1525,0.2546 -6.53343,0.6669 -2.11006,0.36539 -5.92006,0.78285 -8.46667,0.9277 -4.89374,0.27833 -10.86938,0.85469 -21.29896,2.05429 -4.26489,0.49054 -6.7844,0.66715 -7.67292,0.53784 -0.7276,-0.10588 -4.12088,-0.31566 -7.54062,-0.46616 -3.41974,-0.1505 -6.75349,-0.40932 -7.40833,-0.57516 -0.65485,-0.16585 -2.26219,-0.31065 -3.57188,-0.32178 -2.62271,-0.0223 -4.05169,0.43592 -5.90801,1.8945 -2.51442,1.97568 -3.63195,2.08528 -5.16947,0.50698 -1.60653,-1.64915 -2.70683,-1.57899 -7.00447,0.44664 l -3.26528,1.53904 -2.42326,-0.13869 c -1.76499,-0.10102 -3.28573,-0.40796 -5.59826,-1.12993 -4.55257,-1.42131 -6.93771,-1.97062 -8.59896,-1.98038 -1.51521,-0.009 -9.74589,1.2262 -10.77762,1.61729 -0.32514,0.12325 -0.92046,0.83295 -1.32292,1.57711 -1.09519,2.02503 -2.63173,3.87522 -3.37275,4.06121 -0.41852,0.10504 -1.25256,-0.0768 -2.29499,-0.50038 -1.86468,-0.75769 -3.11531,-0.82131 -5.38276,-0.27381 -0.87312,0.21082 -1.90963,0.38756 -2.30335,0.39274 -0.39372,0.005 -1.16525,0.3144 -1.71452,0.68714 -0.9437,0.64041 -1.15662,0.67317 -3.86948,0.59531 -2.59805,-0.0746 -2.9068,-0.0332 -3.2494,0.43525 -0.37443,0.512 -0.38275,0.51167 -0.76218,-0.03 -0.69159,-0.98738 -3.68953,-1.83603 -6.06439,-1.7167 -0.90777,0.0456 -2.81369,1.90279 -3.91846,3.81826 -0.87557,1.51807 -2.15422,2.38347 -3.22501,2.18271 -0.42082,-0.0789 -1.28136,-0.6193 -1.91232,-1.20089 -0.63095,-0.5816 -1.32069,-1.05745 -1.53275,-1.05745 -0.75707,0 -1.8714,0.57432 -3.59832,1.85454 -2.03907,1.51163 -5.02146,2.84824 -9.14656,4.0992 -5.04636,1.53034 -8.16998,2.02784 -13.69226,2.18078 -3.93914,0.1091 -5.01261,0.2158 -5.12529,0.50944 -0.29497,0.76868 -1.46933,1.0919 -3.44765,0.9489 -2.6567,-0.19204 -4.35499,0.18614 -11.10861,2.47373 -5.655136,1.91552 -6.012615,2.00083 -9.392705,2.24161 -1.932603,0.13766 -4.347261,0.37973 -5.365907,0.53793 -1.018646,0.15819 -3.995208,0.37754 -6.614583,0.48742 -3.602389,0.15113 -6.229738,0.44915 -10.785821,1.22345 l -6.02332,1.02365 -0.668116,-0.72053 c -0.852181,-0.91904 -1.485662,-0.90731 -3.953993,0.0732 -2.284506,0.9075 -2.894806,0.92933 -5.820836,0.20816 z m -42.7302,-29.42901 c 0,-0.0642 -0.11907,-0.19026 -0.26459,-0.2802 -0.14552,-0.0899 -0.26458,-0.0374 -0.26458,0.11668 0,0.15411 0.11906,0.2802 0.26458,0.2802 0.14552,0 0.26459,-0.0525 0.26459,-0.11668 z m -185.115909,-45.797 c -0.20987,-0.54692 -0.35701,-0.48247 -0.35701,0.15638 0,0.29963 0.11386,0.47441 0.25303,0.3884 0.13917,-0.086 0.18596,-0.33116 0.10398,-0.54478 z m 570.45448,-2.04205 c 0.0903,-0.47294 0.45422,-1.48277 0.80876,-2.24406 0.79707,-1.71154 1.96481,-2.53221 3.36135,-2.36231 0.91118,0.11086 0.97664,0.0689 1.11379,-0.71371 0.0801,-0.45731 0.17061,-1.64153 0.20103,-2.63159 0.0719,-2.33839 -0.44242,-2.96239 -2.44152,-2.96239 -1.22287,0 -1.41978,0.0914 -2.35296,1.09178 -0.71754,0.76925 -1.17984,1.62905 -1.56486,2.91042 -0.30056,1.00025 -0.90478,2.35442 -1.34273,3.00926 -0.60566,0.90562 -0.79653,1.49146 -0.79739,2.44739 l -10e-4,1.25678 h 0.9238 c 0.63726,0 1.02631,0.16413 1.25427,0.52916 0.46071,0.73771 0.64775,0.66386 0.8376,-0.33073 z m 6.21345,-19.86215 c 0.028,-0.904 -0.0315,-1.00167 -0.56401,-0.92604 -0.78049,0.11085 -0.90692,1.1484 -0.30521,2.50468 l 0.45228,1.01945 0.19281,-0.79375 c 0.10605,-0.43656 0.20691,-1.24851 0.22413,-1.80434 z M 10.092509,505.94081 c 0,-0.11771 -0.1550902,-0.42612 -0.3446502,-0.68535 -0.31235,-0.42717 -0.37717,-0.43215 -0.69166,-0.0532 -0.29631,0.35704 -0.25563,0.45471 0.27851,0.66858 0.8050002,0.32233 0.7578002,0.31797 0.7578002,0.07 z m -42.84855,-23.95867 c -0.14599,-0.38398 -0.39417,-0.69815 -0.55152,-0.69815 -0.16511,0 -0.0898,0.33223 0.17798,0.78561 0.55207,0.93459 0.74496,0.88943 0.37354,-0.0875 z m 441.278481,-5.89172 c 0.35949,-0.789 0.37064,-0.76285 -0.43046,-1.0091 -0.63644,-0.19563 -0.72019,0.0212 -0.42855,1.10944 0.20973,0.78259 0.47061,0.75211 0.85901,-0.10034 z M 214.17756,462.61946 c -0.0862,-0.22456 -0.21342,-0.35155 -0.28277,-0.28219 -0.0694,0.0693 -0.0476,0.25308 0.0483,0.40829 0.26089,0.42213 0.41338,0.34012 0.23447,-0.1261 z m 50.52087,-1.44417 c 0.0762,-0.29124 0.0305,-0.46281 -0.10143,-0.38126 -0.13195,0.0815 -0.23991,0.31984 -0.23991,0.52953 0,0.54763 0.17978,0.46953 0.34134,-0.14827 z m 135.12532,-31.73402 c 0,-0.13693 -0.11906,-0.32255 -0.26458,-0.41249 -0.14552,-0.0899 -0.26458,0.0221 -0.26458,0.24897 0,0.22687 0.11906,0.41249 0.26458,0.41249 0.14552,0 0.26458,-0.11203 0.26458,-0.24897 z m 16.68614,-72.65947 c 0.30132,-0.27269 1.05164,-0.42971 2.21256,-0.46302 1.58899,-0.0456 1.77138,-0.10821 1.9113,-0.65613 0.12538,-0.491 0.7876,-1.12559 2.18522,-2.09407 0.0598,-0.0414 -0.0487,-0.7319 -0.24124,-1.53433 -0.32998,-1.3755 -0.37697,-1.43455 -0.8215,-1.03226 -0.43418,0.39293 -0.56724,0.39015 -1.68092,-0.0352 -1.15199,-0.43995 -1.23382,-0.43981 -1.7231,0.003 -0.28253,0.25568 -0.82068,1.37386 -1.1959,2.48484 -0.37522,1.11098 -0.9162,2.30105 -1.20218,2.6446 -0.28598,0.34354 -0.51996,0.73049 -0.51996,0.85989 0,0.37021 0.57553,0.27533 1.07572,-0.17734 z m -33.73185,-6.66713 c -0.31176,-0.31176 -0.43579,0.16275 -0.23446,0.89696 l 0.20809,0.75882 0.0893,-0.75179 c 0.0491,-0.41348 0.0208,-0.82028 -0.0629,-0.90399 z M -98.140671,341.833 c 0.0102,-0.37236 -0.15621,-0.90815 -0.36986,-1.19062 -0.35965,-0.4755 -0.38908,-0.42199 -0.39687,0.72154 -0.005,0.67932 0.0719,1.44452 0.17014,1.70045 0.16569,0.43179 0.19294,0.42859 0.37828,-0.0445 0.10984,-0.2804 0.20809,-0.81449 0.21831,-1.18686 z M 259.47526,298.33672 c -0.20755,-1.66113 -0.56799,-1.9068 -0.82076,-0.55941 -0.12538,0.66831 -0.0413,1.08039 0.31874,1.56159 0.26898,0.35953 0.53322,0.61126 0.5872,0.55941 0.054,-0.0519 0.0157,-0.75457 -0.0852,-1.56159 z M 426.64678,258.3064 c -0.22037,-0.91859 -0.20571,-0.9043 -0.7237,-0.70553 -0.43491,0.16689 -0.59065,0.92445 -0.25835,1.25674 0.097,0.097 0.39693,0.17639 0.66649,0.17639 0.4006,0 0.45823,-0.13289 0.31556,-0.7276 z m -645.2584,-2.47851 c 0.26653,-0.29451 0.50661,-1.09053 0.574,-1.90315 0.098,-1.18207 0.0218,-1.50251 -0.49588,-2.08366 l -0.61171,-0.68676 -1.13635,1.73011 c -0.62499,0.95156 -1.13634,1.94085 -1.13634,2.19841 0,0.25756 -0.0683,0.64622 -0.15172,0.86367 -0.30788,0.80232 2.21617,0.7011 2.958,-0.11862 z M -8.2299012,228.80536 c -0.0968,-0.55989 -0.11538,-0.55206 -0.31152,0.1317 -0.11471,0.39985 -0.11523,0.93563 -10e-4,1.19062 0.1821,0.4071 0.22007,0.39105 0.31152,-0.1317 0.0573,-0.32742 0.0578,-0.8632 10e-4,-1.19062 z M 34.430129,212.66577 c -0.002,-0.1819 -0.10478,-0.48962 -0.22788,-0.68382 -0.17101,-0.26978 -0.25691,-0.22657 -0.36405,0.18312 -0.0771,0.29491 -0.0738,0.60263 0.007,0.68382 0.2606,0.26059 0.58871,0.1578 0.58454,-0.18312 z M 407.26584,194.54182 c 0.3291,-0.41965 0.31974,-0.42901 -0.0999,-0.0999 -0.44073,0.34564 -0.58089,0.56292 -0.36313,0.56292 0.0549,0 0.26331,-0.20836 0.46303,-0.46302 z M -56.048351,175.16416 c -0.20712,-0.12801 -0.49342,-0.16053 -0.63623,-0.0723 -0.14281,0.0883 -0.0294,0.24405 0.25195,0.3462 0.63262,0.22966 0.89569,0.0421 0.38428,-0.27394 z M -201.65201,122.97203 c -0.0631,-0.32742 -0.11466,-0.0595 -0.11466,0.59531 0,0.65484 0.0516,0.92273 0.11466,0.59531 0.0631,-0.32742 0.0631,-0.8632 0,-1.19062 z m 589.8341,-15.54427 c 0,-0.14552 -0.11907,-0.26459 -0.26459,-0.26459 -0.14552,0 -0.26458,0.11907 -0.26458,0.26459 0,0.14552 0.11906,0.26458 0.26458,0.26458 0.14552,0 0.26459,-0.11906 0.26459,-0.26458 z m 36.03717,-19.580838 c 0.24789,-0.43564 0.65866,-0.79208 0.91281,-0.79208 0.34794,0 0.38702,-0.0751 0.15818,-0.30391 -0.22883,-0.22883 -0.47281,-0.19325 -0.98755,0.14402 -0.68262,0.44727 -0.68427,0.44644 -1.10558,-0.55598 -0.23206,-0.55216 -0.48262,-1.74806 -0.55679,-2.65757 l -0.13486,-1.65364 h -0.88982 -0.88981 v 1.74339 c 0,1.71842 0.017,1.75996 1.19062,2.90055 0.65484,0.63643 1.19063,1.34019 1.19063,1.5639 0,0.67552 0.63236,0.45453 1.11217,-0.38868 z M -88.586541,64.190132 c -0.31021,-0.6408 -0.73054,-1.22899 -0.93408,-1.3071 -0.22296,-0.0856 -0.0341,0.47699 0.47518,1.41513 0.95651,1.76211 1.32251,1.67595 0.4589,-0.10803 z M 415.37755,53.055362 c 0.0416,-0.0344 -0.19323,-0.88175 -0.52188,-1.8829 l -0.59756,-1.82028 -0.1837,1.0581 c -0.10104,0.58196 -0.31268,1.39328 -0.47031,1.80293 -0.44833,1.16516 -0.37403,1.27933 0.70559,1.08415 0.5457,-0.0987 1.02624,-0.20756 1.06786,-0.242 z m 1.49019,-10.61112 c 0.61036,-0.23421 0.55528,-2.01486 -0.0801,-2.58988 -0.47556,-0.43038 -0.5094,-0.41698 -0.73157,0.28972 -0.27113,0.86244 -0.16267,2.46076 0.16698,2.46076 0.1244,0 0.41452,-0.0723 0.6447,-0.1606 z m -41.4695,-43.8098401 c -0.0845,-0.21107 -0.14715,-0.14837 -0.15985,0.15985 -0.0115,0.27892004 0.051,0.43518004 0.13897,0.34727004 0.0879,-0.0879 0.0973,-0.31613004 0.0209,-0.50712004 z m -48.07032,-5.56544 v -1.64629 l -0.54444,0.54443 c -0.52585,0.52585 -0.52938,0.58207 -0.10356,1.6463 0.24248,0.60602 0.48748,1.10186 0.54444,1.10186 0.057,0 0.10356,-0.74084 0.10356,-1.6463 z M 416.01625,515.09774 c -0.83608,-0.83609 0.23029,-2.06375 1.79262,-2.06375 1.03791,0 1.04814,0.01 0.77534,0.72712 -0.56774,1.49326 -1.78022,2.12436 -2.56796,1.33663 z m -0.83735,-16.33386 c -0.43995,-0.82204 -0.34352,-2.65311 0.14968,-2.84237 0.56056,-0.21511 0.89031,0.35452 0.89529,1.54657 0.007,1.70205 -0.4946,2.32418 -1.04497,1.2958 z m -639.31978,-20.83939 c -0.34666,-0.09 -0.42812,-0.27729 -0.30318,-0.69691 0.23586,-0.79216 0.87322,-1.76442 1.15666,-1.76442 0.28453,0 1.60492,1.53277 1.60492,1.86307 0,0.57858 -1.30833,0.89697 -2.4584,0.59826 z m -5.95139,-10.50677 c -1.37776,-1.56917 -2.56214,-3.41563 -2.00537,-3.12638 0.27131,0.14094 1.05045,0.33705 1.73143,0.43579 1.35063,0.19584 2.25979,0.78623 3.16209,2.05339 0.56466,0.79299 0.56762,0.8311 0.0916,1.17918 -0.9106,0.66585 -2.11095,0.44752 -2.97974,-0.54198 z m 668.39135,-4.29266 c -0.60041,-2.06533 -0.20276,-4.06607 0.80815,-4.06607 0.17871,0 0.69216,0.56555 1.141,1.25677 0.44883,0.69123 1.07187,1.5842 1.38453,1.98438 l 0.56846,0.7276 h -1.2059 c -1.07228,0 -1.25137,0.0879 -1.61636,0.79375 -0.22575,0.43656 -0.46361,0.79375 -0.52857,0.79375 -0.065,0 -0.31305,-0.67058 -0.55131,-1.49018 z m 6.80066,-4.93341 c -0.37292,-0.37292 -0.3892,-2.96358 -0.0229,-3.64797 0.33043,-0.6174 1.19464,-0.67426 1.41759,-0.0933 0.25036,0.65243 0.18875,2.73869 -0.0966,3.27192 -0.33633,0.62844 -0.92578,0.84156 -1.29803,0.46931 z m -24.34851,-12.7281 c -0.58922,-0.70996 0.11755,-2.48438 0.87394,-2.19412 0.56503,0.21682 0.53794,1.30222 -0.0506,2.02908 -0.42761,0.52808 -0.50854,0.5443 -0.8233,0.16504 z m -9.0135,-1.73508 c -0.4365,-0.86471 -1.07685,-1.78582 -1.42299,-2.04691 l -0.62934,-0.47472 1.35303,-1.00712 c 0.76813,-0.57176 1.70339,-1.60271 2.1635,-2.38487 0.60255,-1.02428 0.98767,-1.39871 1.50116,-1.4595 0.3813,-0.0451 0.88502,-0.37834 1.12448,-0.74382 1.01826,-1.55406 2.54265,0.13825 1.64661,1.82799 -0.24782,0.46732 -0.52693,1.24415 -0.62025,1.72629 -0.1368,0.70677 -0.3691,0.9564 -1.19902,1.28847 -1.30825,0.52346 -2.33741,2.17244 -2.33741,3.74515 0,1.60599 -0.62545,1.41953 -1.57977,-0.47096 z m 34.47475,-159.12848 c 0.21721,-1.58469 0.69852,-2.54724 1.2737,-2.54724 0.58338,0 0.88621,1.00421 0.65359,2.16733 -0.22084,1.10415 -0.62086,1.53684 -1.42084,1.53684 -0.63309,0 -0.65741,-0.0556 -0.50645,-1.15693 z m 2.03002,-80.98122 c 0,-0.16726 2.88697,-2.88259 3.33845,-3.13996 0.61196,-0.34886 1.3862,0.0546 2.0888,1.08861 0.851,1.25237 0.83128,1.36974 -0.20204,1.20205 -0.53702,-0.0871 -1.40683,0.0682 -2.31511,0.41338 -1.31128,0.49839 -2.9101,0.73788 -2.9101,0.43592 z m 7.70051,-2.50587 c -0.42815,-0.2711 -0.2059,-1.08291 0.29483,-1.07693 0.18647,0.002 0.50997,0.11222 0.7189,0.24442 0.31481,0.1992 0.32059,0.31178 0.0337,0.65741 -0.39593,0.47706 -0.53412,0.50016 -1.04748,0.1751 z M 461.26,150.50192 c -0.17462,-0.17462 -0.3175,-1.01347 -0.3175,-1.86411 0,-1.61499 0.17682,-1.91586 1.8656,-3.17443 0.74426,-0.55467 0.94994,-0.3286 1.19892,1.31776 0.21671,1.43291 0.0146,2.20974 -0.839,3.22414 -0.72039,0.85613 -1.37749,1.02717 -1.90802,0.49664 z M -131.98874,35.064222 c -0.19523,-0.23525 -0.77412,-0.39712 -1.42145,-0.39747 -0.60065,-3.2e-4 -4.28005,-0.65247 -8.17646,-1.44922 -5.31762,-1.08736 -7.3828,-1.40772 -8.28104,-1.28461 -1.12343,0.15399 -1.24945,0.1064 -2.05915,-0.77759 -1.65628,-1.80823 -4.73775,-2.24038 -11.94419,-1.67507 -4.10707,0.32218 -6.55091,-0.25044 -9.04432,-2.11918 -0.46324,-0.34718 -1.20867,-0.63124 -1.65653,-0.63124 -0.44786,0 -1.32334,-0.23928 -1.94551,-0.53174 -1.02859,-0.48349 -4.56271,-3.1714 -7.59426,-5.77589 -0.65484,-0.56259 -1.98865,-1.55753 -2.96401,-2.21098 l -1.77339,-1.18809 0.97964,-0.92028 c 1.47651,-1.38705 2.31167,-1.818 4.0728,-2.10162 1.28481,-0.20692 1.68852,-0.1836 2.03311,0.11743 0.23649,0.20658 0.98569,0.45552 1.66491,0.5532 1.21295,0.17443 3.39527,1.46367 3.39527,2.0058 0,0.14479 0.76051,0.62258 1.69002,1.06175 1.49747,0.70752 1.7763,0.96423 2.44739,2.25327 0.69625,1.33736 0.81654,1.44193 1.49038,1.29563 0.59056,-0.12822 0.88111,-5.9e-4 1.49522,0.65681 0.53348,0.5711 1.00758,0.81596 1.57986,0.81596 0.5311,0 0.93346,0.18545 1.14812,0.52917 0.30038,0.48099 0.61976,0.52958 3.50797,0.53375 5.92488,0.008 9.27516,0.56124 12.84031,2.11825 1.31415,0.57393 1.97926,0.71943 2.79099,0.61055 0.81918,-0.10987 2.33325,0.23069 6.5453,1.47225 4.73552,1.39587 5.77191,1.6152 7.6323,1.6152 1.89279,0 2.29175,0.0879 3.30445,0.7276 0.63346,0.40018 1.15196,0.82829 1.15222,0.95134 2.6e-4,0.12306 -0.22142,0.53978 -0.49261,0.92605 -0.2712,0.38626 -0.74075,1.26785 -1.04346,1.95907 -0.58443,1.33455 -0.84474,1.49747 -1.37388,0.8599 z"
       id="path1" /></g></svg>
