<?xml version="1.0" encoding="UTF-8"?>
<svg id="Capa_1" xmlns="http://www.w3.org/2000/svg" version="1.1" viewBox="0 0 200 200">
  <!-- Generator: Adobe Illustrator 30.2.1, SVG Export Plug-In . SVG Version: 2.1.1 Build 1)  -->
  <path d="M29.67,41.68c-2.62,2.68-7.33,6.09-11.21,6.07-.27-.12-.51-.18-.6-.33-.1-.16-.14-.48.03-.69,1.61-1.96,2.73-4.17,3.6-6.64-3.38-1.26-6.31-3.09-8.43-5.94-3.33-4.47-3.22-10.36.19-14.72,6.6-8.44,20.6-9.22,30.14-6.06,3.7,1.23,6.94,3.31,9.29,6.38,3.66,4.78,3.35,11.14-.74,15.55-1.91,2.05-4.17,3.6-6.87,4.61-4.92,1.84-10.14,2.33-15.4,1.78Z"/>
  <path d="M167.05,47.01l-3.79-4.76c-.9.99-1.84,1.69-2.73,2.52l-3.67,3.43c-.3.28-.66.37-1.01.25s-.53-.51-.51-1l.28-7.35-9.97,2.21c-.52.12-1.48-.07-1.63-.65l5.92-7.75-8.62-4.57c-.37-.2-.62-.54-.61-.86.02-.38.31-.82.79-.9l9.97-1.7-2.83-8.89c-.14-.43-.04-.89.21-1.07.31-.22.76-.31,1.15-.07l9.6,5.8,1.72-4.52c.58-1.53,1.88-5.66,2.67-5.68.36,0,.78.29.99.67l5.1,9.1,4.95-3.9c.64-.5,5.9-5.11,5.53-2.19l-1.16,9.28,10.66.22c.41,0,.75.31.8.55.07.33-.08.68-.38.93l-7.4,6.11c1.85,2.36,3.83,4.44,5.81,6.62.27.29.24.73.1.99s-.51.4-.92.38l-10.14-.51c1.02,2.28,1.45,4.4,2.18,6.55.15.43-.03.93-.29,1.06-.33.16-.88.04-1.23-.19l-7.89-5.21c-.57.66-2.35,6.72-3.63,5.1Z"/>
  <path d="M115.35,47.16l-1.01-5.41c-3.23.68-6.3,1.39-9.57,1.38-1.82,0-3.35-.68-4.66-2-1.34,1.17-2.68,2.1-4.44,2.08-3.34-.05-6.48-.7-9.78-1.43l-1.09,5.32c-.06.27-.17.53-.31.63-.88.63-4.2-1.56-4.63-5.74-.88-8.58-.12-21.39.66-30.11.04-.47.44-.96.75-1.07.28-.1.9,0,1.16.38,2.21,3.2,3.99,6.55,6.1,10.02,6.42-3.25,15.66-3.15,22.05-.35.33-.01.95.39,1.18.03l5.65-9.45c.25-.42.8-.75,1.15-.64.4.13.91.68.96,1.27.62,6.85,1.82,25.45.36,31.47-.77,3.21-4.17,5.54-4.53,3.63ZM97.13,35.44c-2.02-2.47-7.99-4.97-10.99-4.33.05,3.63,3.09,6.25,6.63,6.19,1.68-.03,3.35-.41,4.36-1.86ZM110.05,36.66c2.3-.96,3.9-2.96,3.87-5.58-4.18-.34-8.29,1.39-11.08,4.51,2.03,1.9,4.75,2.1,7.21,1.07Z"/>
  <path d="M101.7,105.07c-.48.01-1.13,0-1.13-.53l-.05-18.94c0-.31-.37-.6-.54-.61-.24-.02-.59.33-.59.72l-.1,19.18c-5.71-2.08-11.63-1.92-17.61-.99-.26-.16-.51-.07-.66-.18-.14-.1-.24-.41-.24-.74l.04-22.2c0-.73.34-1.29,1.05-1.35,5.25-.46,13.92-.75,18,3.22,5.07-3.99,12.58-3.73,18.65-3.13.56.06.91.43.91,1.04l-.03,23.3c-6.05-.79-11.99-1.2-17.71,1.2ZM107.3,99.83l3.29-3.88c1.2-1.42,2.4-2.85,3.38-4.45-.92-1.01-2.8.06-3.51-.73l.79-1.11,1.82-4.53c-1.52-.13-2.85-.01-4.31.04-.64.02-1.02.55-1.24,1.11l-2.84,6.94c.81.89,2.9.41,3.03.95.27,1.16-1.69,5.7-1.05,6.02.2.1.42-.06.65-.32Z"/>
  <path d="M26.55,177.08c.14.6-.09,1.05-.43,1.27-1.81,1.15-4.6-8.51-4.44-9.98,1.27-1.8,2.98-2.8,4.37-4.59-2.22.49-3.99,1.57-5.86,2.51-.85.43-1.16,1.22-1.15,2.16l.04,6.22c0,.32-.24.61-.43.68-.3.1-.69-.11-.85-.47-1.11-2.55-1.72-5.29-1.91-8.12-.06-.95.32-1.77,1.09-2.28,2.21-1.44,4.58-2.34,7.24-3.37-2.28-.65-4.53-1.08-6.7-1.99-.93-.39-1.59-1.09-1.61-2.13-.08-3.14.21-6.26,1.3-9.16.15-.39.54-.6.81-.61.41-.01.64.42.7.9.28,2.28.25,4.55.25,6.86,0,1.13.59,1.74,1.71,2,1.74.39,3.39,1.08,5.38,1.14-1.54-1.76-5.34-2.75-5.07-5.13.17-1.52,1.44-10.03,3.24-9.79.48.06.8.53.72,1.12-.37,2.76-.95,5.38-1.11,8.23,1.02,1.21,3.58,2.43,5.21,3.24-1.06-3.73,1.13-8.73,5.01-8.86,1.7-.06,3.2.67,4.29,2.07,1.4,1.82,1.73,4.07,1.42,6.63,1.5-.55,2.56-1.52,3.96-2.16.36-.16,1.08-.5,1.04-1.02-.15-1.92-.34-3.82-.82-5.74-.26-1.03-.89-2.05-.51-3.18.1-.3.7-.4.96-.36,1.68.26,3.12,7.82,3.31,9.68.07.69-.1,1.49-.62,1.95-1.27,1.12-2.67,1.92-4.14,2.74-.18.1-.54.66-.18.63,1.96-.2,3.75-.85,5.58-1.36.87-.24,1.34-.97,1.36-1.85.06-2.35-.02-4.61.2-6.93.04-.42.22-.78.56-.8,1.87-.07,2.56,8.42,2.34,10,0,2.32-6.29,3.01-8.17,3.93,2.48,1.09,4.65,1.96,6.77,3.23,1.14.68,1.59,1.85,1.42,3.16-.19,1.43-1.01,7.52-2.4,7.86-.35.08-.68-.23-.69-.68l-.07-6.5c-.01-.99-.51-1.55-1.36-1.94-1.91-.88-3.62-2.08-5.89-2.57.1.87,1.07,1.07,1.65,1.57,1,.85,3.16,2.65,2.9,3.92-.38,1.91-2.07,8.86-4.03,9.08-.29.03-1.09-.23-1-.66l1.46-7.07c.19-.94.08-1.72-.66-2.4s-1.22-1.52-2.26-2.01c-.05,3.16-1.43,5.69-4.08,7.03-1.15.58-2.55.69-3.72.13-2.75-1.31-4.35-3.89-4.38-7.22-1.4.93-3.54,2.36-3.23,4.14.4,2.29.94,4.46,1.5,6.84Z"/>
  <path d="M108.34,160.87c2.18,2.03,5.99,1.64,7.54-1.03.17-.3.4-.6.8-.73.32,4.69-1.1,9.34-4.35,12.76.04,1.81.05,3.37-.03,5.12-.02.42-.37.81-.8.89-4.82.93-14.48.98-19.26.22-.63-.1-1.41-.42-1.42-1.12l-.07-4.6c-1.67-1.93-8.37-9.49-7.94-11.85.37-2,1.06-3.85,1.9-5.65.51-1.08,1.52-1.81,2.73-1.89,2.86-.19,5.58,0,8.45.04,1.02.01,2.23.17,2.8,1.11.62,1.03.37,2.34-.29,3.42-.49.8-1.56,1.45-2.77,1.58l-5.78.61c-.3.03-.79.45-.61.73.91,1.33,4.17-.85,7.52,1.23,3.65,2.26,4.21,6.49,4.78,6.88.17.11.63-.2.61-.55-.12-2.93-1.84-5.26-4.21-7.29,1.68-.4,3.11-.11,4.66-.85,1.35,1.95,3.79,1.88,5.72.97Z"/>
  <path d="M30.98,102.11c-1.86,2.51-4.7,2.98-7.35,1.36-1.26,1.82-3.47,2.57-5.43,1.6s-2.48-3.25-1.99-5.45c-2.15-.04-4.31-.78-5.29-2.67-1.56-2.99.09-6.3,3.08-7.61,2.22-.97,4.6-1.14,7.17-.4.27-2.8,2.22-4.59,4.97-4.79,3.08-.22,5.54,2.07,5.8,5.29,1.38-.16,2.74-.37,3.97.25,1.8.91,2.66,2.75,2.51,4.7-.14,1.8-1.36,3.33-3.27,4.19,2.24,3.45,4.16,6.97,6.07,10.58.16.31.03.65-.11.77-.15.14-.62.18-.84-.02-1.88-1.71-3.83-3.23-5.82-4.82l-3.5-2.98Z"/>
  <path d="M164.31,100.28c1.19-2.56.17-4.09,1.82-3.64,1.11.3.69,2.09,1.51,1.94.28-.89.63-2.63-.18-3.2l-4.81-.52c-6.7-.73-11.74,1.01-15.79-2.38-1.05-.88-1.58-2.12-1.66-3.36-.31-5.3,9.96-7.16,14.01-7.36,5.05-.25,10.02.12,14.96,1.17,1.22,1.46.93,7.48.73,9.39-.24,2.26-2.07,2.61-3.86,2.78-.23,2.21-.11,5.3-2.85,5.93-.87.2-4.57.76-3.87-.75ZM152.18,89.3c.99-.2,1.4-.95,1.33-1.73s-.8-1.21-1.66-1.25-1.64.03-2.26.63c-.36.35-.5.79-.41,1.24.21,1.03,1.72,1.37,3.01,1.11Z"/>
  <path d="M160.25,167.95l-14.39,5.15c-.64.23-1.46.21-1.93-.13-.32-.22-.25-.62-.17-.88.09-.31.48-.37.81-.6l11.31-7.85-7.22-1.89c-.25-.07-.53-.34-.59-.52-.06-.19.13-.61.41-.75l12.76-6.51,16.53-8.09c.66-.32,1.45-.45,2.11-.26-.19,1.3-1.29,1.84-2.06,2.68l-7.93,8.63c.94.76,2.9.58,3.02,1.3.05.28-.21.47-.51.61l-10.68,5.04c-.97.46-2.09.73-2.77,1.62s1.99,1.13,1.3,2.45Z"/>
  <path d="M47.27,104.34c-2.93.2-8.78-2.26-9.59-5.28,2.26-1.7,3.05-4.45,2.24-7.08-1.47-4.76-5.79-3.42-4.78-4.9,1.71-2.37,4.55-3.36,7.44-2.93,2.64.4,4.58,2.16,5.16,4.95,3.45-1.35,7.45-.09,8.91,3.28.79,1.83.47,3.96-.64,5.45s-2.96,2.19-5.02,2.19c-.11,2.14-1.48,4.17-3.71,4.32Z"/>
  <path d="M120.44,83.35c.37-.66,2-.69,2.3-.09l.08,23.87c0,.56-.38.97-.95.97l-17.59.04c-1.93,2.38-5.29,2.58-7.56.69-.58-.49-1.2-.77-2.01-.71h-15.93c-.45,0-1.63-.14-1.69-.71l.06-23.89c.2-.79,1.98-.85,2.53-.29l.05,21.31c0,.26.12.51.27.6.75.43,12.18-1.93,19.33,1.36.74.34,1.46.36,2.22.03,8.27-3.58,18.81-.5,18.81-1.78l.06-21.39Z"/>
  <path d="M162.52,106c-.05,1.9-3.63.79-4.73,1.57.79.57,4.08.07,4.16,1.36.14,2.01-7.61,1.89-9.18,1.76-2.48-.2-3.1-1.67-4.32-1.19-2.61,1.03-4.8,2.23-5.5,0-.77-2.41-1.08-4.96-1.12-7.53-.02-1.17,4.38-1.01,8.13-5.33.39-.45,1.07-.7,1.69-.66,3.77.26,7.74-.43,10.28.14,1.05.24,1.59,1.24,1.52,2.1-.2,2.59-4.44,1-5.07,2.33-.07.15.11.35.39.38l2.77.27c.59.06,1.11.38,1.2.84.12.58-.09,1.31-.7,1.52-1.04.37-2.13.28-3.24.35-.28,0-.29.07-.39.08-.14.01-.32.56-.08.6,1.9.31,4.26-.15,4.22,1.4Z"/>
  <path d="M152.64,177.6c-.53.18-1.12,0-1.21-.33-.08-.27.04-.78.41-1.02,3.04-1.93,6.05-3.81,9.23-5.55,1.62-.88,3.14-1.66,4.64-2.72l-4.87-2.35,15.15-6.6c.62-.65,1.04-1.45,2.22-1.7,3.08-.65,5.93-2.09,8.99-2.91.32-.09.78-.11.95.09s.06.75-.23,1l-9.47,8.24c.93.74,5.21,1.45,5.29,2.28.02.22-.06.55-.35.68-2.04.91-4.08,1.46-6.2,2.22l-15.82,5.67-8.71,2.99Z"/>
  <path d="M189.91,88.34c-3.22,1.2-4.7-.16-4.68,1.76,0,.79.01,1.59-.57,2.1-2.02-.27-3.39-3.52-4.08-1.75-.76,1.94-2.6,3.31-4.79,3.07.51-3.17.66-6.04.22-9.07-.04-.27.02-1.07.35-1.09,1.77-.14,3.27.83,4.26,2.34l3.28-1.5c.34-.16.72-.18.94-.04.61.38.18,1.89.82,1.93l4,.26c.55.04.95.31,1,.77.06.54-.17.99-.75,1.21Z"/>
  <path d="M109.64,151.71c-1.21,4.88-.36,9.03-4.39,8.31-1.17-.21-2.01-1.08-1.96-2.38.12-2.6.46-5.16.92-7.74.12-.66.47-1.4,1.14-1.63,1.46-.51,3.29-.06,4.29,1.13.53.64.17,1.6,0,2.3Z"/>
  <path d="M101.22,158.67c-.5.62-1.27.42-2.15.66,1.09-1.76,1.89-4.15.75-6.2-.64-1.15-2.16-1.25-3.37-1.39-.08-1.33.27-2.67.49-3.98.45-2.62,4.21-2.01,5.62-1.38.68.3.93.96.79,1.71-.48,2.6-.82,5.13-1.16,7.76-.12.98-.32,2-.97,2.82Z"/>
  <path d="M111.42,160.63c-1.15-.25-1.91-.91-1.73-2.09.28-1.84.56-3.66.74-5.52.08-.8.55-1.42.95-1.79.7-.63,1.6-.5,2.4-.27,3.49,1.02,2.21,5.33,1.28,7.92-.55,1.54-2.02,2.1-3.64,1.75Z"/>
  <path d="M95.11,151.73c-2.36-.18-4.34-.31-6.7.07.36-2.06-.19-5.47,2.94-5.94,1.52-.23,3.13-.3,4.53.54l-.76,5.34Z"/>
  <path d="M49,84.27c-.7-.09-1.12-.37-1.83-.68l4.62-5.79c.61-.38,2.01.82,1.58,1.53-1.16,1.89-2.77,3.27-4.37,4.93Z"/>
  <path d="M20.37,83.32c.34.43-.17.83-.36,1.01-.24.23-.79.14-1.11-.15-1.61-1.45-3.19-2.96-4.55-4.69-.39-.5.21-1.05.5-1.27.34-.25,1.1-.5,1.45-.05l4.07,5.14Z"/>
  <path d="M16.61,86.48c-1.89-.9-3.67-1.82-5.44-2.95-.12-.61.67-1.9,1.33-1.63,1.84.9,3.37,2.3,5.02,3.5.37.27.22.74.06.93-.25.31-.57.33-.97.14Z"/>
  <path d="M56.08,83.85c-1.18.71-5.36,3.45-5.88,2.35-.2-.42.1-.78.49-1.06,1.47-1.06,2.74-2.35,4.42-3.08.45-.2.77.26.93.49.21.29.48,1.03.04,1.3Z"/>
  <path d="M54.12,109.34c.4.39.13.97-.05,1.23s-.83.89-1.17.55c-1.46-1.44-2.65-3.13-3.83-4.81-.23-.32.4-.67.62-.73.25-.07.63.04.91.31l3.52,3.45Z"/>
  <path d="M14.95,111.7c-.28.41-.96-.05-1.19-.21s-.64-.65-.35-1.04c.98-1.32,2.09-2.44,3.25-3.63.33-.34,1.58.18,1.38.59-.77,1.58-2.03,2.8-3.08,4.3Z"/>
  <path d="M55.8,108.11c-1.55-1.05-2.9-2.05-4.09-3.33-.27-.29.36-1.11.75-.94,1.6.73,2.97,1.66,4.49,2.55.09.77-.32,1.43-1.15,1.71Z"/>
  <path d="M11.82,108.75c-.5.41-1,.04-1.27-.26-.24-.26-.56-.88-.12-1.21,1.2-.91,2.54-1.55,3.82-2.37.33-.21.73-.28.96,0,.19.23.5.67.13.97l-3.51,2.86Z"/>
</svg>