<?xml version="1.0" encoding="UTF-8"?>
<svg id="Capa_1" xmlns="http://www.w3.org/2000/svg" version="1.1" viewBox="0 0 200 200">
  <!-- Generator: Adobe Illustrator 30.2.1, SVG Export Plug-In . SVG Version: 2.1.1 Build 1)  -->
  <path d="M30.76,109.87c-.92.26-1.81.66-2.68.39-.26-.08-.08-.7-.02-.91.18-.69,4.28-.81,5.28-4.9l-4.1-.14c-.31.44.2,3.19-.76,3.27-.27.02-.73-.59-1.13-.45-1.78,2.44-2.8,5.45-2.96,8.51-.04.71.48,1.39-.01,2.1-3,.09-6-.14-8.96-.63-.87-.14-1.12-1.03-.9-1.8.87-3.04,4.69-7.05,5.32-12.33.08-.68-2.36.07-2.82-2.25-.3-1.5-.28-3.05-.11-4.6.12-1.06.84-1.79,1.78-2.25,1.82-.88,3.75-1.37,5.8-1.72,4.64-.79,14.64-1.71,18.85-.29,1.83.61.83,2.64,1.29,4.07.1.3,1.11.18,1.25-.1.32-.62-.19-1.44.2-2.06.3-.47,1.24-.38,1.68-.19,1.5.65.41,2.47,1.4,2.43.9-.04,1.69-.01,2.59-.13.69-1.53,2.21-2.05,3.63-1.66,1.59.44,2.44,1.93,2.16,3.62-.23,1.32-1.33,2.38-2.43,2.56-1.48.23-2.71-.34-3.4-1.66-.98-.05-1.93-.2-2.88.04-.51.57.34,2.45-1.04,2.89-.48.15-1.36.19-1.63-.48-.29-.73.02-1.52-.24-2.3-.1-.31-1.22-.34-1.29.02-.44,2.22.53,4.69-1,4.96-2.56.44-5.09.45-7.73.48-.64,2.72-2.42,4.75-5.11,5.53ZM39.47,94.44c-.05-.38-.55-.43-.73-.29-.65.53-.42,3.3-.32,4.27,0,.09,1.68,1.15,1.05-3.98Z"/>
  <path d="M139.95,102.04c-.09-1.85,3.47-2.64,5.07-2.83,4.26-.53,8.48.09,12.62,1.16,1.7.44,3.19,1.13,4.93,1.35-.32-.93-1.04-.97-1.68-1.26-4.57-2.09-9.48-2.85-14.57-2.85-1.04-1.98-2.12-3.76-3.52-5.56.5-.53,1.13-.51,1.79-.45,3.69.35,6.99,1.75,10.19,3.91,3.82-3.7,9.09-4.73,14.22-3.9,4.2.68,7.84,3.05,10.28,6.57,3.73.51,8.94,1.39,11.86,3.79.43.36.64.87.62,1.36-.11,3.04-10.86,3.89-13.24,4.03-10.1.59-23.6-.14-33.5-2.26-1.53-.33-4.98-1.36-5.07-3.06ZM163.89,97.54l11.28.32c-2.42-3.48-7.38-4.9-11.46-4.13-.15,1.3-.1,2.55.18,3.81ZM160.14,97.35c.69.28,1.41.25,2.13.11l.02-3.53c-1.11.21-2.83,1.03-2.73,2.08.04.42.11,1.15.58,1.34Z"/>
  <path d="M29.49,172.81l-12.88,6.79c-.39.21-.82.16-1.02-.25l-4.05-8.13,13.46-7.05,1.64,2.89c.35.33,1.3-.27,1.62-.57-1.38-3.25-1.73-4.53.75-7.32l-1.11-2.39,4.92-2.43c.6.57.75,1.36,1.22,2.06,2.93-.48,5.25.94,6.25,3.63.16.44,1.68-.07,1.52-.45l-1.47-3.38,13.09-6.79,4.45,8.77-12.39,6.47c-.24.03-.53.07-.64-.13l-1.49-2.87c-.67.07-1.19.37-1.77.81l2.39,5.24c-1.27.82-2.89,1.1-4.04,2.03-.62,1.02,2.46-.18,2.42,3.26-.01,1.07-.71,1.98-1.68,2.61-1.18.76-2.73.72-3.7-.26s-.99-2.27-.35-3.85l-4.7,1.84-2.46-4.76c-.63,0-1.17.32-1.71.74l1.72,3.46ZM52.75,157.88l-2.11-4.25c-.21-.42-.58-.56-.92-.33-.25.17-.32.48-.14.83l2.15,4.32c.22.43.68.44.96.21.15-.12.24-.39.05-.78ZM48.41,159.86l-1.95-3.83c-.17-.34-.54-.41-.78-.32-.16.06-.56.29-.42.59.78,1.56,1.49,3.07,2.4,4.6.17.29.7-.11.78-.28.07-.16.17-.36-.03-.75ZM31.98,164.22c1.34-.77,2.66-1.09,3.8-1.93.39-.29-.1-.98-.33-1.21-.97-.96-3.09.4-4.08,1.19-.25.69-.12,1.46.61,1.95ZM24.28,172.71l-2.18-4.17c-.2-.39-.6-.45-.94-.25-.24.14-.31.44-.13.79l2.24,4.3c.19.37.68.36.93.16.15-.12.26-.47.08-.82ZM19.81,175.37c-.51-1.06-2.16-4.65-2.9-4.84-.18-.05-.75.19-.63.46.74,1.68,1.54,3.22,2.42,4.79.15.27.54.21.69.13s.53-.29.41-.54Z"/>
  <path d="M138.48,166.07l35.32-.06c.61,0,1.34-.37,1.08-1.05l-34.7-.05c.99-3.44,4.19-8.33,8.05-8.35l13.18-.05,16.2-.18c5.46-.06,10.06,3.42,13.01,7.84.76,1.14.88,2.25-.31,3.18-1.31,1.03-2.95,1.41-4.78,1.41l-45.67.02c-.83,0-1.47-.39-1.68-.93-.17-.43-.28-1.79.31-1.79ZM186.83,162.65c-2.7-3.59-7.36-4.42-11.19-3.23,2.64,4.47,6.31,3.77,11.19,3.23ZM151.45,162.34c.13-.97.24-1.83-.1-2.77-1.63.1-3.21-.26-4.77.15-.54.51-.43,1.98-.18,2.64l5.06-.02ZM158.3,162.33c.09-.94.13-1.78-.02-2.71l-5.22-.05c-.17.97-.14,1.79-.07,2.81l5.32-.05ZM165.25,162.27c0-1.16.15-1.83-.13-2.72l-5.39.06c-.04,1.04-.11,1.84.08,2.78l5.44-.12ZM172.38,162.32c0-1.03-.1-1.79-.31-2.7-1.82-.16-3.56-.08-5.42-.05-.12.98-.11,1.8,0,2.78l5.74-.03Z"/>
  <path d="M48.07,31.69c2.37.23,10.83,3.15,10.23,6.1-.41,1.98-6.12,3.69-7.98,4.18-8.97,2.35-18.23,2.7-27.38,1.18-3.12-.52-12.08-2.15-13.65-4.83-1.76-3,8.03-6.34,10.14-6.61-.1,1.09.16,1.78,1,2.17,6.27,2.89,14.06,3.21,20.76,1.89,2.09-.41,4.02-.97,5.89-1.9.83-.41,1.17-1.08.99-2.16Z"/>
  <path d="M114.36,158.17c-7.04,5.95-18.61,10.1-27.58,11.52-2.9-4.6-2.65-10.39.49-14.8,3.9-5.49,10.86-7.66,17.32-5.79,4.58,1.32,8.25,4.59,9.77,9.08ZM100.19,152.45c-1.2-.91-2.86-.78-4.05-.16-1.44.75-1.94,2.34-1.47,3.67.51,1.45,1.72,2.19,3.3,2.08,1.29-.09,2.55-.8,2.99-1.94s.38-2.77-.77-3.65ZM92.23,159.06c0-.88-.72-1.6-1.6-1.6s-1.6.72-1.6,1.6.72,1.6,1.6,1.6,1.6-.72,1.6-1.6ZM96.57,162.21c0-.73-.59-1.32-1.32-1.32s-1.32.59-1.32,1.32.59,1.32,1.32,1.32,1.32-.59,1.32-1.32Z"/>
  <path d="M95.29,50.37c-2.65-8.92-4.5-18.46-1.11-27.38l6.14.13,5.53-.24c2.99,7.46,2.39,15.94-.04,23.54-.41,1.3-.83,2.45-.87,3.88-3.22.38-6.35.26-9.67.06ZM102.99,29.11c-.05-2.07-1.75-3.17-3.58-2.89-1.7.26-2.71,2.12-2.19,3.87.49,1.63,1.8,2.41,3.4,2.18,1.4-.2,2.41-1.46,2.37-3.16ZM100.07,48.31c.88-3.26.75-6.3.53-9.36-.15-.35-.32-.69-.61-.56-.21.09-.19.39-.39.62-.3,3.09-.28,6.23.47,9.3Z"/>
  <path d="M109.67,109.22h-19.13c-.4-3.13-.84-6.22-.99-9.44l-.15-3.36,6.29-.1.22-1.25h8.2c-.03.55-.04,1.06.43,1.26l6.21.06c-.15,4.3-.6,8.49-1.08,12.83Z"/>
  <path d="M42.76,33.87c-6.26,1.61-12.67,1.49-18.79-.17-1.16-.32-2.11-.79-3.07-1.48.15-1.67.52-3.26,1.44-4.66,3.76-5.68,11.96-6.56,17.83-3.96,3.54,1.57,6.04,4.74,6.44,8.6-1.16.85-2.35,1.29-3.84,1.67ZM26.62,30.95c.58-2.99,2.47-4.63,5.12-6.14-3.38-.2-6.11,2.37-6.82,5.49-.16.7,1.58,1.29,1.7.65Z"/>
  <path d="M139.35,56.82c-.23-.66-.12-1.23-.05-1.82l3.56-.25-.09-6.16c-1.06-.14-2.12.26-2.92-.25-.62-.4-.74-1.69-.48-2.3.15-.37.73-.4,1.12-.4h29.54c.26.87.26,1.68.23,2.65-4.41.79-7.89,4.06-8.93,8.52h-21.97ZM151.87,51.77c-.04-1.38.11-2.14-.12-3.15l-3.88.02c-.11,1.11-.1,2.08-.01,3.21,1.38.03,2.62.14,4.02-.08ZM157.19,51.75l-.07-3.1h-3.77c-.21,1.1-.22,2.14.11,3.23,1.31-.04,2.46.16,3.73-.12ZM161.86,51.78c1.06-.19,1.99-2.37,1.16-2.92-1.29-.61-2.97-.06-4.28-.19-.01,1.29-.02,2.13.11,3.19,1.02-.01,1.86.13,3.01-.08Z"/>
  <path d="M108.74,91.92c-.34.72-.11,1.32-.3,2.06-1.66.07-3.28.02-4.98.02h-11.61s-.26-2.06-.26-2.06c-.85.01-1.54.12-2.21-.18-.12-1.67-.05-3.26-.05-4.92,0-1.21,1.55-.69,2.36-.96-.34-2.36,1.59-3.75-.63-5.49-.45-.36-.69-.88-.64-1.4.04-.47.29-1.11.88-1.31.72-.25,1.33,0,1.76.51,1.18,1.42-.82,1.14,1.11,4.62.41.73,1.12.79,1.85.77l9.45-.24c3.09-2.64.28-4.03,1.96-5.43.57-.48,1.42-.38,1.97.21.5.54.62,1.65-.09,2.2-2.33,1.81-.61,3.19-.56,5.51l2.03.39c.23,1.8.12,3.65.02,5.48-.63.31-1.16.22-2.05.25ZM98.18,88.8c0-1.01-.82-1.82-1.82-1.82s-1.82.82-1.82,1.82.82,1.82,1.82,1.82,1.82-.82,1.82-1.82ZM105.74,88.8c0-.98-.8-1.78-1.78-1.78s-1.78.8-1.78,1.78.8,1.78,1.78,1.78,1.78-.8,1.78-1.78Z"/>
  <path d="M171.44,172.61h-15.19s-.74,3.71-.74,3.71l-8.99-.05c.14-1.37.78-2.31,1.18-3.66l-7.72-.11c-.2-.79-.2-1.62-.04-2.56h49.34c.29.85.2,1.74.04,2.69l-9-.02c.4,1.37.96,2.3,1.2,3.7l-9.23.03-.85-3.72Z"/>
  <path d="M83.68,164.53c-.67,1.01-4.44,4.01-3.78,5.57.57,1.35,4.13,1.04,5.53.92,4.42-.39,8.55-1.52,12.76-2.97,6.74-2.31,12.91-5.59,18.37-10.14,1.06-.88,4.41-4.42,3.26-5.53-.62-.59-1.64-.66-2.44-.58l-4.96.54c-.57.06-1.08-.68-1.17-1.2,2.78-.79,10.29-2.81,11.85.25.55,1.08.21,2.42-.35,3.45-2.53,4.7-9.05,8.94-13.75,11.44-7.22,3.85-15,6.44-23.1,7.69-2.34.36-10.14.99-9.54-3.03.51-3.38,4.32-6.52,7.08-8.53-.14.63.27,1.39.23,2.11Z"/>
  <path d="M169.53,44.11c-.6.43-1.44.21-2.28.12-.57-2.91-1.91-5.46-3.81-7.81-.14-1.35,1.28-3.95-.19-4.17-1.37-.2-4.24-.76-4.43-2.28-.16-1.28,1.01-1.7,2.26-2.29-.63-.7-2.27-.8-2.26-2.25.02-1.94,4.21-2.41,5.74-2.52.89-4.7-.19-3.69-.61-4.83-.36-.96-.2-1.94.62-2.6.66-.52,1.91-.58,2.55.15,1.13,1.26.27,2.45-.37,3.59-.57,1,.08,2.54.12,3.66,1.66.07,5.76.5,6.03,2.4.19,1.34-1.3,1.69-2.06,2.29.64.49,1.49.57,1.95,1.24.5.71.14,1.71-.56,2.17-1.34.88-2.82,1.14-4.54,1.38l1.84,11.74ZM170.8,29.62c-1.09-.96-2.31-.99-3.49-1.03-.16.74-.09,1.21.17,1.91,1.11-.15,2.35-.05,3.32-.88Z"/>
  <path d="M165.78,44.31h-23.44c.74-5.97,5.78-10.18,11.72-10,3.36.1,6.34,1.29,8.7,3.7,1.68,1.65,2.65,3.84,3.02,6.29ZM148.47,40.81c.58-2.03,2.11-2.81,3.76-4.05-2.69-.06-4.84,2.04-6.26,4.33.92.07,1.65.01,2.51-.28Z"/>
  <path d="M98.04,178.11c-3.03-.52-5.6-1.69-8.02-3.43,1.23-.52,2.33-.75,3.6-1.1,7.91-2.14,15.3-5.44,22.1-10.03.29,1.14.14,2.1-.1,3.13-1.9,7.89-9.45,12.82-17.58,11.42Z"/>
  <path d="M181.6,56.82l-18.8-.05c.59-2.24,1.75-3.95,3.31-5.32,3.36-2.8,8.1-3.14,11.69-.66,2.1,1.45,3.6,3.56,3.8,6.03Z"/>
  <path d="M172.83,42.25c.78-1.32,2.48-.42,2.77-1.51.2-.75-.04-1.53.21-2.21.82-.31,1.67-.27,2.46-.67l.49-4.03c.87-.13,1.72-.1,2.71.06l-.04,18.64c-2.23-3-5.27-4.47-8.79-4.64l.18-5.63Z"/>
  <path d="M191.95,54.93c.23.59.17,1.23.08,1.86h-9.26s-.02-13.53-.02-13.53c0-.2.14-.42.22-.46s.29-.02.46.06c3.75,1.75,5.6,7.88,5.96,11.92.83.23,1.56,0,2.56.16Z"/>
  <path d="M35.31,89.95c-5.98.05-11.43.64-17.09,2.5-.99-1.96-2.28-3.45-4.09-4.45-.28-.16-.45-.54-.36-.72.11-.23.35-.54.67-.61,4.79-1.05,16.52-.37,20.86,3.28Z"/>
  <path d="M86.38,111.55c.04-.84-.47-1.36-1.08-1.42s-1.24.34-1.3,1.06l-.25,2.96c-.84-.08-1.71-.64-2.2-1.4-.65-1.01-.62-2.2-.21-3.36.32-.9,1.4-1.52,2.39-2.13.34-3.13.94-6.37,2.3-9.27.88-.33,1.73-.28,2.72-.15.27,1.26.7,3.31.15,4.48-4.7,5.47,1.34,6.47-.18,10.15-.36.88-1.26,1.65-2.47,1.68l.12-2.6Z"/>
  <path d="M116.39,111.55c.02-.96-.57-1.47-1.26-1.44-1.93.08-.93,2.79-1.19,4.1-1.21-.07-2.14-.96-2.53-1.85-.51-1.17-.02-2.23.67-3.18,1.71-2.36,1.27-5.41-1.14-7.03l.48-4.34c.84-.09,1.62-.03,2.57.04,1.39,2.98,2.05,6.17,2.42,9.5.91.48,1.79.81,2.32,1.63.65,1.01.68,2.22.09,3.35-.43.83-1.28,1.71-2.48,1.85l.04-2.62Z"/>
  <path d="M111.33,53.82c-1.06-2.17-2.47-4-4.2-5.71-.29-.28-.66-.73-.5-1.19.93-2.65,1.42-5.27,2.04-8.08,3.28,2.08,4.82,5.46,4.63,9.15-.06,1.08-.38,5.88-1.26,6.12-.22.06-.56-.02-.7-.3Z"/>
  <path d="M88.92,53.73c-.13.29-.44.37-.58.38-.19.01-.48-.13-.57-.45-1.48-5.76-1.76-11.38,3.85-14.89.49,3.15.98,5.91,1.99,8.8-2,1.74-3.59,3.7-4.7,6.16Z"/>
  <path d="M103.84,58.24c-.76.2-.61-1.81-1.09-1.56-1.01,1.08-1.54,4.35-2.72,4.3s-1.52-2.76-2.52-4.1c-.53.34-.38,1-.78,1.34-.43.37-.87-.15-1.06-.6-.76-1.78-.69-3.77-.26-5.64.98.04,1.81-.02,2.72.15.73,1.12,1.12,2.38,1.78,3.75,1.07-.92.93-2.48,1.84-3.45.64-.68,1.92-.46,2.83-.47.54,1.23.51,5.94-.75,6.28Z"/>
  <path d="M105.63,22.02l-11.06.04c.37-1.66,4.11-7.53,5.46-7.63.38-.03.74.15,1.03.48,1.85,2.09,3.22,4.36,4.58,7.11Z"/>
  <path d="M108.59,117.93c-3.65-.04-2.93-.45-6.15.97l-.43-8.37c1.95-.25,3.81-.2,5.9-.08l.67,7.47Z"/>
  <path d="M97.65,118.89c-1.88-1.03-3.74-1.25-5.95-.88l.62-7.55c1.83-.25,3.65-.18,5.65,0l-.32,8.42Z"/>
  <path d="M111.72,123.93l-9.51.05c-.71-2.24.46-4.5,2.85-4.96,1.44-.28,2.93-.29,4.31.26,1.72.82,2.49,2.56,2.35,4.65Z"/>
  <path d="M98.09,123.93l-9.28.04c-.65-2.31.82-4.58,3.22-4.98.83-.14,1.62-.28,2.46-.07,2.5.15,4.13,2.34,3.6,5.01Z"/>
  <path d="M179.81,112.21c-2.97.55-5.87-1.06-7.38-3.45,4.04-.15,7.59-.25,11.58-.76-.54,1.94-1.97,3.8-4.2,4.22Z"/>
  <path d="M35.71,50.87c-1.12.29-2.16.13-3.35.04l-2.44-5.56c2.82.14,5.28.07,8.16.05l-2.37,5.47Z"/>
  <path d="M20.89,48.93c-.96.62-2.52-.09-3.31-.65.68-1.76,1.56-3.09,2.63-4.45,2.25.58,4.23.91,6.52,1.34l-5.85,3.77Z"/>
  <path d="M50.43,48.19c-.7.63-2.24,1.32-3.12.77l-6.05-3.8c2.25-.46,4.21-.81,6.41-1.44,1.06,1.36,2.02,2.63,2.76,4.47Z"/>
  <path d="M153.85,107.83c-2.47,1.95-6.9,2.73-10.04,2.8-.22,0-.38-.19-.46-.28-.12-.15-.05-.47.12-.67l2.78-3.28,7.6,1.43Z"/>
  <path d="M15.73,101.15c-1.12.42-2.75.22-3.61-.79-1.03-1.21-1.03-3.38-.03-4.59.87-1.05,2.31-1.01,3.55-.82l.09,6.2Z"/>
</svg>