<?xml version="1.0" encoding="UTF-8"?>
<svg id="Capa_1" xmlns="http://www.w3.org/2000/svg" version="1.1" viewBox="0 0 200 200">
  <!-- Generator: Adobe Illustrator 30.2.1, SVG Export Plug-In . SVG Version: 2.1.1 Build 1)  -->
  <path d="M152.55,46.79c3.07-1.75,6.18-2.8,9.43-3.93l.33-4.15c-2.04.38-6.09,1.93-7.86.44-1.43-1.2.32-3-1.15-4.13-.36-.28.05-.89-.09-1.18-.28-.58-.58-1-.38-1.7.36-1.27-1.54-.84-2.18-1.66-1.06-1.37,2.02-4.88,2.29-7.93.15-1.78.15-3.44,1.1-5.12-.92-.33-1.67-.6-1.94-1.42-.28-.87.14-1.74.73-2.5-1.43-2.88,2.38-3.47,4.18-4.81,1.48-1.1,2.95-.76,4.67-.77,1.58,0,3.24-.97,4.89-.17.69.33,1.5.76,2.33.59,1.48-.3,2.43.8,3.68,1.02l3.39.6c2.92.52,4.76,3.46,4.38,6.5,3.83,3.3,1.63,6.43,1.71,7.6.16,2.53.27,5.06-2.04,6.82.32,1.69-.63,2.93-1.39,4.24s-1.51,2.43-2.76,3.21c-.09.88.14,2.03.46,2.79,2.98,1.01,5.84,1.78,8.56,3.15-4.62,8.89-25.6,8.73-32.35,2.53ZM177.51,27.76c.73-.5.97-1.4.83-2.18-.37-2.06-2.89-.83-3.01-3.07-.14-2.62-2.25-3.06-4.34-3.44-.12-.76-.07-1.67-.75-2.14-.99-.68-2.22-.59-3.36-.54-.31-.87-.35-1.93-1.14-2.43-2.2-1.39-4.69.46-4.91-1.19-.16-1.21-1.04-1.94-2.29-1.8-.41.05-.88-.12-1.12.35l2.03.96c.53.25-.4,2.1,1.33,2.31,1.07.13,2.1.14,3.16.36,2.23.47.51,2.74,2.73,2.89.91.06,2.17.03,2.83.72.56.58.21,1.62.69,2.29,1.11.19,2.32.15,3.23.88.53.43.52,1.32.37,1.92-.42,1.68,1.95,1.02,3.22,2.59.33.4.1.93.49,1.51Z"/>
  <path d="M41.04,116.87l-16.31-.05c-1.23,0,1.36-3.65,1.57-3.94-4.1-4.73-8.14-10.31-8.97-16.59-.3-2.25-.11-4.36.98-6.37-1.64-2.63-2.5-5.6-1.78-8.57.59-2.42,2.56-3.92,5.02-3.78,1.37.08,2.5.71,3.88,1.34.35-2.08-2.28-2.55-1.19-4.79l17.23.02c1.18,1.51-1.95,3.24-1.24,4.86,1.52-.92,2.88-1.57,4.48-1.43,2.4.2,4.09,2.02,4.5,4.39.47,2.71-.31,5.36-1.76,7.83,2.73,4.82-.14,11.71-2.77,16.02-1.54,2.52-3.34,4.7-5.16,7.08l1.43,2.43c.26.45.46.94.09,1.56ZM25.46,83.62c-.84-1.55-1.85-2.45-3.21-2.99-1.16-.34-2.36.2-2.69,1.42-.48,1.76-.15,3.72,1,5.14,1.52-1.63,3.16-2.52,4.91-3.57ZM45.14,87.21c1.48-1.93,1.74-5.55-.2-6.44s-4.09,1.23-4.67,2.92c1.98.9,3.46,2.02,4.87,3.51Z"/>
  <path d="M183.79,148.38c-.96.87-2.2.84-3.39,1.12.13,1.31.54,2.55.97,3.8l2.93,8.52c.7,2.03,1.17,4.04,1.1,6.21-.16,4.62-3.01,8.42-7.63,9.9,1.38,1.2,2.31,2.6,1.45,4.28l-23.62-.02c-.89-1.58.04-2.98,1.39-4.27-5.1-1.42-8.02-5.76-7.71-10.8.35-5.89,3.62-10.64,4.99-16.96.37-1.71-3.16.17-4.27-2.84-.44-1.2-.31-2.47.4-3.59.55-.86,1.6-1.49,2.85-1.69,3.02-.49,5.61,1.52,5.93,4.59.03.32.03.67.2.82.37.35,1.75.33,2.1-.02.31-.31-.06-1.58.75-1.75.98-.21.74,1.59,1.09,1.87.29.23.74.16,1.09.11.85-.14.17-1.86,1.12-2,1.51-.23-.02,2.38,2.2,2,.88-.15.16-1.79,1.13-1.98,1.12-.22.32,1.99,1.71,2.05,1.87.08.56-1.96,1.79-2.04.85-.06.59,1.51.91,1.78.41.34,1.73.23,1.93.07.31-.26.16-3.15,2.31-4.65,1.46-1.02,3.13-1.15,4.68-.65,1.23.4,2.12,1.38,2.44,2.43.4,1.29.24,2.72-.84,3.69ZM161.65,170.93l-.02-20.74c-.86-.07-1.52-.05-2.34.04-.85,5.18-3.21,8.23-3.25,13.61-.03,3.42,2.15,6.42,5.61,7.08ZM164.89,150.15h-1.65s0,21.2,0,21.2h1.65s0-21.2,0-21.2ZM166.49,150.15v21.24s1.7,0,1.7,0v-21.24s-1.7,0-1.7,0ZM171.56,150.14h-1.73s0,21.17,0,21.17h1.73s0-21.17,0-21.17ZM175.44,150.27c-.77-.15-1.51-.26-2.28.05v20.6c3.31-.68,5.51-3.51,5.57-6.86.1-5.09-2.29-8.89-3.29-13.79Z"/>
  <path d="M88.42,33.81c2.32-.08,4.3-.68,6.15-1.87,1.59-1.02-2.35-2.92-5.26-2.28-1.15.26-1.8,1.01-2.07,2.1l-1.48,6.09c-1.3.04-2.46-.05-3.64-.23l4.51-16.76c.44-1.62,2.09-.58,3-1.54,1.21-1.27,2.47-2.3,4.14-2.91,5.21-1.92,11.01-.76,15.06,3.04,4.81,4.52,6.7,12.4,2.9,17.93.9,3.09,3.09,5.35,4.83,7.92-2.75.31-5.31-.08-7.76-.9-2.31-.77-3.96-2.32-5.59-4.28-4.1,6.99-10.44,9.09-17.79,10.45l2.99-16.76Z"/>
  <path d="M31.56,181.52c1.77-2.2,7.9-4.63,8.76-6.76.29-.71-1.48-.99-2.01-.44-1.88,1.92-4.2,2.99-6.27,4.58-1.95,1.51-3.29,3.51-5.12,5.13l-2.45-2.52c1.74-1.69,3.76-2.68,5.7-4.03,1.11-.77,2.77-1.39,3.25-2.73.27-.76-1.28-.87-1.78-.46-1.89,1.54-3.76,2.87-5.88,4.05-1.57.88-4.32,4.45-5.96,5.66l-2.4-2.5c2.13-1.92,4.58-3.06,6.97-4.53.82-.51,2.3-1.29,2.3-2.35-.02-.82-1.67-.45-2.14.02-1.83,1.8-4.08,2.65-6.11,4.08s-3.51,3.65-5.45,5.34l-2.51-2.67c2.21-1.77,4.59-3.04,7.03-4.44,1-.57,2.22-1.25,2.69-2.35-.15-.52-1.33-.59-1.77-.28l-4.99,3.45c-3.61-3.48-5.58-8.31-4.96-13.2.28-2.17,1.53-3.65,3.7-3.94,1.26-.17,2.54-.16,3.86-.06l.06,3.07c-1.05.4-2.78-.26-3.26,1.55s3.68,2.81,5.2,2.98c7.85.89,15.71.96,23.6.15,2.05-.21,9.88-1.24,8.98-4.29-.23-.79-.68-1.34-.81-2.19l6.43-1.08c.49,3.35.53,7.02-1.33,9.73l-1.47,2.15,4.31,4.42c-2.92,1.63-7.68,1.7-11.01,1.51-.69-.04-1.16.17-1.6.65l-4.23,4.69-2.58-2.39c.33-1.62,11.06-6.33,7.77-7.38-.77-.25-7.06,4.66-6.85,4.45l-5.28,5.37c-.73-.76-1.69-1.54-2.41-2.46Z"/>
  <path d="M101.96,159.07c-1.45-.13-2.36,1.06-3.56,1.47-.6.2-1.47,1.48-.78,1.78,1.51.49,2.86,1.07,3.44,2.79,1.06,3.14.76,6.78-1.11,9.59-.96,1.44-2.28,2.58-4.04,2.77-1.54.17-3.14-.64-3.97-1.89-1.35-2.03-1.5-4.28-1.02-6.71-1.55.36-3.39.25-4.59,1.28-2.07,1.77-3.54,4.08-5.34,6.11-.96,1.09-2.05-1.04-2.86-2.03,1.43-1.97,3.18-3.49,4.95-5.37-5.19-6.38-.23-13.57.44-12.6,2.43,3.5,2.29,7.5.65,11.46,1.95-.74,2.97-2.32,4.16-3.6l-.42-4.06c-.52-5.03,1.58-10.03,5.82-13.12,1.79,4.89,1.05,9.87-1.69,14.45l7.94-3.77c2.48-1.18,4.72-2.51,6.86-4.22,4.04-3.24,9.74-4.95,14.94-3.37-2.67,3.89-7.12,6.94-11.95,7.16l-5.5.26c2.17,4.99,3.63,3.03,5.75,5.73s2.79,6.03,1.89,9.27c-.67,2.4-3,3.68-5.42,2.92-1.47-.46-3.2-1.69-3.82-3.08.57-2.66.67-5.25-.31-7.79-.53-1.37.24-2.31,1.14-3.25.32-.64-.74-2.09-1.59-2.16ZM91.66,166.53c1.16-1.8,2.68-2.79,4.5-4.09-2.32-.71-6.27,3.27-7.29,4.71,1.07-.05,1.99-.31,2.79-.63Z"/>
  <path d="M100.79,90.99c0-.71-.13-1.07-.58-1.16-.48-.1-1.13.14-1.13.8l-.04,18.49c-1.6.25-3.1.14-4.73.03l-.02-18.29c0-.56-.22-.97-.69-1.05s-1.02.24-1.02.87l-.02,18.46-4.79.1v-21.04c0-1.2,1.35-2.02,2.45-2.02h19.7c1.29,0,2.27.92,2.27,2.26v20.75s-4.74.02-4.74.02l-.04-18.58c0-.57-.45-.84-.85-.89-.31-.04-.93.25-.93.76l-.07,18.69h-4.77s-.02-18.21-.02-18.21Z"/>
  <path d="M33.52,166.47c-.82.34-1.71.24-2.67.14l-.1-4.83c-3.98.19-7.52,1.25-11.49,2.42,2.31-5.26,2.21-13.02-2.06-17.72,2.62-.4,5.08-.48,7.73-.52,6.79-.09,15.53.13,21.94,2.16.68.22,1.02.61,1.23,1.32,1.51,5.14.52,10.66-2.74,15.04-3.68-1.85-7.63-2.78-11.83-2.86v4.84Z"/>
  <path d="M56.88,22.96H8.81c-.14-1.26-.09-2.41-.05-3.71l24.01-11.44,24.04,11.4c.16,1.25.18,2.34.08,3.75Z"/>
  <path d="M119.76,37.72c-1.44-2.12-2.72-3.98-4.66-5.55.29-5.29-1.5-10.43-5.4-13.98-5.52-5.03-13.61-5.56-19.8-1.49-2.21-2.6-4.33-4.97-6.79-7.29,1.95-1.73,4.27-2.59,6.77-3.32,9.66-1.89,19.99,1.11,25.97,9.21,3.31,4.48,4.8,9.79,4.8,15.34,0,2.43-.05,4.7-.89,7.07Z"/>
  <path d="M90.83,84.62c.25-1.37.53-2.65.15-3.98-.63-2.23-2.92-3.62-5.13-3.05-2.09.54-3.18,2.66-2.22,4.56.65,1.28,2.41,1.66,3.42.73.32-.29.34-.72.22-.93-.45-.75-1.29.48-2.17-.48-.37-.41-.42-1-.22-1.52.3-.79,1.08-1.16,1.68-1.22.9-.09,1.62.09,2.29.73,1.65,1.59,1.63,4.53-.27,6-2.41,1.86-5.91,1.25-7.65-1.19-1.29-1.82-1.53-3.91-.61-6.1.61-1.44,2.36-3.43,4.46-3.43h30.05c3.14,0,5.31,3.06,5.35,5.83.04,3.03-2.26,5.62-5.29,5.97-1.61.19-2.9-.52-3.82-1.53-1.09-1.2-1.34-2.81-.76-4.31.66-1.71,2.64-2.62,4.15-1.59.64.44.95,1.1.71,1.79-.61,1.72-2.17.41-2.54.97-.22.32-.07.79.27,1.09.74.64,1.81.54,2.59.05s1.23-1.45,1.18-2.52c-.06-1.19-.89-2.09-1.67-2.55-1.12-.66-2.3-.62-3.42-.13-2.58,1.13-3.38,4.05-2.15,6.81l-18.59.02ZM106.5,80.43c.65,0,1.03-.3.92-.92-.06-.38-.39-.58-.93-.58l-13.09.04c-.47,0-.54.69-.42.96.09.19.32.51.73.51h12.79Z"/>
  <rect x="7.83" y="44.54" width="50.16" height="5.66"/>
  <rect x="84.37" y="110.78" width="30.96" height="5.57"/>
  <path d="M37.16,43.02l-8.79.04.72-15.51c-.38-.31-.79-.32-1.25-.55-.17-.78-.21-1.6.01-2.44h9.7c.13.82.55,2.06-.04,2.42l-1.02.62.67,15.43Z"/>
  <path d="M52.71,43.06h-8.73s.65-15.31.65-15.31c.02-.56-.97-.41-1.15-.67-.48-.71-.25-1.68-.13-2.54l9.79.02c.14.89.12,1.61.05,2.4l-1.29.6.81,15.5Z"/>
  <path d="M21.22,32.78l.51,10.27-8.59.03.68-15.31c.03-.56-1.05-.44-1.22-.71-.41-.66-.17-1.67-.11-2.48l9.73-.04c.25.82.17,1.62.12,2.46-.42.24-.81.26-1.23.57l.1,5.21Z"/>
  <path d="M109.23,142.85c-1.41,7.39-5.93,12.34-12.75,14.98-.48-7.58,5.3-13.67,12.75-14.98Z"/>
  <path d="M176.41,117.39l-8.89-4.21-9.02,4.2c-.71-.71-1.14-1.52-1.48-2.57,3.22-1.14,6.3-2.27,9.44-3.62.71-.31,1.63-.11,2.32.16l9.14,3.48c-.4.95-.84,1.59-1.5,2.57Z"/>
  <path d="M161.69,111.2c-5.66,1.39-10.67.47-14.35-4.19,3.27-2.36,9.09-.43,11.91,1.86l2.44,2.33Z"/>
  <path d="M187.36,106.9c-3.35,4.6-8.45,5.74-14.01,4.25,3.45-3.83,8.62-6.77,14.01-4.25Z"/>
  <path d="M142.92,95.4c4.39.57,9.78,4.82,10.43,9.3-5.6.3-10.16-3.94-10.43-9.3Z"/>
  <path d="M181.24,104.75c.92-4.5,6.15-8.82,10.56-9.28-.42,5.49-5.1,9.43-10.56,9.28Z"/>
  <path d="M114.34,166.05c-.63-.09-1.09-.31-1.28-.79-1.04-2.55-2.97-4.33-5.5-5.73,4.94-.88,9.97,1.43,12.72,5.86-1.99.6-3.87.74-5.93.65Z"/>
  <path d="M149.67,95.6c-.13.59-.19.97.02,1.44-4.44-2.09-6.5-7.11-4.58-11.8,3.62,2.12,5.37,6.17,4.55,10.36Z"/>
  <path d="M185.22,97.09c-1.09-5.31.3-9.37,4.53-11.88,1.55,4.66-.13,9.37-4.53,11.88Z"/>
  <path d="M175.17,105.59c-.67,3.09-3.77,5.92-4.83,5.29-.21-.12-.15-.56-.16-.84-.21-3.78,1.65-7.16,4.97-8.78.2,1.56.33,2.92.02,4.33Z"/>
  <path d="M164.52,111.13c-3.95-.91-5.61-6.01-4.67-9.66,3.63,1.7,5.44,5.7,4.67,9.66Z"/>
  <path d="M157.69,106.56c-3.64-1.05-5.15-6.88-2.92-9.79,2.97,2.18,3.97,6.29,2.92,9.79Z"/>
  <path d="M176.96,106.65c-.89-3.15-.33-7.49,2.75-9.85,2.32,3.31,1.07,8-2.75,9.85Z"/>
  <path d="M184.06,90.26c-3.55-.92-6.12-4.18-5.99-8.07,3.54.89,6.28,3.91,5.99,8.07Z"/>
  <path d="M156.25,82.2c1.53-.44-.34,6.79-5.47,7.96-.35-3.75,1.99-6.96,5.47-7.96Z"/>
  <path d="M183.67,98.49c-3.12-1.56-4.7-5.21-4.25-8.61,3.79.93,5.65,4.83,4.25,8.61Z"/>
  <path d="M151.2,98.45c-1.62-3.47.31-7.68,3.92-8.62.67,3.31-.77,6.59-3.92,8.62Z"/>
  <path d="M182.19,82.57c-3.78-1.14-5.25-4.66-4.74-8.45,3.29,1.43,5.05,4.86,4.74,8.45Z"/>
  <path d="M152.44,82.56c-.44-3.33,1.27-6.86,4.63-8.48.72,3.57-.91,7.18-4.63,8.48Z"/>
  <path d="M185.2,87.75c-2.24-2.83-2.05-6.55-.13-9.58,2.35,2.76,2.45,6.91.13,9.58Z"/>
  <path d="M149.34,78.05c1.9,2.5,2.63,6.98.17,9.53-2.39-2.7-2.31-6.69-.17-9.53Z"/>
  <rect x="30.78" y="140.42" width="2.33" height="3.88" transform="translate(-1.65 .38) rotate(-.67)"/>
</svg>