<?xml version="1.0" encoding="UTF-8"?>
<svg id="Capa_1" xmlns="http://www.w3.org/2000/svg" version="1.1" viewBox="0 0 200 200">
  <!-- Generator: Adobe Illustrator 30.2.1, SVG Export Plug-In . SVG Version: 2.1.1 Build 1)  -->
  <path d="M186,95.57c-4.27,6.73-13.19,11.6-20.07,15.6-6.98-3.8-16.25-8.94-20.66-15.67-1.9-3.29-2.81-7.04-1.73-10.77,2.05-7.07,10.17-10.42,16.71-7.18,2.33,1.17,3.95,2.94,5.49,5.14,2.24-3.16,5.1-5.38,8.7-6.07,5.43-1.05,10.58,1.7,12.69,6.76,1.68,4.02,1.2,8.35-1.13,12.18h0ZM155.35,82.44c.65-.2.71-1.01.56-1.34-.19-.41-.68-.86-1.26-.9-4.07-.31-7.33,3.18-7.12,7.26.07,1.33.38,2.61,1.39,3.45.48.4,1.13.4,1.62.12.42-.26.54-.86.45-1.43-.47-3.23,1.2-6.17,4.36-7.15h0Z"/>
  <path d="M117.21,102.92c-4.68,8.51-15.17,10.52-23.9,8.5-4.9-1.13-9.01-3.91-11.56-8.23-3.14-5.34-3.59-11.88-1.11-17.58,4.22-9.69,16.07-13.12,25.71-10.13,11.67,3.61,16.52,17.12,10.86,27.45ZM108.31,84.83c-.56-.78-1.35-1.15-2.29-1.06-2.52.27-3.19,4.37-1.56,6.86.54.8,1.33,1.22,2.19,1.17,2.22-.15,3.6-4.23,1.66-6.97h0ZM93.76,90.92c1.38-1.9,1.32-4.43-.15-6.18-.89-1.05-2.51-1.06-3.44,0-1.64,1.88-1.53,4.8.27,6.54.97.94,2.5.78,3.32-.36ZM115.41,95.27c.28-.86-1.88-2.87-3.98-2.62-.52.06-.73.65-.97.91-.31.35.52.75.45,1.11-1.27,6.66-11.19,9.48-18.09,5.84-2.34-1.24-4.33-3.36-4.86-5.83-.09-.42.78-.93.31-1.34-.21-.19-.44-.59-.94-.62-2.59-.12-4.62,2.41-3.61,3.15.5.37,1.95-.43,2.12.03,1.76,4.69,5.75,7.89,10.72,8.69,3.45.55,6.8.33,9.92-1.22,5.67-2.81,6.21-7.25,7-7.67.26-.14,1.62.52,1.92-.41h0Z"/>
  <path d="M107.14,173.7c-2.65-1.71-4.86-3.72-7.42-5.57l-4.37,6.26c-.21.3-.5.5-.82.54-.24.03-.62-.1-.82-.41l-4.16-6.4-7.8,5.41c-3.12,2.17-.56-6.4-.57-7.66l-8.29-.02c-.37,0-.72-.12-.83-.3-.19-.34-.14-.82.12-1.13,1.82-2.23,3.78-4.22,5.76-6.39l-4.89-6.49c-.27-.35-.3-.83-.2-1.14.12-.38.54-.7,1.04-.77,3.07-.45,6.06-.4,9.29-.54l-.99-6.73c-.07-.47.02-.94.3-1.15.31-.23.78-.27,1.2-.08,3.31,1.46,6.34,3.16,9.65,4.86l3.87-8.41c.17-.37.52-.56.82-.57s.73.03.96.36c1.67,2.41,3.19,4.83,4.77,7.44,3.19-1.66,6.51-4.36,9.41-5.77.41-.2.93-.08,1.22.14.26.19.35.66.33,1.12l-.36,6.48,9.71-.54c.44-.02.91.19,1.03.43.16.37.1.82-.15,1.17l-4.62,6.44,5.81,5.11c.21.19.29.57.24.75-.06.19-.36.43-.64.48l-6.7,1.18,1.63,7.44c.07.33-.12.69-.27.8-.16.12-.57.19-.87.06l-9.98-4.42-1.5,7.36c-.06.27-.4,1.04-.92.7h.01ZM113.61,161.24h2.79c-.22-1.63.12-3.14.17-4.75l.26-6.87c-.99-.3-1.92-.28-2.97-.47l-2.6,5.12c-.43-1.85-.94-3.59-1.61-5.34l-2.82.05-.43,6.65c-.1,1.64,0,3.24-.34,4.92.92.41,1.67.28,2.55.22l.31-6.14c.5,1.36.68,2.72,1.36,4.09.21.41,1.33.54,1.57.08.84-1.59,1.53-3.05,2.19-4.57-.35,3.14.02,4.27-.42,7.01h-.02ZM104.37,150.98c-.82-1.12-2.03-1.6-3.36-1.42-1.06.14-2.17.96-2.62,2.24-1.42,4.05.86,9.77,4.29,9.18s4.1-6.69,1.7-9.99h-.01ZM95.69,152.11c-.98-1-2.53-1.17-3.66-.62-3.01,1.46-2.47,7.6.49,10.13.91.77,2.1.99,3.25.62,2.69-.85,3.11-6.84-.08-10.13ZM88.34,163.9c2.2-1.21,2.8-3.85,1.26-5.7-.58-.7-1.4-.86-2.32-.87.83-.97,1.1-1.96.76-3.09-.24-.82-.86-1.85-1.87-2.18-1.8-.58-3.63.15-5.1,1.17-.35.24-1.38.59-1.13,1.13l1.88,4.31c1,2.29,1.88,4.51,3.15,6.75,1.19-.47,2.26-.9,3.39-1.52h-.02Z"/>
  <path d="M112.93,43.11c-2.18,3.98-5.87,6.45-10.28,7.04-.99.13-1.34.43-1.91,1.2-.99,1.35-2.6,2.23-4.1,2.27-2.31.07-4.61-.96-5.14-3.74-3.51-1.1-6.48-3.23-8.28-6.48-1.68,0-3.12-.38-4.23-1.42s-1.63-2.38-1.36-3.87c.56-3.19,3.72-2.55,3.28-4.15-1.53-5.49-1.04-12.15,3.21-16.35,2.82-2.79,6.69-4.21,10.58-4.52.52-1.13,1.27-1.59,2.25-1.8,1.32-.27,1.84.84,2.6,1.46,8.3.98,13.55,4.17,14.51,13,2.4.62,10.05,1.78,9.93,4.64s-7.61,2.44-9.69,2.31c-.4-.02-.27.78-.19,1.07.22.79,2.59.59,3.58,3.14.58,1.5.34,3-.56,4.17-.94,1.25-2.31,2.01-4.17,2.03ZM95.83,25.88c-.63-2.32-2.41-3.21-4.3-3.36-2.68-.1-4.97,1.57-5.43,4.33,3.4-.77,6.42-.8,9.72-.97h.01ZM90.87,40.11c5.04.73,10,.75,15.02-.02.7-.1,1.11.49,1.15,1.03.03.48-.27.9-.83,1.07l-2.46.8-.83,4.02c6.74-1.54,9.72-8.66,7.98-14.87-7.84-2.62-19.03-2.78-26.71.17-1.42,5.48,1.55,12.53,7.21,14.32l.41-2.9c.21-1.54-2.3-1-2.55-2.33-.17-.89.84-1.4,1.63-1.28h-.01Z"/>
  <path d="M40.41,159.36c1.61,4.44,1.14,9.16-1.7,12.84-2.5,3.23-6.14,4.92-10.14,5.5-5.27.78-10.62-.37-14.6-4.02-3.98-3.65-5.27-8.42-3.91-13.56,1.13-4.29,4.77-8.17,9.54-9.3.34-.08.65-.02.85-.14.62-.37-.02-2.92,1.21-3.45,1.64-.71,3.87.52,4.56-.82.96-1.89,2.55-3.46,4.62-4.08,3.26-.98,5.92,1.66,8.33,3.67,1.74,1.46,4.29,1.26,5.59-.63-.55-.61-1.59-.37-1.83-.97-.52-1.25,1.2-1.38,1.77-2.22l-2.41-2.69c-.34-.37-.51-.8-.23-1.25.72-1.12,3.04.55,4.19.27l.89-2.59c.14-.4.5-.57.82-.59.36-.03.66.19.82.59l.77,2.18c.86,2.45,3.32-1.07,4.55-.22.36.26.49.85.26,1.25l-1.32,2.29,2.46,2.16c.31.27.36.72.22,1.08-.36.94-3.36.09-3.99.37-.61,1.21-.31,4.24-1.5,4.27s-1.56-2.52-2.54-3.59c-.72.72-1.13,1.53-1.73,2.26-2.12,2.6-5.66,2.95-8.34.93-1.22-.92-2.26-1.98-3.53-2.8-1.87-1.21-4.24-.8-5.19,1.21.83.29,1.63.35,2.32.54,1.77.48,2.05,2.17,1.61,3.63,3.5,1.41,6.26,4.16,7.61,7.89h0ZM21.27,156.39c.49-.28.69-.94.57-1.33-.73-2.27-6.95.4-7.4,5.22-.07.76.48,1.36.94,1.52,1.98.64.82-2.52,5.9-5.41h-.01Z"/>
  <path d="M182.36,175.02c.12.59-.02,1.12-.38,1.35-.24.16-.76.3-1.18.05l-8.07-4.77-.73-4.54-6.74-5.36-6.65,5.33c-.22,1.66-.41,3.09-.78,4.64l-7.92,4.79c-.36.22-.83.22-1.17.02-.28-.16-.57-.7-.48-1.19l1.12-5.83-6.01-1.42c-.28-.07-.51-.29-.61-.5-.08-.2.02-.61.29-.8,2.01-1.42,3.91-2.88,6.02-4.2.96-.59,2.88.59,5.12-1.04l5.53-4.01-7.88-6.48c-1.14,1.1-2.33,5.67-3.67,5.43-.29-.06-.71-.35-.8-.77l-3.24-13.58c-.12-.49-.05-.97.12-1.21.27-.38.97-.54,1.49-.43l13.08,2.65c.35.07.62.35.69.54.09.24.02.64-.21.85l-2.92,2.2,8.79,7.1,8.84-7.08c-.72-1.08-3.3-1.99-3.14-2.9.05-.27.44-.68.86-.76l13.35-2.6c.47-.09.98.05,1.25.27.29.24.43.82.3,1.34l-3.17,13.44c-.12.47-.47.83-.85.92-1.29.3-2.53-4.31-3.87-5.55l-7.93,6.55c2.13,1.6,4.16,3.23,6.44,4.59,1.08.65,2.52.2,3.8.31l6.24,4.19c.35.23.5.58.45.89-.05.42-.4.65-.86.76-1.89.43-3.75.65-5.62,1.32l1.06,5.47.03.02Z"/>
  <path d="M34.03,104.49l-16.73.29c-.54.01-.9-.26-1.04-.79-1.73-6.75-3.32-13.46-4.42-20.36-.09-.62.19-1.21.47-1.48.4-.37.96-.4,1.53-.29,1.08.35,1.94,1,2.83,1.7l9.12,7.14,6.05-14.86c.36-.89,1.17-1.39,1.95-1.42,1-.03,1.57.65,1.96,1.61l5.8,14.63,10.72-8.47c.49-.38,1.33-.36,1.8-.13.43.21.9,1.07.76,1.81l-4.09,20.88s-16.69-.27-16.69-.27Z"/>
  <path d="M167.28,49.01c-2.2.14-3.68-1.34-3.8-3.36-.15-2.48.28-4.83.65-7.29s1.5-10.02-1.12-11.26c-1.33-.63-2.58.49-2.85,1.77-.21,1-.24,2.01-.69,2.9-.37.73-1.2.89-1.95.77-1.78-.3-1.66-2.29-3.09-2.79-.41-.14-.83-.2-1.12-.05-2.51,1.29,2.18,10.16-3.1,10.45-1.56.08-2.88-.9-3.07-2.57-.34-3.17.56-5.77.14-9.6-.5-4.48-4.96.58-4.27-9.86.05-.68.61-1.29,1.39-1.29h41.08c2.29,0,1.59,4.83,1.29,6.05-.96,4.14-3.85,1.26-4.58,4.35-1.03,4.28.02,7.82-.23,10.61-.15,1.61-1.41,2.62-2.87,2.67-1.62.06-2.73-1.22-2.85-2.9-.2-2.75.92-7.11-.38-8.14-.84-.66-1.24,2.1-2.65,2.02-1.2-.07-1.42-1.22-2.04-1.94-.2-.22-.86-.33-1.06.06-1.14,2.22.16,9.03.5,11.93.3,2.65.78,7.19-3.33,7.46h-.01Z"/>
  <path d="M42.53,52.01l-19.13-.07c-.61-.52-.58-1.89-.15-2.5.28-.38,1.1-.36,1.1-1v-19.81c-.78-.31-1.25-.72-1.32-1.22-.06-.43-.08-1.64.55-1.73l19.37-.02c.75,0,.75,1.11.73,1.53-.02.65-.66.99-1.33,1.42l-.03,20.28c1.1.28,1.55.86,1.39,1.92-.03.27,0,.63-.19.8-.16.15-.48.38-.99.38h.01Z"/>
  <path d="M48.99,110.97c-7.09-.48-23.71-.37-31.02,0-.55.02-.97-.28-1.03-.78-.24-1.81-.82-3.77.59-3.91,1.85-.17,3.56-.06,5.47-.14,9.19-.37,18.25-.21,27.45.21.28,1.47.24,2.85-.15,4.16-.13.42-.94.49-1.32.45Z"/>
  <path d="M41.43,24.71l-15.95.02c-.12-.62.23-1.14.64-1.59,3.03-3.29,7.37-2.11,6.01-3.22-.24-.2-1.49.21-1.52-.37-.07-1.48-.08-2.87.06-4.38,1.76-.21,3.44-.16,5.22-.05.1,1.52.16,2.94,0,4.44-.06.47-1.49-.02-1.54.59-.06.71,3.45.62,5.06,1.96.83.65,1.66,1.13,2.02,2.59Z"/>
  <path d="M50.01,18.84c-.45.14-7.12.72-6.52-1.29.09-.3.42-.65.84-.69,1.89-.15,3.79-.44,5.71-.06.76.15.75,1.82-.05,2.05h.01Z"/>
  <path d="M47.44,23.54c-.96-.47-3.22-1.48-3.33-2.25-.13-.89,2.93-.8,4.86.77.4.33.15,1.03-.16,1.35s-.79.42-1.36.14h0Z"/>
  <path d="M45.3,15.29c-.45.15-.79.1-1.03-.21-.16-.22-.16-.63.15-.97,1.19-1.26,3.7-2.1,3.91-.72.08.52-.16.92-.76,1.12,0,0-2.27.78-2.27.78Z"/>
  <path d="M43.05,20.49c-.55,1.14-3.5-.58-4.09-1.08-.2-.16-.21-.57-.15-.76.3-.89,4.79.7,4.23,1.84h.01Z"/>
  <path d="M42.63,15.74c-1.15.56-3.43,1.8-3.94.84-.15-.28-.02-.69.38-.92.75-.42,3.35-1.78,3.81-.84.15.29.12.75-.26.93h0Z"/>
  <path d="M86.21,162.22c-.62-.79-.76-1.67-1.25-2.61.47-.4,1.01-.47,1.66-.38.44.06,1.15.44,1.22,1.17.09.93-.85,1.6-1.63,1.82h0Z"/>
  <path d="M84.2,157.47c-.57-.96-.75-1.68-1.13-2.68.8-.48,2.25-.68,2.62.4.34.96-.55,1.9-1.49,2.29Z"/>
  <path d="M101.67,152.2c1.77.05,2.43,5.38.83,6.01-.31.13-.8.03-1.07-.28-1.97-2.33-.92-5.76.24-5.73h0Z"/>
  <path d="M93.3,153.99c1.95-.62,3.28,5.53,1.52,5.67-2.22.17-3.02-5.19-1.52-5.67Z"/>
  <path d="M106.53,37.64c-1.47.75-2.26-2.32-4.9-.22-.26.2-.72.42-1.03.34-.28-.07-.76-.42-.77-.89-.08-2.06,1.49-3.71,3.53-3.84,1.13-.07,2.02.2,2.78.99,1.24,1.28,1.15,3.23.4,3.61h-.01Z"/>
  <path d="M94.39,37.78c-1.17.64-2.03-2.06-4.49-.22-.28.21-.61.41-.93.37-.3-.03-.7-.34-.82-.77-.51-1.96.9-3.87,2.95-4.02,2.22-.16,4.03,1.54,3.91,3.72-.02.47-.31.76-.62.93h0Z"/>
</svg>