<?xml version="1.0" encoding="UTF-8"?>
<svg id="Capa_1" xmlns="http://www.w3.org/2000/svg" version="1.1" viewBox="0 0 200 200">
  <!-- Generator: Adobe Illustrator 30.2.1, SVG Export Plug-In . SVG Version: 2.1.1 Build 1)  -->
  <path d="M51.92,112.69H17.83c-1.58,0-2.88-.27-4.14-.97-3.43-1.91-5.18-5.93-3.74-9.62.89-2.29,2.8-3.75,5.2-4.15.18-3.31,2-6.27,5.07-7.46,1.61-.63,3.6-.44,5.16.09.66.22.95.88,1.84,1,.44-3.42,2.04-6.61,4.99-8.5.59-.38,1.28-.83,1.94-1.06,2.1-.73,4.68-.74,6.63.18,1.07.5,1.95.91,2.8,1.62,2.65,2.21,4.24,5.56,4.01,9.02-.81.73-2.05,1.26-2.19,2.69,2.59-2.52,5.84-4.09,9.27-2.8,1.36.51,2.41,1.07,3.43,2.24,3.3,3.78,3.83,9.66,1.12,13.91-.82,1.29-1.88,2.04-3.1,2.8s-2.53,1.01-4.19,1.01Z"/>
  <path d="M50.23,51.16c-.66.8-1.39,1.1-2.2,1.6-1.47.9-3.41.81-4.87,0-3.38-1.88-4.19-4.76-5.29-8.2-.36,1.5-.75,5.31-2.32,5.43-2.03.15-2.27-3.83-2.6-5.18-.92,3.22-2.58,6.84-5.51,8.14-1.34.6-3.07.61-4.4,0-4.46-2.02-6.57-9.25-2.89-12.81.8-.78,1.81-1.14,2.69-1.85-3.66.11-6.93-1.86-8.44-5.06-1.68-3.55-2.34-7.53-1.8-11.48.22-1.62.96-3.37,2.6-3.96s3.71-.34,5.2.38c1.1.53,2.18.8,3.17,1.43.81.52,1.68,1,2.45,1.6,3.16,2.46,5.13,4.68,7.01,8.38.55-1.48,1.24-2.2,2.37-2.26,1.35-.06,1.96.88,2.43,2.26,1.4-3.38,3.58-5.84,6.19-8.04.81-.68,1.67-1.16,2.52-1.81.91-.69,2.03-.89,3.09-1.43,1.73-.88,3.96-1.11,5.82-.44.57.2,1.24.89,1.58,1.35,1.08,1.45,1.29,3.21,1.3,4.99.06,6.28-2.58,13.95-10.09,14.09,1.68,1.33,2.81,1.64,3.65,3.54,1.36,3.07.53,6.67-1.66,9.3Z"/>
  <path d="M45.49,184.11c-1.2.79-2.36,1.13-3.61,1.69-2.9,1.29-9.51,1.26-12.36-.04-1.19-.54-2.37-.84-3.45-1.56-3.02-2-5.55-4.52-7.24-7.83-3.67-7.18-2.99-15.98,1.61-22.56,1.82-2.6,4.1-4.44,6.82-5.92,1.54-.84,3.19-1.21,4.94-1.53.37-.07.68-.39,1.1-.39h4.34c.37,0,.59.29.91.36,3.21.73,3.92.66,6.84,2.49,5.59,3.52,8.76,9.46,9.35,15.95.7,7.79-2.66,14.98-9.24,19.34ZM30.06,163.71c1.7-1.16,1.89-3.54.74-5.04-.58-.76-1.23-1.13-2.08-1.08-.75.04-1.32.45-1.85,1.13-.96,1.24-.95,3.01,0,4.25.74.98,1.99,1.57,3.2.74ZM44.55,162.88c1.05-1.49.78-3.36-.46-4.66-.82-.85-2.23-.87-3.11-.06-1.37,1.27-1.6,3.27-.51,4.73.55.74,1.15,1.19,2,1.19s1.5-.37,2.08-1.2ZM46.77,169.41c.14-.46-.31-.74-.35-.91s-.58-.28-.74-.04c-1.04,1.54-1.94,3.18-3.45,4.31-.55.41-1.12.93-1.74,1.24-3.09,1.55-6.77,1.57-9.85,0-.76-.38-1.38-1.06-2.06-1.57-1.5-1.12-2.38-3.71-3.44-4.08-.41-.04-.7.91-.58,1.3,1.93,6.33,8.42,10.09,14.84,7.83.78-.28,1.54-.77,2.26-1.2,2.5-1.52,4.28-4.05,5.11-6.89Z"/>
  <path d="M100.11,45.16c-1.19,3.26-2.52,6.36-5.65,7.88s-7.2.31-9.28-2.75c-2.46-3.62-1.95-8.67,1.08-11.89.59-.63,1.36-.87,1.88-1.77-1.49-.21-2.69-.26-3.81-.93-2.63-1.57-4.07-4.09-4.09-7.18s1.41-5.55,4.1-6.97c3.09-1.63,6.18-.17,8.73,2.14-.58-4.92.33-9.02,5.1-10.8,2.68-1,6.02.33,7.62,2.66,1.51,2.21,1.95,4.93,1.35,7.68l3.04-1.81c1.66-.99,5-.71,7.12,1.13,3.78,3.29,3.48,9.36-.41,12.36-1.59,1.23-3.14,1.69-5.3,1.65,3.61,2.2,5.59,6.05,4.9,10.15-.46,2.72-2.08,4.94-4.5,6.22-2.04,1.09-4.48.93-6.56.05-.47-.6-1.16-.74-1.64-1.23-1.92-1.71-2.76-3.91-3.69-6.6ZM103.97,37.55c1.96-2.6,1.72-6.2-.74-8.26-1.76-1.48-3.97-1.42-5.74.09-2.1,1.79-2.52,4.98-1.12,7.38.68,1.17,1.63,2.08,3.04,2.16.82,1.14,3.98-.6,4.56-1.37Z"/>
  <path d="M110.09,180.06l-19.8-.05c-.45,1.49.5,4.61-1.91,5.03-1.72.3-3.5.38-5.2-.01-2.04-.47-1.75-3.11-1.87-4.92-1.15-.31-2.1-.97-2.37-2.22-.9-4.09-.29-8.37,1.2-12.29-.39-.38-.87-.1-1.16-.26-1.32-.72-1.72-2.19-1.33-3.64.4-1.53,2.11-2.58,3.59-1.95l2.43,1.04c.63-3.08,1.58-5.99,3.31-8.54.75-1.1,1.63-1.78,2.64-2.59s2.23-1.04,3.4-1.53c.5-.21.83-.43,1.39-.51,3.08-.44,9.17-.72,11.9.32,1.39.53,2.79.8,3.95,1.64,3.99,2.87,4.94,6.31,6.18,11.24,1.93-1.49,4.4-1.68,5.77.33.45.67.54,1.96.26,2.69-.38,1-1.31,1.46-2.44,1.7,1.27,2.63,3.33,14.13-1.02,14.41-.27,1.58.21,4.67-1.98,5.09-1.44.28-6.61.72-6.73-1.6-.26-1.03-.1-1.84-.2-3.38ZM112.42,161.29c-.39-2.16-.96-3.84-1.75-5.58-1.05-2.27-3.14-3.36-5.56-3.99l-1.98-.52c-2.76-.72-8.51.06-11.21,1.42-2.66,1.93-3.62,5.28-4.12,8.71,4.08-.77,7.87-.94,11.89-.94,4.3,0,8.41.14,12.74.9ZM88.38,173.17c1.63-.02,2.88-.84,3.28-2.23.36-1.25-.26-2.77-1.55-3.4-1.53-.75-3.65-.63-4.91.56-1.04.98-.86,2.53-.26,3.59.66,1.14,1.87,1.5,3.43,1.48ZM114.95,172.24c.87-.76,1.1-1.84.86-2.81-.17-.68-.71-1.53-1.54-1.92-1.91-.89-5.2-.58-5.71,2-.18.89.11,1.93.95,2.68,1.39,1.24,3.96,1.35,5.44.05Z"/>
  <path d="M167.04,56.43c-2.75,1.04-10.23.03-12.88-1.78-.94-.64-1.92-1.03-2.78-1.72-6.84-5.41-9.51-13.27-8.4-21.88.76-5.87,3.66-11.03,8.31-14.73,4.3-3.41,10.58-4.98,15.86-3.34,1.45.45,2.8.89,4.05,1.57,7.01,3.82,11.25,10.94,11.52,18.92.19,5.49-1.14,10.73-4.3,15.17-1.29,1.81-2.19,2.5-3.69,3.87-2.03,1.86-3.76,2.42-5.93,3.23l-1.76.67ZM173.69,47.41c.1-.9.4-1.68.37-2.46-.1-2.5-3.03-2.05-5.09-3.44-1.38-.93-1.7-2.78-1.53-4.34.21-1.9,1.45-3.58,3.38-3.97,1.58-.32,3.35-.22,4.78.5.13.07,3.76,2.45,4.05.76.17-.97-1.22-1.62-2.37-2.35-2.87-1.85-5.9.07-6.59-2.15-.34-1.12-.16-2.38.67-3.27l2.94-3.14c1.11-1.18.63-2.65-.39-3.76-.65-.71-1.49-1.15-2.3-1.86-1.6,3.12-.76,3.58-4.08,5.2-.8.39-1.54.82-2.38-.01-.26-.26-.69-.54-.92-.94-1.67-3.02-4.94-5.9-8.68-4.52.04.76.6,1.08,1.14,1.27.89.32,1.56.84,2.33,1.32,1,.63,1.85,1.19,2.46,2.29s.61,2.4-.08,3.57c-.48.82-1.36,1.64-2.58,1.85-4.41.76-2.67,5.63-4.62,6.38-.81-1.02-1.92-1.75-3.22-1.44-.69.16-.86,1.06-.54,1.66,1.93,3.65,4.71,2.04,7.42,3,1.03.36,2.1.51,3.02,1.12,1.02.68,1.57,1.87,2.54,2.59,1.1.82,2.5,1.31,3.2,2.56,1.04,1.85.14,3.78-1.32,5.11l-2.38,2.15c-.83.75-1.83,1.04-2.58,2.09,1.45.31,2.62.07,3.86.13.72.03,1.27-.33,1.9-.49,1.52-.38,3.06-.62,4.45-1.41.47-.27.88-.75,1.38-.95,1.28-.53,1.58-1.65,1.74-3.03ZM153.25,46.59c-1.23-1.24-1.85-2.99-1.67-4.7s-.75-2.86-2.04-4.01l-1.13-1c-.77-.68-1.71-1.03-2.62-1.71-.21,6.92,3.78,13.73,10.18,16.55.51-1.58-.37-2.78-1.35-3.76l-1.36-1.37Z"/>
  <path d="M105.77,119.67c-3.55,1.55-6.26,1.42-9.93.7l-3.1-1.53-1.59-1.21c-2.81-2.14-4.2-5.49-4.69-9-.99-7.13,2.67-13.7,6.18-19.72l6.42-11.03c.25-.43.55-.66.95-.67.48-.01.9.16,1.18.65l6.51,11.33c3.22,5.6,6.81,12.48,6.11,19.06-.53,5.02-3.42,9.41-8.04,11.43ZM95.01,108.82c-2.39-4.79-1.26-9.58-.35-14.58-3.52,3.48-4.86,8.23-4.39,12.76.3,1.48.7,2.96,1.84,3.89.7.57,1.7.53,2.27.16.72-.46.72-1.3.63-2.22Z"/>
  <path d="M164.44,179.28c-.34-.16-.91-1.13-1.39-.81l-2.88,1.89-2.52,1.57c-1.05.66-2.01,1.26-3.1,1.92-.89.54-1.84,1.49-2.97.62-.42-.33-.5-1.27-.4-1.89l1.99-11.64c.12-.72-.99-1.21-1.4-1.65l-7-7.61c-.59-.64-.94-2.04-.08-2.47,1.32-.67,2.92-.34,4.3-.78,1.72-.56,6.02-.57,8.16-.99l5.03-10.78c.23-.49.57-.85.95-.88,1.13-.11,1.73,1.58,2.19,2.63l3.94,9.04c2.36.43,4.93.38,6.98.92,2.62.7,6.28,0,5.66,2.25-.29,1.07-1.18,1.73-1.92,2.52l-5.94,6.34c-.31.33-1.14.7-1.07,1.27l2.18,12.33c.1.57-.14,1.22-.45,1.46-.44.34-1.31.27-1.82-.03l-3.08-1.84c-1.08-.65-4.44-2.93-5.37-3.37Z"/>
  <path d="M175.73,95.12c-.96,0-1.43.83-2.16,1.22-.98.51-1.66,1.14-2.47,1.87-7.83,7.02-5.89,15.86-7.03,17.04-.28.3-.82.3-1.27.31-.76.02-1.33-.46-1.31-1.29.12-4.61.61-9.16,1.74-13.62,1.06-4.16,3.45-7.44,6.87-9.9.98-.7,2-1.22,3.08-1.83,1.2-.68,2.54-1.02,3.86-1.57,2.67-1.11,5.67-1.33,8.58-1.53.47-.03.88.46.87.88-.23,7.07-1.85,15.51-7.53,20.23-2.2,1.83-2.7,1.92-5.39,3.07-2.28.97-4.95,1.12-7.48,1.16-.32,0-.3-.93-.2-1.21,1.35-3.89,3.54-7.41,6.18-10.53l3.65-4.31Z"/>
  <path d="M149.93,93.99l4.39,5.5c1.88,2.35,5.48,7.79,4.95,10.8-1.19.36-2.27-.18-3.36-.49-1.78-.51-3.55-.8-5.07-1.83-1.15-.78-2.21-1.45-3.23-2.44-4.94-4.81-6.72-12.52-6.98-19.24-.07-1.93,3.58-.91,4.47-.58,1.81.66,3.79.69,5.53,1.55,1.25.62,2.47,1.01,3.64,1.72,6.81,4.12,8.81,10.75,6.97,18.18-.58-.45-.79-.93-.99-1.5-1.65-4.67-5.53-9.64-10.32-11.68Z"/>
  <path d="M181.97,181.23c-.98-.11-3.15,3.15-4.52,2.57-.19-.08-.34-.42-.28-.75l.96-4.75-1.98-1.99c-.4-.4-1.4-.96-1.13-1.63.19-.47,3.8-1.19,4.59-1.16.6-.51,1.46-4.52,2.27-4.53.26,0,.59.17.72.49l1.61,3.99c.71.25,4.42.75,4.46,1.16.85.27-2.56,3.2-2.99,3.69.1,1.18,1.84,5.64.51,5.98-.46.12-.64-.12-.93-.46-.4-.47-.96-.71-1.46-1.14s-1.02-1.38-1.82-1.47Z"/>
  <path d="M31.92,17.64c1.88,2.2,4.05,7.56,2.53,7.94s-.63-3.71-4.15-6.55c-.64-.52-1.51-.79-1.69-1.74-.07-.37,0-.9.26-1.08.93-.65,2.58.87,3.05,1.42Z"/>
  <path d="M40.4,19.02c-3.19,2.85-2.47,6.77-3.75,6.62-1.61-.19.25-5.64,2.2-7.94.64-.76,1.98-2.08,2.93-1.6.34.17.53.76.43,1.17-.23.92-1.17,1.18-1.81,1.75Z"/>
</svg>