<svg xmlns="http://www.w3.org/2000/svg" height="40px" viewBox="0 -960 960 960" width="40px" fill="#fefae0"><path d="M480-50.67q-88.63 0-166.32-33.66Q236-118 176.67-177 117.33-236 84-314.01q-33.33-78.01-33.33-165.96 0-90.36 34.16-168.7Q119-727 178.45-784.99q59.46-57.99 138.93-91.5Q396.86-910 486.9-910q84.79 0 161.47 28.97 76.69 28.97 134.83 80.67 58.13 51.69 92.8 122.73 34.67 71.03 34.67 152.3 0 117.33-67.17 191.5-67.17 74.16-180.83 74.16H608q-13 0-21.5 9.34-8.5 9.33-8.5 22 0 14.33 9.33 23.16 9.34 8.84 9.34 31.84 0 42.66-36.04 82.66-36.03 40-80.63 40ZM299.17-464.33q15.83-16 15.83-38.34Q315-525 299.17-541q-15.84-16-38.34-16-22.5 0-38 16t-15.5 38.33q0 22.34 15.5 38.34 15.5 16 38 16t38.34-16Zm119.53-159.3q15.97-15.63 15.97-38.67 0-23.03-15.97-38.2-15.96-15.17-38.67-15.17-22.7 0-37.86 15.17Q327-685.33 327-662.3q0 23.04 15.17 38.67Q357.33-608 380.03-608q22.71 0 38.67-15.63Zm199 0q15.97-15.63 15.97-38.67 0-23.03-15.97-38.2-15.96-15.17-38.66-15.17-22.71 0-37.87 15.17Q526-685.33 526-662.3q0 23.04 15.17 38.67Q556.33-608 579.04-608q22.7 0 38.66-15.63Zm120.47 159.3q15.83-16 15.83-38.34Q754-525 738.17-541q-15.84-16-38.67-16-22.83 0-38 16-15.17 16-15.17 38.33 0 22.34 15.17 38.34 15.17 16 38 16t38.67-16Z"/></svg>