<?xml version="1.0" encoding="UTF-8"?>
<svg id="Capa_1" xmlns="http://www.w3.org/2000/svg" version="1.1" viewBox="0 0 200 200">
  <!-- Generator: Adobe Illustrator 30.2.1, SVG Export Plug-In . SVG Version: 2.1.1 Build 1)  -->
  <path d="M45.2,43.63l-4.03.06-.04,3.26-3.9.07v3.84s-6.11.04-6.11.04l-.05-3.88-4.18-.04-.05-3.29c-1.48-.1-2.86.15-4.22-.13.04-.99.1-1.96,0-2.99l-3.92-.14-.08-3.36-3.44-.09-.05-3.9c-1.16-.11-2.16.14-3.15-.15l.05-10.65,2.75-.03.17-3.5,3.39-.18.08-3.42h12.22s.1,3.53.1,3.53l2.88.05.23,2.21c.03.25.76.26.85.02.26-.65.05-1.36.23-2.1l2.33-.12.08-3.61,11.84-.02.06,3.7,3.55.1.16,3.48,3.08.05v10.54s-3.3.07-3.3.07l.04,3.82h-3.51s-.12,3.55-.12,3.55l-3.88-.02c-.21,1.02.03,1.95-.09,3.2ZM18.59,20.21v4.43h4.72v-4.43h-4.72Z"/>
  <path d="M178.62,112.75l-10.3-.02-.07-6.11,5.81-.03c.05-1.14.06-2.1-.02-3.32l-19.85-.02c-.05,1.15-.09,2.16.04,3.34l5.67.06-.06,6.1-10.45.02v-13.31c-1.01-.05-1.72-.04-2.6.05l-.03,7.49h-5.19s0-15.95,0-15.95l4.56-.07.05-3.77,3.68-.14c.03-.98-.12-1.91.04-2.88l3.8-.03c.23-.84.11-1.67.18-2.62l-4.39-.03v-5.13s6.53,0,6.53,0l.08,4.61,3.76.09c.02.98-.1,1.86.03,2.88h8.16c.24-.98.01-1.87.12-2.9l3.9-.1.09-4.62h6.45s.03,5.14.03,5.14l-4.34.08c-.16.8-.15,1.58.01,2.4l3.66.14.03,2.97,3.68.07.05,3.79,4.5.04.03,15.98-4.93-.03-.02-7.44c-.93-.05-1.72-.05-2.73,0l.02,13.28ZM173.57,93.69l-.03-4.21c-1.35-.02-2.57-.16-3.87.06l.05,4.17,3.85-.02ZM158.34,93.68l-.09-3.92h-3.94c-.11,1.33-.09,2.56-.01,3.95,1.43.04,2.63.1,4.04-.03Z"/>
  <path d="M121.12,112.44h-42.55s0-28.15,0-28.15l2.94-.09.09-3.13h36.59s.07,3.15.07,3.15l2.85.07v28.15ZM85.5,83.36v2.6h3.32v-2.6h-3.32ZM110.77,83.36l-.02,2.58,3.18.02.02-2.58-3.18-.02ZM114.05,86.65l-.04,5.84h-9.24s-.03-3.23-.03-3.23l-9.68.03-.1,3.22-9.31-.02-.07-5.85h-2.75s.02,8.23.02,8.23l12.14.02.05,5.42,9.7.04.06-5.43h12.13s-.02-8.25-.02-8.25c-1.01-.06-1.89-.1-2.86-.02ZM82.8,98.62l.11,9.75h34.02s0-10.02,0-10.02h-2.88s-.02,7.57-.02,7.57l-28.37.02-.06-7.4c-1.02-.14-1.87-.21-2.82.08Z"/>
  <path d="M186.19,173.15l-43.07.05-.15-2.23h-2.32s-.04-19.74-.04-19.74c.84-.04,1.56.1,2.36-.04.24-.77.03-1.5.19-2.33l42.96.07.1,2.18,2.4.14v19.21c-.77.17-1.45.01-2.32.1l-.1,2.59ZM154.33,165.83v-3.73s4.82-.04,4.82-.04c.16-1.19.09-2.29.07-3.5l-4.84-.05-.05-4.46c-1.12-.24-2.2,0-3.45-.14l-.12,4.43-4.84.06v3.71s4.77-.02,4.77-.02l.15,3.75,3.49-.02ZM183.35,159.05l-.06-4.68-4.65.06.04,4.66c1.6.05,3.08.18,4.67-.04ZM170.92,154.38v4.77h5.1v-4.77h-5.1ZM180.01,161.42h-4.87v4.44h4.87v-4.44ZM159.29,166.17v2.34s4.19,0,4.19,0v-2.34s-4.19,0-4.19,0ZM170.73,168.49c.04-.94.06-1.47-.03-2.26h-4.15c-.07.85-.06,1.48-.03,2.27h4.21Z"/>
  <path d="M47.86,179.79h-24.35c-.05-.44.11-.83-.08-1.27l-3.2-.06-.04-7.69-3.08-.1-.08-3.16-3.95-.04v-15.33s3.87-.05,3.87-.05l.14-3.82,3.85-.07.11-2.87c1.39-.25,2.78-.06,4.26-.09l.13-3.51h19.79s.09,3.47.09,3.47l4.51.06.19,2.95,4.01.03.1,3.68h3.72s-.02,15.52-.02,15.52l-3.91.02-.09,3.2-2.82.08-.04,7.67-2.98.1c-.17.42,0,.74-.11,1.28ZM37.92,154.77c.06-1.14-.11-1.89.08-2.72h2.54s.01-6.55.01-6.55l-10.39.06.04,6.52h2.59s.04,2.71.04,2.71h5.08ZM24.63,162.26c.39-.8-.04-1.64.15-2.35,1.01-.22,2.02,0,3.13-.07.06-1.47.11-2.85,0-4.29l-3.16-.04-.08-3.36h-2.86s-.09,2.57-.09,2.57l-3.26.05.07,5.23,3.22.07c.14.89-.12,1.59.14,2.42.9-.12,2.08.29,2.75-.22ZM49.1,162.36c.09-1.05-.08-1.61.08-2.31l3.36-.1v-4.74s-3.44-.03-3.44-.03l-.03-2.88c-1.06-.11-1.96-.06-2.98,0l-.09,3.08-3.1.13c-.06,1.55-.08,2.92.03,4.41l3.11.11.07,2.35c.98.1,1.91.16,2.99-.04ZM44.11,176.16l.04-2.07,4.17-.11-.07-8.21h-25.37s.02,8.22.02,8.22l4.16.04.21,2.17,16.84-.03Z"/>
  <path d="M103.92,178.11l-8.18.06-.1-3.45-3.45-.07-.07-3.1-3.2-.08c-.21-1.03-.02-2.07-.12-3.18-1.09-.22-2.12-.03-3.19-.12-.23-1.15-.04-2.24-.14-3.39l-3.01-.05-.08-3.54c-1.14-.07-2.13.1-3.21-.09l.03-7.92,3.43-.07.12-3.55,3.58-.16.07-3.45,26.97-.02c.08,1.19-.05,2.22.17,3.38l3.59.06.14,3.7,3.38.07.04,7.89-3.13.14-.07,3.5-3.21.08c-.05,1.2.08,2.3-.14,3.41-1.07-.06-2.12-.11-3.28.04l-.07,3.22-3.31.08-.13,3.17-3.29.04-.15,3.4ZM91.29,155.84l1.66-6.36-3.59.02-3.89,6.37,5.83-.03ZM104.34,155.86l-1.75-6.38-5.27.03-1.74,6.38,8.76-.03ZM114.2,155.8l-3.71-6.28c-1.32-.07-2.54-.12-3.78.05l1.83,6.31,5.67-.08ZM105.17,168.5l7.74-9.43-4.66.03-3.08,9.4ZM94.9,167.76l-3.43-8.63c-1.36-.11-2.63-.21-4.14.05l7.01,8.85c.12.16.22.24.34.28.12.04.27.04.38-.13.07-.11-.1-.25-.16-.42ZM103.83,159.1h-7.92s3.92,11.42,3.92,11.42l4-11.42Z"/>
  <path d="M37.21,107.95l-5.61-.1-.15,3.36-3.45.02-.12,4.59-11.22-.02v-5.9s3.53-.06,3.53-.06c.06-.99.04-1.87,0-2.92l-5.28-.07-.02-13.3,38.19-.04.04,13.34-5.04.05c-.11,1.04-.14,1.97.02,2.94l3.51.06v5.91s-11.01.02-11.01.02l-.1-4.58h-3.26c-.15-1.09-.03-1.83-.04-3.29ZM23.32,99.28h-5.06s0,4.55,0,4.55h5.06s0-4.55,0-4.55ZM45,99.26l-.02,4.57,4.79.02.02-4.57-4.79-.02Z"/>
  <path d="M106.36,53.61l-13.11.03.02-6.79,2.19-.08.03-3.47-9.09-.1v-6.58s5.66-.04,5.66-.04V14.98s2.93-.12,2.93-.12l.11-3.4,3-.1c.12-.97,0-1.84-.03-2.78,1.1-.2,2.18-.08,3.35-.09l.05,2.89,3.19.09.12,3.43,2.8.06.02,21.54,5.82.12v6.59s-9.14.02-9.14.02l.03,3.55,2.05.14v6.68ZM101.36,15.21h-3.03s.01,21.39.01,21.39h3.03s-.01-21.39-.01-21.39Z"/>
  <polygon points="157.71 30.9 163.47 30.82 163.53 27.35 168.03 27.26 168.03 21.34 157.23 21.32 157.18 28.17 147.07 28.18 147.1 16.89 151.19 16.85 151.27 12.71 174.64 12.7 174.69 16.77 178.82 16.86 178.87 31.01 174.69 31.08 174.63 35.54 168.46 35.58 168.44 40.12 157.69 40.12 157.71 30.9"/>
  <path d="M33.61,80.88c-1.4-.11-2.55-.07-3.87,0l-.02,10.67h-6.37s-.1-2.23-.1-2.23l-4.51-.06.02-12.89,3.91-.07.12-3.63h23.53s-.01,18.8-.01,18.8c-1.23.13-2.35.15-3.62.02l-.05-10.66-4.27.04-.04,6.17-4.65.02-.07-6.16Z"/>
  <rect x="157.65" y="43.01" width="10.66" height="8.61"/>
  <rect x="97.68" y="92.14" width="4.53" height="5.55"/>
  <rect x="28.9" y="168.1" width="5.54" height="3.66" transform="translate(-138.32 201.29) rotate(-89.9)"/>
  <rect x="37.92" y="167.17" width="3.74" height="5.53"/>
</svg>