<?xml version="1.0" encoding="UTF-8"?>
<svg id="Capa_1" xmlns="http://www.w3.org/2000/svg" version="1.1" viewBox="0 0 200 200">
  <!-- Generator: Adobe Illustrator 30.2.1, SVG Export Plug-In . SVG Version: 2.1.1 Build 1)  -->
  <path d="M180.23,97.98l-26.66-.04-3.03,7.3-4.35.02c-.91,0-1.65-.72-1.65-1.71l-.08-22.89c0-.97.62-1.94,1.68-1.94l40.87-.02c1.12,0,1.84.76,1.84,1.83l.02,23.07c0,2.53-3.72,1.44-5.67,1.63l-2.97-7.24ZM159.52,90.76c0-2.05-1.67-3.72-3.72-3.72s-3.72,1.67-3.72,3.72,1.67,3.72,3.72,3.72,3.72-1.67,3.72-3.72ZM180.9,90.75c0-2.05-1.66-3.71-3.71-3.71s-3.71,1.66-3.71,3.71,1.66,3.71,3.71,3.71,3.71-1.66,3.71-3.71ZM171.06,93.84c-.78-2.49-.4-4.36.49-6.36h-10.29c1.22,2.07,1.41,4.1.38,6.41l9.43-.05Z"/>
  <circle cx="94.38" cy="27.65" r="14.42"/>
  <path d="M96.05,108.17l-17.97-6.85c-.75-.29-1.23-.92-.98-1.76.78-2.71,1.68-5.37,2.79-7.97,1.16-2.73,4.15-2.39,6.48-1.52l9.97,3.71c.96.36,1.86-.04,2.41-.79,3.61-4.84,6.53-9.04,13.22-9.05,2.52,0,4.98.09,7.35,1.02.75.3,1.05,1.32.91,2.13l-1.59,9.29c-.09.5-.27.97-.63,1.17-1.72.94-8.22-3.05-10.97,2.27l-2.78,5.39c-.73,1.42-1.75,2.87-3.34,3.42s-3.25.19-4.88-.44Z"/>
  <path d="M177.28,175.97l-32.13-.02c-.28-.59.06-1.01.49-1.35,2.78-2.22,6.1-3.38,9.64-4.05.84-5.45,2.39-10.34,4.75-15.6-4.06,1.62-7.02,4.88-9.19,8.52-.1.17-.28.24-.39.22-.09-.02-.25-.1-.31-.27-1.35-3.96.35-7.64,3.97-10.04-3.69.47-6.67,1.96-9.99,2.85-.24.07-.48.18-.61.12-.76-.37.81-5.02,5.44-7.37,2.22-1.13,4.56-1.18,7.09-1.45-2.57-1.44-5.02-2.17-7.74-2.98,3.54-3.57,9.35-4.5,12.78-.33.76.93,1.26,1.93,1.88,3.13,2.14-1.61,4.39-2.78,7.08-2.65,3.64.18,6.72,2.49,8.18,5.76.09.21.08.46.06.58-.11.64-7.82-1.01-9.05-.41,4.19,2,6.36,5.95,6.1,10.29-.02.32-.4.44-.57.45-.25.02-.51-.04-.77-.23-2.82-2.7-5.98-4.93-9.8-6.39-1.05,5.19-1.68,10.15-2.03,15.24,4.77.01,9.18,1.18,13.21,3.3.87.58,1.71,1.03,2.33,1.85.09.17.15.33.12.44-.05.2-.19.39-.53.39Z"/>
  <path d="M49.16,154.72c-1.94.89-3.61,1.93-5.39,3.07-.74,4.24-1.44,10.31-6.63,11.36-4.46.91-8.74-1.3-11.01-5.21-.3-.52-1.01-1.51-1.61-1.23-1.03.48-1.44,6.55-7.82,5.93-2.67-.26-4.87-1.58-6.14-3.96-.63-1.19-3.12-6.63-2.57-7.94l17.97-5.67c1-.32,2.12.35,2.51,1.02.45.78.4,1.91-.35,2.51-.82.65-1.5-.15-2.28-.41-1.4-.47-2.18,2.31-7.65,2.62l-3.93.23c4,.73,8.04.62,12.2.38,7.77-.45,14.94-3.14,22.28-5.52,1.08-.35,2.1-.42,3.07.15.79.47,1.41,1.32,1.64,2.38.2.93-.11,1.74-1,2.05-1.99.69-1.93-2.39-3.3-1.77Z"/>
  <path d="M46.85,35.66H12.61c-.48-.46-.24-.89.11-1.35L29.27,12.5c.2-.26.44-.37.63-.39.26-.03.6.06.84.38l16.73,21.86c.2.27.26.57.22.74-.05.28-.28.58-.85.58Z"/>
  <path d="M176.56,37.91c-.43.12-.77.08-1-.04-.2-.1-.3-.46-.39-.81l-2.41-9.7-7.09,1.99c-.41.11-.91.09-1.03-.36l-1.74-6.21-7.71,3.67c-.44.21-.75-.2-.87-.63-.59-2-1.25-3.86-1.72-6l13.41-7.47c.31-.17.63-.25.91-.15s.39.51.48.87l2.13,8.41,8.1-3.51c.26-.11.56-.08.77,0,.19.06.39.34.47.66l2.29,9.19,5.48-1.48c.3-.08.72.01.8.33l1.79,7.68-12.66,3.55Z"/>
  <path d="M171.1,42.57l-27.16.03c-.38-4.05,1.23-7.95,3.92-10.56,3.02-2.92,6.87-4.09,11.12-3.57,6.84.92,12.07,6.85,12.12,14.1Z"/>
  <path d="M98.2,176.13l-14.42-6.39c-.57-.25-.9-.65-.9-1.27v-15.26c-.01-.29.08-.56.26-.67.13-.08.35-.06.61.05l14.03,6.05c.65.28,1.06.73,1.07,1.45l.15,15.44c0,.2-.08.38-.11.46-.04.12-.35.3-.69.15Z"/>
  <path d="M101.98,176.07c-.3.15-.68.09-.8.05s-.17-.35-.17-.59v-15.47c-.01-.82.43-1.38,1.14-1.71l13.25-6.15c.22-.1.5,0,.63.04.11.04.21.27.21.53l.11,15.48c0,.56-.16.94-.67,1.19l-13.7,6.65Z"/>
  <path d="M101.38,156.72c-.58.27-1.43.72-2.01.46l-15.14-6.62,14.59-7.23c.66-.35,1.31-.4,1.99-.06l14.47,6.92-13.9,6.52Z"/>
  <path d="M180.46,106.12l-27.45.04c-.31,0-.56-.05-.67-.2-.46-.58,1.96-5.6,2.46-6.72h24.16c.52,1.36,2.69,5.74,2.33,6.54-.08.18-.34.34-.82.34Z"/>
  <path d="M32.25,43.06c-1.44-1.11-3.12-1.24-4.53-.09-2.4,1.95-5.51,2.05-8.04.15-1.39-1.05-2.85-1.18-4.27-.08-2.49,1.93-6.2,1.92-6.61.07-.14-.62,0-1.82.82-1.76,1.55.12,2.75-.05,3.96-.99,2.43-1.88,5.51-1.67,7.92.15,1.34,1.01,2.82.98,4.13-.03,2.54-1.96,5.74-1.95,8.29,0,1.35,1.03,2.99,1.07,4.34.01,2.48-1.94,5.59-1.98,8.09-.06,2.92,2.23,4.41-1.29,5.87.4.5.58.58,1.64-.08,2.29-1.68,1.65-4.39,1.68-6.43.54-2.5-1.39-2.93-2.38-5.59-.52-2.48,1.74-5.39,1.82-7.87-.09Z"/>
  <path d="M190.71,174.01c-.29.92-11.28-.67-12.85-1.09l-3.41-.91c-.04-.69.28-1.11.6-1.63l6.2-9.91c.2-.32.51-.41.79-.39.25.02.55.16.75.48l7.88,12.61c.15.25.09.66.03.85Z"/>
  <circle cx="88.93" cy="79.91" r="5.86"/>
  <circle cx="22.86" cy="93.45" r="5.12"/>
  <polygon points="43.85 105.29 35.3 104.2 36.75 96.43 45.09 97.55 43.85 105.29"/>
  <path d="M45.83,88.78c-3.95.13-7.58.2-11.45,0l5.86-9.81c2.02,3.3,3.88,6.37,5.59,9.81Z"/>
  <path d="M122.25,16.83l-7.29,2.52c-.26.09-.49.13-.62.04-.64-.44.46-6.84.68-8.14.07-.4.57-.62.94-.37,2.3,1.58,4.44,3.27,6.55,5.09.29.25.12.74-.26.87Z"/>
  <rect x="43.48" y="75.67" width="5.93" height="5.88" transform="translate(-.13 .08) rotate(-.09)"/>
  <path d="M49.25,96.24c-1.83.24-3.62.06-5.64.09-.23-2.06-.09-4.02-.11-6.14h5.7s.04,6.05.04,6.05Z"/>
  <rect x="29.23" y="75.66" width="5.64" height="5.89"/>
  <path d="M42.21,95.69l-6.01-.74c-.11-1.62-.08-3.08,0-4.74l6.03.04v5.45Z"/>
  <path d="M32.65,88.73c-1.18.25-2.17.17-3.38.03v-6.12s6.8.07,6.8.07l-3.42,6.02Z"/>
  <polygon points="34.84 96.31 29.72 96.34 29.64 90.2 34.82 90.19 34.84 96.31"/>
  <rect x="16.95" y="75.68" width="5.08" height="5.87" transform="translate(-.13 .03) rotate(-.09)"/>
  <polygon points="15.9 96.29 11.23 96.33 11.23 90.16 15.88 90.19 15.9 96.29"/>
  <polygon points="15.8 88.83 11.26 88.96 11.22 82.7 15.74 82.64 15.8 88.83"/>
  <rect x="23.14" y="75.68" width="4.87" height="5.87"/>
  <rect x="11.19" y="75.68" width="4.61" height="5.87" transform="translate(-.13 .02) rotate(-.09)"/>
  <path d="M33.96,102.9l-4.34.02.14-5.4c1.72-.09,3.35-.08,5.05.03l-.85,5.36Z"/>
  <path d="M22.06,86.91c-1.49.21-2.86.72-3.89,1.8-.19.2-1.09.41-1.12.13-.21-2.1-.06-4.07-.07-6.15h5s.08,4.22.08,4.22Z"/>
  <path d="M16.04,102.82l-4.71.1-.08-5.42c1.63-.08,3.12-.09,4.72,0l.07,5.31Z"/>
  <path d="M117.32,24.66c-.61.98-1.51,1.56-2.59,1.99-1.81-2.61-3.31-5.24-4.77-8.01-.19-.35-.14-.85.17-1.02.24-.14.75-.09,1.08.22,2.21,2.06,4.06,4.35,6.11,6.81Z"/>
  <path d="M34.87,108.91l-5.13.04-.02-4.88h4.29c.57,1.56.82,3.13.86,4.84Z"/>
  <polygon points="22.29 108.9 17.42 108.97 17.41 104.05 22.24 104.07 22.29 108.9"/>
  <polygon points="28.43 108.94 23.57 108.94 23.54 104.06 28.39 104.04 28.43 108.94"/>
  <path d="M27.86,89.09c-1.55-1.24-2.89-2.02-4.66-2.23-.08-1.47-.1-2.75,0-4.17l4.78-.02c-.06,2.17.19,4.19-.13,6.42Z"/>
  <path d="M41,78.02c-.47-.7-1.59-.33-2,.4l-1.6,2.84c-.2.36-1.13.49-1.18,0-.2-1.84-.05-3.59-.03-5.55h6.02s.06,4.19.06,4.19l-1.27-1.88Z"/>
  <rect x="11.31" y="104.02" width="4.75" height="4.96" transform="translate(-.42 .05) rotate(-.23)"/>
  <path d="M49.33,88.57c-.05.49-1.6.52-1.85.1-1.18-1.97-2.14-3.88-3.2-5.94l5.13-.06c-.07,1.97.15,3.78-.08,5.9Z"/>
  <path d="M44.24,108.98c-.33-4.17.57-.39,1.38-4.87,1.18-.06,2.31-.09,3.57,0v4.82s-4.96.05-4.96.05Z"/>
  <path d="M114.26,79.95c-.29.8-2.18.29-2.06-.43.44-2.5,1.26-4.93,2.35-7.25.29-.62,2.33.18,2.19.83-.54,2.39-1.62,4.44-2.48,6.85Z"/>
  <path d="M23.41,102.92c.29-1.12,0-1.96.11-2.93,1.71-.34,3.25-1.05,4.36-2.45.93-1.37.46,5.19.5,5.32l-4.97.05Z"/>
  <path d="M22.22,102.89l-4.89-.02.04-5.73c1.33,1.63,2.81,2.6,4.82,2.84.12.96.06,1.77.03,2.91Z"/>
  <path d="M42.83,108.95h-6.58s-.23-3.24-.23-3.24l6.74.74c.18.79.1,1.53.06,2.5Z"/>
  <path d="M49.23,102.88c-1.16.08-2.16.07-3.27.03l.69-5.38c.89-.1,1.65-.09,2.55,0l.03,5.35Z"/>
  <path d="M109.44,79.75c-.08.78-.57,1.04-1.04,1.07-.63.04-1.21-.27-1.11-1.06.23-1.88.24-3.78.78-5.62.16-.56,2.08-.23,2.12.37.1,1.68-.57,3.48-.75,5.24Z"/>
  <path d="M122.32,77.19c-.45.79-3.31,4.49-4.35,4.25-.4-.09-1.37-.6-.99-1.2,1.01-1.57,2.24-3.04,3.62-4.3.57-.52,2.08.61,1.73,1.24Z"/>
  <circle cx="155.81" cy="90.73" r="2.31"/>
  <circle cx="177.18" cy="90.73" r="2.31"/>
</svg>