<?xml version="1.0" encoding="UTF-8"?>
<svg id="Capa_1" xmlns="http://www.w3.org/2000/svg" version="1.1" xmlns:inkscape="http://www.inkscape.org/namespaces/inkscape" xmlns:sodipodi="http://sodipodi.sourceforge.net/DTD/sodipodi-0.dtd" xmlns:svg="http://www.w3.org/2000/svg" viewBox="0 0 388.29 186.55">
  <!-- Generator: Adobe Illustrator 30.2.1, SVG Export Plug-In . SVG Version: 2.1.1 Build 1)  -->
  <defs>
    <style>
      .st0 {
        fill: #1d1819;
      }

      .st1 {
        fill: #181818;
      }

      .st2 {
        fill: #12131b;
      }

      .st3 {
        fill: #077dec;
      }

      .st4 {
        fill: #1a1918;
      }

      .st5 {
        fill: #111a1f;
      }

      .st6 {
        fill: #14161d;
      }

      .st7 {
        fill: #bf8fde;
      }

      .st8 {
        fill: #181715;
      }

      .st9 {
        fill: #151616;
      }

      .st10 {
        fill: #1a1a19;
      }

      .st11 {
        fill: #bb8cdf;
      }

      .st12 {
        fill: #131718;
      }

      .st13 {
        fill: #141718;
      }

      .st14 {
        fill: #84b5ea;
      }

      .st15 {
        fill: #181816;
      }

      .st16 {
        fill: #dba4e8;
      }

      .st17 {
        fill: #17191a;
      }

      .st18 {
        fill: #171716;
      }

      .st19 {
        fill: #141819;
      }

      .st20 {
        fill: #161617;
      }

      .st21 {
        fill: #1a1817;
      }

      .st22 {
        fill: #6c6b69;
      }

      .st23 {
        fill: #1a161b;
      }

      .st24 {
        fill: #1a1818;
      }

      .st25 {
        fill: #15191b;
      }

      .st26 {
        fill: #161b1d;
      }

      .st27 {
        fill: #fd91ad;
      }

      .st28 {
        fill: #141412;
      }

      .st29 {
        fill: #171616;
      }

      .st30 {
        fill: #8adeb4;
      }

      .st31 {
        fill: #16191a;
      }

      .st32 {
        fill: #151b1f;
      }

      .st33 {
        fill: #13171b;
      }

      .st34 {
        fill: #fdd72b;
      }

      .st35 {
        fill: #191a18;
      }

      .st36 {
        fill: #00a3f9;
      }

      .st37 {
        fill: #15191a;
      }

      .st38 {
        fill: #f82630;
      }

      .st39 {
        fill: #16191b;
      }

      .st40 {
        fill: #01a5f9;
      }

      .st41 {
        fill: #38362e;
      }

      .st42 {
        fill: #fed82b;
      }

      .st43 {
        fill: #161a1b;
      }

      .st44 {
        fill: #bf91df;
      }

      .st45 {
        fill: #00a2f8;
      }

      .st46 {
        fill: #161716;
      }

      .st47 {
        fill: #fd97b2;
      }

      .st48 {
        fill: #171615;
      }

      .st49 {
        fill: #0475ec;
      }

      .st50 {
        fill: #1b1618;
      }

      .st51 {
        fill: #1f1719;
      }

      .st52 {
        fill: #171717;
      }

      .st53 {
        fill: #1a1b18;
      }

      .st54 {
        fill: #f6232e;
      }

      .st55 {
        fill: #14191b;
      }

      .st56 {
        fill: #191717;
      }

      .st57 {
        fill: #161413;
      }

      .st58 {
        fill: #f8242c;
      }

      .st59 {
        fill: #be90df;
      }

      .st60 {
        fill: #fdd52f;
      }

      .st61 {
        fill: #18191c;
      }

      .st62 {
        fill: #181817;
      }

      .st63 {
        fill: #151617;
      }

      .st64 {
        fill: #141717;
      }

      .st65 {
        fill: #151718;
      }

      .st66 {
        fill: #0091f3;
      }

      .st67 {
        fill: #016ee4;
      }

      .st68 {
        fill: #1d1918;
      }

      .st69 {
        fill: #111c24;
      }

      .st70 {
        fill: #634f68;
      }

      .st71 {
        fill: #fdd433;
      }

      .st72 {
        fill: #161718;
      }

      .st73 {
        fill: #181819;
      }

      .st74 {
        fill: #01a7f8;
      }

      .st75 {
        fill: #17191d;
      }

      .st76 {
        fill: #15171a;
      }

      .st77 {
        fill: #131415;
      }

      .st78 {
        fill: #00aef8;
      }

      .st79 {
        fill: #15181a;
      }

      .st80 {
        fill: #fe90ae;
      }

      .st81 {
        fill: #181718;
      }

      .st82 {
        fill: #03cad3;
      }

      .st83 {
        fill: #00a1f8;
      }

      .st84 {
        fill: #a7ead5;
      }

      .st85 {
        fill: #0e0f0e;
      }

      .st86 {
        fill: #181916;
      }

      .st87 {
        fill: #06b8f2;
      }

      .st88 {
        fill: #f92630;
      }

      .st89 {
        fill: #f7242d;
      }

      .st90 {
        fill: #151819;
      }

      .st91 {
        fill: #181717;
      }

      .st92 {
        fill: #131a1a;
      }

      .st93 {
        fill: #14181a;
      }

      .st94 {
        fill: #171819;
      }

      .st95 {
        fill: #00aef9;
      }

      .st96 {
        fill: #131617;
      }

      .st97 {
        fill: #191818;
      }

      .st98 {
        fill: #f8252d;
      }

      .st99 {
        fill: #fdd72c;
      }

      .st100 {
        fill: #0f161b;
      }

      .st101 {
        fill: #191919;
      }

      .st102 {
        fill: #be92e0;
      }

      .st103 {
        fill: #1a1717;
      }

      .st104 {
        fill: #f86272;
      }

      .st105 {
        fill: #161a19;
      }

      .st106 {
        fill: #191817;
      }

      .st107 {
        fill: #151a1b;
      }

      .st108 {
        fill: #0092f3;
      }

      .st109 {
        fill: #151719;
      }

      .st110 {
        fill: #171718;
      }

      .st111 {
        fill: #66aceb;
      }

      .st112 {
        fill: #695556;
      }

      .st113 {
        fill: #00a4f9;
      }

      .st114 {
        fill: #8addb3;
      }

      .st115 {
        fill: #fdd62f;
      }

      .st116 {
        fill: #161717;
      }

      .st117 {
        fill: #141b1e;
      }

      .st118 {
        fill: #fd93b1;
      }

      .st119 {
        fill: #fed72c;
      }

      .st120 {
        fill: #1d1718;
      }

      .st121 {
        fill: #4859be;
      }

      .st122 {
        fill: #03b0f8;
      }

      .st123 {
        fill: #c292e2;
      }

      .st124 {
        fill: #7d7c7a;
      }

      .st125 {
        fill: #191918;
      }

      .st126 {
        fill: #686464;
      }

      .st127 {
        fill: #181917;
      }

      .st128 {
        fill: #8e856f;
      }

      .st129 {
        fill: #191a1e;
      }

      .st130 {
        fill: #16171b;
      }

      .st131 {
        fill: #fe94b5;
      }

      .st132 {
        fill: #f72630;
      }

      .st133 {
        fill: #161615;
      }

      .st134 {
        fill: #171719;
      }

      .st135 {
        fill: #f9252f;
      }

      .st136 {
        fill: #161919;
      }

      .st137 {
        fill: #008cf2;
      }

      .st138 {
        fill: #f61e29;
      }

      .st139 {
        fill: #fa232e;
      }

      .st140 {
        fill: #141a19;
      }

      .st141 {
        fill: #171617;
      }

      .st142 {
        fill: #0288f0;
      }

      .st143 {
        fill: #161715;
      }

      .st144 {
        fill: #8cd1f4;
      }

      .st145 {
        fill: #0090f2;
      }

      .st146 {
        fill: #008ff2;
      }

      .st147 {
        fill: #151818;
      }

      .st148 {
        fill: #0091f2;
      }

      .st149 {
        fill: #181a18;
      }

      .st150 {
        fill: #302e7f;
      }

      .st151 {
        fill: #fdd62e;
      }

      .st152 {
        fill: #1a191e;
      }

      .st153 {
        fill: #17181a;
      }

      .st154 {
        fill: #016de1;
      }

      .st155 {
        fill: #151516;
      }

      .st156 {
        fill: #161616;
      }

      .st157 {
        fill: #00aff9;
      }

      .st158 {
        fill: #1a171a;
      }

      .st159 {
        fill: #89deb3;
      }

      .st160 {
        fill: #151716;
      }
    </style>
  </defs>
  <path class="st94" d="M151.2,97.46l.7.5c6.08,42.8,76.57,42.64,82.9.49.2-.74.56-.96,1.09-.68l.41-.48,23.02,6.54.47-4.01.61-.35c.02-.23.09-.57.25-.58,5.49-.35,11.45-.26,16.96-.16.43.09.45.43.25.84.12,3.22-.2,6.54-.94,9.95l-.99,4.24-.7.64c-.27,1.68-.63,3.35-1.16,5.15l16.19,7.09,5.75,2.58c.82.37,1.55.85,2.21,1.27-.33.59-1.06.64-2.21.16-1.09.11-1.78-.12-2.08-.71-.92.77-3.13.6-3.47-.61-1.78-.23-3.58-.44-5.39-.64l-.35-.53c-.81.83-3.12.15-3.45-.86l-.59.45-3.33-.92-.39-.61-1.3.36c-1.14-.36-2.27-.68-3.38-.96l-3.73,7.65c-.47.73-1.02,1.33-1.64,1.81l.33.59c-3.14,5.01-6.97,9.67-11.11,13.93.54-.08.88.15,1.03.7.8-.7,3.2-.18,3.46.9l.87-.28c1.33.63,2.71,1.03,4.15,1.2.01.5.26.57.69.56.68-.54,2.43-.15,2.56.81l.95-.19,3.86,1.14.67.74c1.23.27,2.64.24,3.78.88l.68-.28,4.54,1.33.2.65c1.22.34,2.57.38,3.76.85,1.76-.25,4.15.48,5.43,1.73,1.22.33,2.58.2,3.75.87.28-.2.6-.21.92-.18.46.04,3.97.99,4.45,1.19l.35.7c1.14.36,2.61.09,3.71.6,1.79-.15,4.49.72,5.77,1.99.18-.34.46-.38.79-.4,1.19-.08,3.55.78,4.71,1.23l.29-2.27.63-.26c.32-.86,2.92-.36,3.02.54l.82-.08c14.55,2.9,28.94,5.99,43.17,9.27.77-.29,1.93-.33,1.96.86-.73.69-.32,2.24-1.01,3.05-.85,1-2.78.22-3.95,0l-7.59-1.36c-5.74-1.03-11.33-2.1-17.14-2.98l-8.21-1.25-5.69-.98c-2.45-.42-4.83-1.07-7.2-1.21-.62,2.79-.62,5.39-1.39,7.9l-.66,2.13c-1.89-1.15-3.86-1.49-5.87-2.29l-20.29-8.08c-2.02-.8-3.78-1.8-5.87-2.49-.62-.04-1.17,1.18-1.57,1.74l-2.91,4.08c-2.53-.65-5.01-2.8-7.3-3.37-1.3,3.89-2.55,5.24-4.02,8.99-2.87-.89-5.42-1.68-8.21-2.38-.53-.13-1.6-.04-1.63-.71l.9-1.01c8.17-3.85,16.23-7.89,24.17-12.14,1.49-.16,1.57-.2.26-.11-7.38-2.72-14.67-4.94-21.87-6.67l-.93,6.69c-.29.7-.71,1.16-1.36.58-1.54-1.11-3.31-1.91-5.09-2.89l-8.51-4.64c-1.04-.57-1.33-.41-2.23.2-1.74,1.18-3.7,2.25-5.66,3.18l-5.26,2.5c-2.07.98-4.3,1.42-6.44,2.26-1.75.68-3.39,1.23-5.26,1.63l-9.37,2.02-10.58,1.21c-1.76.2-3.45.03-5.1.09-1.04.26-2.12.27-3.15-.03-.71-1.21.02-2.73-.43-4.15-1.25-.36-2.56,0-3.82-.19l-6.04-.94-5.16-.87c-10.33-1.74-19.95-5.81-29.35-10.42l-1.37,1.7c.31-.39-3.75,6.58-4.82,7.02-.59.24-1.14-.33-1.6-.48-.27-.35-.42-.71-.17-1.07l5.68-10.7c.41-.71.86-1.43,1.71-.91l1-.19c10.84,4.47,22.39,8.15,34,9.08l.33.61,1.35-.44c1.6.2,11.03.76,11.28.25v-10.85s-11.77-.83-11.77-.83l-.35-.59-.58-.25-.1-5.5c-8.08-2.5-15.97-5.65-22.51-11.38l.03-.75c-.17.14-.45.34-.57.25-2.87-2.24-5.79-5.62-7.78-8.68-1.87,1.17-3.76,2.16-5.68,2.97l-.14-.39-.94.18c-9.08-4.42-18.18-8.75-27.3-13.01-7.02,1.1-14.04,2.39-21.06,3.87-1.15.34-1.93.18-2.33-.49-1.26-.14-2.5.22-3.86.49l-10.54,2.11-9.96,2.08-13.35,2.71-18.33,3.52-7.53,1.52c-.99.2-2.03.25-3.05.21l-1.5-4.88.86-.51c27.07-5.47,53.92-10.82,80.55-16.03l.51.49.33-.56c2.26-.46,4.52-.86,6.81-1.2l.5.5c.51-.71.9-.26,1.31.35l1.16,1.86c1.33-.8,2.64-1.68,3.9-2.64l.8.21,1.23.03c8.12,3.88,16.22,7.67,24.3,11.39-4.45-6.61-9.08-13.11-13.88-19.52l.4-.54c-1.7-.4,1.41-3.15,2.28-2.53l.66-.13c4.52,5.79,9.24,11.41,14.14,16.86-.06-2.74.01-5.48.22-8.23l.63-1.04Z"/>
  <path class="st131" d="M327.23,55.01l.35.56c-.31,1.11-.51,2.26-.59,3.43l-.65.23c-.47,1.65-1.36,3.42-2.32,4.81l-1.52-.15-50.17-23.05-.91-1.05-.59.31c-.9-.9-1.71-1.88-2.44-2.95-.83.45-1.43.45-1.79,0l-1.28.06c-6.11-2.67-12.19-5.42-18.22-8.26l-.21-.7c.35-.91.96-1.44,1.59-2.29,1.51-2.03,2.79-4.03,4.94-5.75,1.37-1.09,2.53-2.4,4.08-3.37,2-1.25,3.96-2.6,6.11-3.57,5.15-2.31,10.34-3.61,15.93-4.05s13.62.36,19.04,2.31,10.43,4.41,14.75,8.18c.67.59,1.4,1.16,1.99,1.78,1.01,1.07,4.62,5.21,5.2,6.22l2.72,4.76c.9,1.57,1.11,3.38,1.93,5,2.26,4.46,2.08,12.69,2.06,17.51Z"/>
  <path class="st114" d="M92.57,52.96c.4-.16.83-.31,1.27-.25,1.78.23,4.53.75,6.26,1.22.43.12.76.45,1.06.75,2.38-.52,5.43.15,7.47,1.48.07-.22.21-.54.37-.51,6.82,1.08,14.44,2.68,21.29,4.24.24.05.46.18.69.32s.45.32.66.51c.05-.86,1.44-.57,1.45.25.3-.45.78-.45,1.41,0l20.42,3.96.23.63,1.18-.32,7.47,1.71.28.65.32.66c-4.43,3.52-7.71,8-10.1,13.06l-.66.12-.48.61-22.02,1.62c1.2,1.96,2.71,3.85,4.54,5.65l-.13.68-1.71,1.35c-.41.32-.79.7-.57,1.18l.02.6c-3.82,2.62-7.6,5.32-11.32,8.1l-.74-.07c-1.61.85-2.91,2.19-4.66,3.23-1.03-.57-1.59-2.95-2.52-3-.8-.4-1.44-1.13-1.9-2.2-1.5-1.69-2.57-3.52-3.21-5.5l-.75-.31c-1.96-3.26-4.02-6.47-6.18-9.63l.06-.92c-.3.24-.46.12-.29-.24-.84-.92-1.52-1.99-2.05-3.21-.68.02-1.12-.6-.57-1.15-.89-1.08-1.66-2.33-2.3-3.73-.76.11-1.6-1.23-1.43-1.98-.46-.51-.4-1.45-.87-2.04-1.31-1.63-2.14-3.38-3.06-5.27-.26-.53-.78-.83-.96-1.33l-.93-.65-6.19-11.53c.1-.88,1.71-1.49,2.21-.7,2.12.25,4.21.65,6.27,1.19l.68.78Z"/>
  <path class="st18" d="M104.54,18.23c.15.08.08.17-.22.27l.61.25.53,4.27h2.95s-.64-3.5-.64-3.5l.57-.45c-.38-.41-.21-.57.33-.53.33.11.77-.13,1.11-.04.7.07,1.1.62,1.2,1.63,1.32,6.17,2.51,12.38,3.55,18.63l.59,1.5,25.1-11.43.56.38c2.06,1.69,4.27,3.23,6.49,4.96l2.55,1.99c1.36,1.06,3.98,3.01,5.18,4.06l2.13,1.87c.14.7-.29,1.22-1.3,1.57l-4.65,1.99-.69-.25-.81.16c-4.5-3.12-9.27-5.81-14.31-8.04-.97-1.11-8.34,1.03-8.63,1.4l.57,4.09c0,.6-.25.84-.87.77l-.25.57-4.54.03c.21,1.47.49,2.89.85,4.28l5.25.05.4.58c.15,0,.31,0,.46.02.11.02.21.06.28.12.46.41,3.02,9.47,3.12,10.25l-.37,1.05c-2.67-.47-5.31-1.05-8.12-1.61l-14.89-2.94-.65-.38-.9-4.77c-.25-.17-5.88-.16-6.17-.06-.33.11.52,2.82.68,3.18l-.43.55c-2.88-.47-5.78-.91-8.59-1.72-.69-.34-.88-.66-.88-1.42-2.05.05-4.05-.12-6.07-.55-.45,0-.95.51-1.79.36,1.11,1.78,6.33,11.45,6.7,12.52-2.81-.85-5.74-1.17-8.69-1.7-5.86-1.04-9.06-2.04-15.16-2.85-1.09-.15-1.67-.58-1.79-1.75-.23-2.32-.8-4.53-.82-6.79,2.4.34,4.7.11,6.85.13-1.17-3.23-.53-3.83-1.54-6.15-.52-.61-1.76.22-2.43.13-1.63-.23-3.07-.48-4.79-.05l-1.53-9.12.81,2.03,6.93-.02c.08-2.63-1.1-2.94-1.18-6.62-2.58.13-5.04-.2-7.58.21l-1.31-7.38h8.02s1.41,7.1,1.41,7.1c2.35-.25,4.44-.42,6.66.15.37-3.35-.72-3.63-.54-6.95l-7.1-.08-1.21-5.05-.55-2.03-7.73-.09-1.72-8.84,9.04,1.99.77,5.12c.07.48.58.84.57,1.5h6.74s-1.01-5.24-1.01-5.24c3.99,1.22,7.01,1.27,10.28,2.24-.68.35-1.23-.08-1.68.25.31.84.19,2.38,1.12,2.65l6.3.13-.62-2.14c2.47.51,4.71,1.03,7.16,1.37s4.53,1.43,6.93,1.53c1.25.05,2.35.52,3.38.66ZM81.4,23.93c-.33-4.04-1.12-3.26-1.24-6.86h-6.85c-.09,2.46,1.04,4.23.86,6.9l7.24-.04ZM96.24,21.52l-.92-4.41c-4.13.57-2.9-.4-6.9.05-.65.46.08,1.85.22,2.56l.88,4.25,7.32-.02c-.13-.85-.41-1.54-.6-2.44ZM88.59,24.2l-7.06.12c.27,2.36.57,4.3,1.09,6.45l7.03.08c.12-.76-.68-6.31-1.06-6.65ZM104.66,27.37c-.19-1.1-.04-2.2-.52-3.16l-7.35.04.95,6.3h7.47s-.55-3.18-.55-3.18ZM107.1,43.58c-1.1,0-.92-4.98-1.39-6.12l-7.39-.02-.91-6.53c-2.69-.28-4.69.39-7.37.29.94,2.32.09,5.76,1.72,5.92,2.02.21,4.17-.22,6.16.17.88.36.44,2.02.72,2.68.56,1.32.88,2.47.89,4.01,2.45.04,5.46.36,7.58-.41ZM112.35,37.19c-.13-2.81-.91-2.98-1.25-6.35l-5.71.09.75,6.34c1.5-.3,2.61-.1,3.84-.19.84-.06,1.56-.49,2.38.11ZM83.13,37.4l-.74-6.21-7.39-.07c.22,3.14,1.15,2.91,1.21,6.33l6.92-.05ZM90.33,37.59c-.97.57-5.52.55-6.44.05.04,2.33.46,4.28.81,6.41h7.28c-.67-2.91.04-3.76-1.64-6.46ZM84.51,44.64l-7.59-.16-1.09-6.45h-7.08s1.14,6.56,1.14,6.56l7.29.11,1,5.95c2.92.32,4.82-.57,6.85.1.25-2.36-.75-3.72-.53-6.11ZM115.54,43.32c1.88.37,3.25.04,4.84.17.03-.76.14-1.18-.06-2.08-.98.75-3.7,1.75-4.78,1.9ZM113.63,43.84l-6.48-.08.85,5.95,6.96.03c-.53-3.27-.82-2.5-1.32-5.9ZM100.1,50.34l-.78-5.95c-2.44.37-4.65.43-7.1-.06.06,2.2.37,4.09.83,6.05l7.05-.04ZM121.46,49.8l-6.35.09,1.2,6.04c2.26-.48,4.09-.42,6.39-.36-.61-2.88-.76-2.51-1.24-5.76ZM79.13,57.14c-.33-1.79-.65-2.58-.67-3.87-.81-.47-.43-1.63-.64-2.3-2.36.12-3.98.33-6.63.24.41,2.2.89,3.94,1.01,6.07l6.93-.14Z"/>
  <path class="st118" d="M106.31,94.07c.99.16,1.07.37,1.15,1.31-.48,1.67-.51,3.27-.11,4.8.16,1.23-.16,2.06-.95,2.47l-8.76,1.65-21.74,4.43-31.24,6.04c-6.87,1.33-13.49,3.03-20.19,3.92l-4.85.65-.94-2.89c.73,2.26-3.15-13.7-2.88-12.38l-.72-3.61,11.99-1.05,4.28-.31,4.33-.27,5.15-.32,27.29-2.25,5.78-.31,4.57-.3,4.31-.28,4.02-.28c.27-.02,12.24-.71,10.92-.77l1.02-.55c1.18-.13,6.46-.41,7.06-.09.19.1.35.23.52.38Z"/>
  <path class="st159" d="M367.08,174.41l-1.96-.86c-14.12-3.27-28.43-6.35-42.95-9.23l-1.04.04-3.02-.54-.6-.58c-.02-1.5.25-2.85.82-4.05-.92-.66-.3-3.4.57-3.99,2.5-1.89,2.84-2.91,5.87-5.35,2.01-1.62,7.01-4.39,9.48-5.06,2.66-.73,5.4-1.09,8.18-1.32,7.7-.64,15.9,2.53,21.71,7.23,3.13,2.53,5.86,6.03,7.52,9.75,2.04,4.58,2.19,9.79,1.46,14.79-1.93.32-4.36-.99-6.03-.83Z"/>
  <path class="st99" d="M122.98,118.42l1.64.2c2.72,1.14,5.81,2.71,8.13,4.46.1-.1.21-.2.32-.28.16-.1,3.03,1.43,3.29,1.67l.2.63.7-.09c.48.19,3.96,2.52,3.95,2.76,0,.14-.05.28-.1.42l.03.63c-7.59,3.85-15.09,7.97-22.5,12.36l11.44,6.77c.81.95,0,1.47-.95,2.01l-34.29,18.31c-.78.23-1.46-.02-2.14-.42-2.24-1.33-4.54-2.78-6.74-4.2-.49-.32-.83-.82-1.15-1.3-.68-.36-.39-.83.09-1.32,6.09-3.45,12.26-6.84,18.53-10.19l1.18-.05.19-.78,3.43-1.71c-3.54-2.18-7.12-4.32-10.73-6.43l-.02-.65c.76-.35,1.46-1.18,2.37-1.69l7.4-4.15.94-1.17,10.95-5.71-11.06-5.62c-.41-.42-.54-.69-.19-1.19.45-.65,8.63-3.7,9.87-4.14.98-.64,1.56-.86,2.73-.72.79.1,2.62.71,2.51,1.62Z"/>
  <path class="st80" d="M191.9,36.1l.58.26.04,13.86-.57.35-.63.55c-12.95.45-25.47,5.81-34.96,14.22l-1.21.21-20.82-4.05-1.24-.54c0-1.07.46-2.04,1.34-2.9,4.4-5.12,9.48-9.39,15.25-12.81l.82.14c2-1.35,4.86-1.65,6.64-3.31.73.04,1.51-.28,2.25-.68,1.27-.68,2.65-1,4-1.49,7.86-2.84,15.58-3.71,23.82-4.04,1.69-.07,3.15-.23,4.7.22Z"/>
  <path class="st59" d="M95.42,72.51c.58.39,1.22,1.29,1.43,1.98.63,1.39,1.4,2.63,2.3,3.73.2.36.64.68.57,1.15l1.18,2.2c1.09,1.18,1.18,1.59.26,1.24-.07.22-.22.54-.37.51-15.08-2.69-30.03-5.61-45.18-8.64-1.95-.13-3.72-.6-5.29-1.39-2.37-.24-4.7-.9-7.16-1.45l-11.7-2.6-11.81-2.62c-1.36-.3-2.68-.31-4.03-.82.34-2.13.46-4.21.81-6.23l1-5.67,20.58,4.71,8.26,2.09,6.13,1.35,16.97,4.23,5.34,1.32,20.7,4.89Z"/>
  <path class="st157" d="M236.71,40.05c-.02.25-.06.49-.13.72s-.14.44-.28.59c-3.46,3.92-7.05,7.96-10.87,11.35l-.81.23-.17.61c-.6.2-1.1.47-1.5.83-.11.46-.47.7-1.1.74l-.92.47c4.65,3.15,9.23,6.26,13.9,9.53.21.15.37.35.54.57s.3.48.43.73c-.35.95-3.56,2.34-4.46,2.36-.34,0-.64-.15-.9-.34-.98.07-1.8-.33-2.48-1.2-4.4-2.88-8.67-5.92-12.82-9.12-.69.11-1.35.37-1.96.77l-.56-.2c-.96.5-1.93,1.04-2.91,1.62l-.82-.13-.53.44c-3.18-1.02-6.43-1.75-9.73-2.19l-.31-.59c-.22-.05-.54-.14-.55-.3-.04-.71.32-5.43.5-6l.61-.36-.15-.53c.64-4.54,1.14-9.1,1.5-13.68l.6-.35c.23-3.91,1-6.44,1.71-10.5,1.42.24,2.71.78,4.06,1.31l6,2.35,5.94,2.4,16.49,6.72c.74.3,1.48.38,1.7,1.15Z"/>
  <path class="st95" d="M381.19,76.8c.27,3.15.26,6.31,0,9.47-.04.26-.39.67-.82.6-1.41-.22-2.65.09-4.01.23l-6.07.62-16.63,1.7-10.4,1.08-3.98.29c-2.42.18-5.25.47-7.72.73l-2.61.27c-2.52.26-6.04.47-8.63.57-1.02.04-2.09.26-3.11.33l-3.49.25-3.45.29-3.45.29-3.43.29c-2.04.17-8.35.66-9.74.4-1.32-1.54-2.59-3.15-3.82-4.81-.7-.02-1.15-.15-.79-.88.08-.65.52-.83,1.34-.54l7.25-.83c1.45-.87,3.19-.97,4.84-.87l6.06-.76,4.1-.47c1.22-1,3.63-1.38,5.09-.76,1.67-.33,3.51-.4,5.22-.6,1.04-1,3.27-1.22,4.54-.56,1.18-.21,2.86-.63,4.04-.56l.55-.56,3.69-.51.63.49,13.53-1.75,22.93-2.86c2.34-.29,4.49-.37,6.77-.74.48-.08,1.37-.35,1.57.17Z"/>
  <path class="st99" d="M140.78,29.21l-25.78,11.8c-.84-.87-.99-1.87-1.18-2.98-.63-3.69-.99-7.36-2.03-10.92s-.89-6.45-2.01-8.62c.26-1.56-.44-3.03-.82-4.57-.86-3.45-1.2-6.76-1.84-10.46,4.7,2.67,7.86,4.17,12.43,6.75l21.81,12.28c2.04,1.15,3.87,2.02,5.96,3.58l-6.53,3.13Z"/>
  <path class="st78" d="M144.23,120.4c-1.76,2.3-4.82,4.16-7.66,4.69-1.5-.23-2.47-1.48-3.82-2.02-1.86-1.53-3.67-3.45-4.96-5.39-1.51.64-3.17,1.31-4.8.73-4.14-2.13-3.78-.64-5.43-.24-1.83.45-3.37,1.28-5.04,2.05-1.5.68-3.05,1-4.5,1.95l12.5,6.35c-1,.45-1.83.77-2.73,1.3-3.5,2.04-7.13,3.6-10.55,5.52-3.42-3.98-6.19-6.72-8.85-11.49l-2.67-4.78c-.92-1.65-1.01-3.64-2.15-5.16-.65-.86-.63-2.03-.96-2.96,1.6.18,3.12-.25,4.81-.58l16.54-3.22c1.13-.22,1.91-.39,3.03.15l27.25,13.08Z"/>
  <path class="st49" d="M286.93,99.59c4.86.76,10.04-.07,15.15.05l9.03.21c.03,1.65-.66,2.97-.82,4.52-.06.63-.47,1.08-.7,1.61-.72,1.7-.57,3.63-1.1,5.28.2.09.51.26.47.4-.31,1.44-1.18,4.19-1.74,5.56l-.68.31-1.49,5.91-12.17-3.73c-3-.92-5.86-1.83-8.82-2.91-2.19-.79-4.42-1.21-6.55-2.16-.81-.36-1.57-.84-2.31-.24.28-1.76.91-3.5,1.2-5.38l1.44-9.45c.77-.81,1.06-.23.87,1.74.82,1.15,1.67.88,2.55-.8l.62-.39c1.69-.25,3.37-.43,5.05-.53Z"/>
  <path class="st91" d="M130.83,155.14c-1.65.77-3.25,1.7-4.95,2.64l-2.74,1.52-3.47,1.99-12.01,6.96-4.9,2.59-8.18,4.46-8.65-5.19-4.7-3.02c-.44-.28-.86-.43-1.05-.78-.12-.19-.29-.47-.18-.6.36-.43,3.7-3.33,4.12-3.56l.68.17c2.63,1.43,5.29,3.02,7.83,4.77,1.99,1.37,2.16.5,5.82-1.45l19.8-10.55,5.63-3.05c2.1-1.14,4.26-2,6.21-3.45l-12.72-7.53c3.23-1.99,6.23-3.65,9.43-5.34l14.32-7.56.69.04c.84.89,3.02,4.24,2.51,5.28-.05.1-.14.18-.25.26l-16.71,9.25c3.08,2.88,6.88,4.97,10.59,6.98.8.39.71.79.42,1.45-.15.36-6.33,3.83-6.72,3.9l-.81-.19Z"/>
  <path class="st118" d="M306.56,117.53c.22-.86.46-1.61.77-2.57l1.18-3.7c1.33.4,3.77,2.6,5.03,2.71,1.53.13,2.37-1.21,3.45-2.02,5.6-4.21,12.66-4,18.22.19,2.88,2.17,6.94,4.5,10.11,1.65l2.56-2.3c2.82-2.54,6.42-4.26,10.4-3.39,8.18,1.8,10.13,8.05,16.08,8.78,1.03.13,2.45-.43,3.39-.75,1.48-.51,4.32-2.95,4.68-2.36,1.58,1.64,2.22,1.8,3.7,3.55-.27,1.25-1.71,1.77-2.63,2.49-5.3,4.15-12.4,4.49-17.5.03l-3.05-2.67c-3.4-2.97-7.27-4.97-11.01-1.08-2.44,2.54-1.89,2.55-5.08,4.43-1.41.83-3.24,1.31-4.88,1.24-4.1-.18-6.14-1.65-9.19-4.02-2.61-2.02-5.81-3.49-9.08-2.55-2.18.63-3.76,2.38-5.71,3.46-2.86,1.58-6.71,1.15-9.56-.34-.68-.36-1.14-.93-1.86-.8Z"/>
  <path class="st80" d="M158.4,126.24l.4.81c-1.01,1.35-1.82,2.82-2.43,4.43-2.95,3.82-5.55,7.87-7.8,12.14-.5-.56-.53-.53-.11.1l-2.15,3.24-.59.11c-.7.3-1.14.97-1.48,1.76-.6,1.39-1.44,2.55-2.12,3.88l-1.68,3.31c-.66,1.31-1.45,2.42-1.94,3.73-1.12-.35-2.11-1-3.18-1.69l-4.5-2.91,7.46-4.33c-4.29-2.19-8.28-4.67-12.11-7.83l17.83-9.87c-.92-2.52-1.77-2.95-2.9-4.94-.18-.32-4.11-2.35-4.55-3.09,2.62-1.44,5.2-3.01,7.66-4.69-.86.59,5.91-3.33,6.05-3.36,1.45,2.79,3.58,4.92,5.68,6.91l2.44,2.3Z"/>
  <path class="st109" d="M261.7,60.97l-.12.65-9.79,3.59-1.85.03c-.87.29-1.72.76-2.61.97-.48.97-2.73,1.98-3.69,1.4l-.11.65-6.11,2.26c1.23,2.01,2.45,4.06,3.66,6.16,1.84,3.7,3.65,7.39,5.41,11.05.03.13.05.26.02.38-.1.46-8.26,1.25-9.3,1.33-1.06.33-1.76.22-2.1-.32l-.69-.61c-.86-6.49-4.44-12.25-8.56-17.1-.28-.37-.18-.71.23-.94-.3-.91,1.22-1.57,1.96-1.13.07-1.25,1.4-1.28,2.38-.91,1.85-.46,3.58-1.33,5.36-2.01.24-1.1,1.42-1.34,2.37-.9.61-.81,1.58-1.34,2.92-1.59.88-.57,1.72-.75,2.52-.57-.32-.97,1.91-1.43,2.38-.7l.46-.76c1.48-.44,2.92-1,4.31-1.67l.85.18c0-1.09,1.61-1.51,2.39-.85.61-.72,1.52-1.19,2.73-1.42,1.15-.73,2.24-1.03,3.24-.88.68-.34,1.64-.73,2.39-.89l.35-.67,2.34-.75c1.15-.69,2.24-.97,3.27-.83.66-.35,1.61-.69,2.34-.88l.07-.61c1.67-.32,3.27-.84,4.79-1.56l.58.22c.77-.19,1.35,2.26,2.01,3.02-.5.55-1.2.38-1.73.68-1.86,1.04-3.78,1.59-5.72,2.33l-6.21,2.38c-.94.36-1.91.98-2.75,1.29Z"/>
  <path class="st7" d="M244.49,17.92c-.2-.1-.18-.39-.12-.58.03-.09-.47,1.65-.58,1.88-3.93,7.76-15.44,7.58-20.12.57-.77-1.15-1.96-3.27-1.03-4.41-.48-1.17-.65-3.26.26-4.28,1.39-5.42,10.13-9.14,16.81-4.8,3.35,2.18,5.42,5.4,5.04,9.64-.06.7.3,1.53-.26,1.98Z"/>
  <path class="st110" d="M101.16,82.82l.52.1c.09-.32.21-.35.37-.1,1.34,1.92,2.43,3.53,3.75,5.72,1.07,1.76,2.42,3.3,3.12,5.14.05,1.26-1.9,1.27-2.62.39-2.87.02-5.72.4-8.6.26l.05-6.01c0-.3.51-1.08.05-1.26-1.55-.59-3.2-.67-4.81-.98l-11.1-2.1-14.63-2.62-14.35-2.55c-1.2-.21-2.33-.41-3.45-.87l.28-2.57c.09-.83-.03-1.6.56-2.05,4.31.44,8.48,1.5,12.89,2.33l17.74,3.31,20.21,3.88Z"/>
  <path class="st27" d="M104.59,150.76c-1.75,1.12-3.59,2.04-5.56,3.11l-13.06,7.04c-.7.38-1.04.81-1.17,1.41l-4.62,3.99c-1.29-.36-9.77-6.95-10.43-7.08-.33-.06-.15-.7-.03-.89s.4-.16.68-.31l5.66-2.96,9.12-4.68,5.68-2.88,7.48-3.81c.44-.64.9-.3,1.36.21,1.72,2.19,3.5,4.29,5.36,6.31l-.46.52Z"/>
  <path class="st134" d="M324.02,64.04c-.34,1.59-.88,3.29-2.14,4.41-1.14-.3-2-.69-3.04-1.16l-33.91-15.07c-1.91-.85-3.69-1.29-5.41-2.43-1.33-.88-4.67-.85-5.2-3.52-1.48-1.63-2.56-3.6-3.26-5.89l.37-.6,12.09,5.51,39.26,18.08c.54.25,1.15.11,1.24.66Z"/>
  <path class="st132" d="M256.57,175.2c-.24-2.48,1.82-10.48,1.16-12.66l.77-.5,1.07-7.67,8.6,2.48c5.02,1.45,9.8,3.05,14.95,5-3.18,1.93-6.19,3.41-9.34,5l-5.17,2.61c-4.24,1.79-8.07,4.14-12.03,5.75Z"/>
  <path class="st97" d="M41.13,37.74c-1.07.07-2.12.16-3.16.29-2.35.08-6.31-2.9-7.19-4.59-.83-1.6-2.67-2.13-4.27-1.42-2.59,1.16-2.72,3.49-7.32,5.24s-10.24-1.25-13.26-4.3c1.27-1.11,1.76-2.45,2.72-3.74,2.94,2.38,8.99,4.85,11.4,1.34.53-.77,1.17-.81,1.69-1.29,3.56-3.3,8.76-3.37,12.17.23.47.5,1.19.91,1.52,1.6.62,1.27,1.82,1.71,3.06,1.97,2.01.43,4.45-2.76,5.61-3.54,2.41-1.6,5.54-1.25,7.94.15.72.42,2.2.72,2.18,1.81-.02,1.25-1.27,2.92-2.47,3.28-1.87-.07-3.18-2.27-5.07-.63l-2.4,2.08c-1.09.94-1.99,1.23-3.15,1.51Z"/>
  <path class="st67" d="M289.04,88.51c.09.41,1.04.18,1.21.49,1.5,2.73,4.18,4,3.39,5.21-.1-.02-.22.06-.32.06-1.52.15-3.05.26-4.6.33h-.86c-1.53.09-3.06.18-4.6.26-1.15,0-2.33-.04-3.67.13-.07,1.51-.04,2.75-.43,4.22l4.97-.04,2.79.44c-.29.53-.79.66-1.45.59-.94-.1-1.8.42-2.79.38-1.86-.07-1.44,2.67-3.46,1.92-1.02-.38-1.4-1.28-1-2.35.05-.15.03-.32,0-.41-.04-.13-.28-.11-.39-.15.02-.9-8.13-.23-9.5-.21l-7.95.11c-.13,0-.26,0-.38-.05-.41-.15-.13-6.66.41-7.45.12-.18.48-.05.72.11l.12-.59,14.7-1.78c.69-.37,1.19-.37,1.51.01.15-.05,7.54-.85,7.8-.85.85-.82,2.78-1.01,3.76-.36Z"/>
  <path class="st1" d="M56.54,85.18l.11,5.63-25.87.12.03-8.3c.92-.42,1.73.14,2.57.13,1.48-.01,2.8.14,4.3.3l18.86,2.11Z"/>
  <path class="st34" d="M155.16,178.7l-6.03.02v-4.32c0-.34-.11-.56-.28-.73-.24-.25-.56.11-.92.11l-5.19.07c.37-3.32-.86-1.03-.52-6.32h6.62s.01-5.47.01-5.47c2.19-.04,4.23.16,6.28-.16-.2,4.82.48,4.36.56,4.7.07.32-.53.26-.61.85l6.42.09c.03,2.01-.19,3.89.25,5.93l-6.58.1v5.14Z"/>
  <path class="st66" d="M292.75,160.34c-1.83-.5-3.69-1.04-5.43-1.73.21-.79,1.26-.93,1.79-1.58,1.07-1.31,2.35-2.27,3.5-3.42.8-.8,1.42-1.58,2.32-2.33,2.37-1.97,2.97-2.73,5.17-4.85l4.96-4.77c.87-.84,1.53-1.7,2.54-2.41,1.71-1.2,4.27-4.87,5.8-4.96s3.1.86,4.6,1.24l-3.35,3.31c-.93.92-4.79,4.76-5.42,5.26-2.1,1.66-9.24,9.18-10.21,9.9-2.21,1.67-3.74,3.95-5.2,4.83-.55.33-1.03.96-1.08,1.5Z"/>
  <path class="st145" d="M283.55,157.76l-1.54-.43c-1.41-.4-2.73-.61-3.87-1.27.01-.66.89-.63,1.26-1.02.91-.96,1.62-1.96,2.79-2.66.71-.43,1.09-1.28,1.65-1.8l2.25-2.06c.95-.87,1.99-1.6,2.86-2.58.62-.69,4.82-4.71,5.96-5.82l8.13-7.95c.59-.58,1.62-.16,2.25.13.99.46,2.12.39,3.01,1,.04,1.1-1.25,1.22-1.68,1.85-.79,1.17-1.75,1.86-2.72,2.77-1.76,1.65-3.3,3.35-5.19,4.87-1.98,1.6-9.06,9.1-10.06,9.78-1.32.9-3.76,3.95-4.57,4.32-.39.18-.58.54-.55.88Z"/>
  <path class="st44" d="M261.7,60.97c.77,1.33,1.99,2.37,2.91,3.73.6.88,1.05,1.7,1.81,2.47-.38-.38,4.57,6.57,4.22,6.98,1.4,1.31,2.02,3.04,2.83,4.64.43.54-.06,2.49-.82,2.54-.14-.16-4.49-3.56-5.14-4.04l-16.04-11.79c-.49-.36-1.1-.16-1.52-.26l1.08-.36,10.68-3.91Z"/>
  <path class="st146" d="M298.2,130.49c.28.19.82,0,1,.57-.6.45-1.07,1.32-1.8,1.72-1.01.55-1.42,1.45-2.2,2.19-.91.86-1.89,1.73-2.86,2.53-.9.74-1.5,1.54-2.33,2.33l-3.09,2.93-4.78,4.68c-.99.97-4.57,4.3-5.16,5.22-.3.47-3.03,2.04-2.61,2.52-1.87-.41-3.78-.9-5.48-1.69l.13-.62c8.04-7.6,16.02-15.15,23.93-22.65l.97-.28,1.83.11c.85.05,1.67.46,2.46.45Z"/>
  <path class="st98" d="M347.86,33.63c-1.48,1.16-2.52,1.6-4.24,2.9-1.67-.57-3.04-4.69-4.26-3.06-.36.48-3.37,2.99-4.38,2.47-.78-.4-1.11-1.56-1.85-2.11-.6-.44-1.06-.93-1.21-1.65,1.32-.39,2.12-1.13,3.03-1.95.44-.4,1.27-.35,1.47-1.09-1.26-1.3-2.38-2.65-3.22-4.19.58-.73,4.08-3,4.22-2.98,1.46.18,1.84,2.13,3.25,3.55,1.44-1.21,2.63-2.3,4.25-2.99,1.23,1.6,2,1.7,3.04,3.66-.63,1.5-3.56,2.21-3.47,3.02.19,1.68,2.98,3.1,3.38,4.43Z"/>
  <path class="st102" d="M247.34,66.21c.17.62,1.09.58,1.49,1.06.72.86,1.58,1.29,2.42,1.91l2.01,1.48,3.3,2.42,2.77,2.09,13.5,9.87c-1.51,1.2-4.7,1.4-6.48.63l-1.5-.4c-4.94-3.4-9.93-6.78-14.96-10.13l-1.68-1.81-.72.09c-1.19-1.82-2.54-3.52-4.04-5.09l.21-.71c1.23-.46,2.39-1.1,3.69-1.4Z"/>
  <path class="st101" d="M369.72,134.5c-1.22.24-2.51.26-3.73,0-5.17-1.18-8.41-8.72-14.3-5.43-.7.39-1.31.71-1.93,1.28-.58.53-1.46-.35-2.06-.54s-1.68-.51-1.52-1.33c.26-1.37,1.51-2.26,2.49-2.97,1.81-1.31,3.58-1.78,5.84-1.69,1.49.06,2.8.09,4.21.74,4.32,1.99,6.74,6.05,10.17,5.42,1.29-.24,2.29-1.04,3.49-1.4l2.62,3.54c-1.83,1.05-3.45,2.1-5.28,2.37Z"/>
  <path class="st108" d="M302.22,162.92c-1.9-.6-4-.71-5.73-1.71-.05-.5.77-.39.97-.71.82-1.29,2.08-1.93,3.07-2.97,1.57-1.66,2.52-2.51,4.2-4.13l2.92-2.81c.83-.8,1.52-1.51,2.35-2.31l7.12-6.89c.63-.61,1.32-.91,1.7-1.81.08-.19.43.02.53.1.12.1-.12.37-.13.61l-.17,5.3c-.04,1.11-1.47,1.49-2.07,2.2-.77.92-1.37,1.86-2.47,2.43-.75.38-.95,1.42-1.59,1.84-1.69,1.12-3.04,3.15-5.36,4.98-.92.73-1.5,1.49-2.28,2.35-.6.66-3.43,2.41-3.06,3.54Z"/>
  <path class="st82" d="M184.75,180.14l-.18.61c-5.14.73-10.29,1.46-15.43,2.19l-.42-.52c.7-2.12,4.05-8.89,5.24-10.78.68-1.08.76-2.52,1.68-3.5,1.4,1.44,8.68,8.61,9.48,9.67.58.76,1.59,1.06,2.03,2.2-.81.34-1.63.03-2.39.14Z"/>
  <path class="st139" d="M200.81,36.63l-.2,3.42-1.24,9.74c-.08.61.09,1.21-.52,1.4l-.73.38c-1.84-.34-3.71-.47-5.6-.41l-.59-.6-.04-14.47c-1.41-.42,9.15.68,8.91.53Z"/>
  <path class="st153" d="M266.61,37.14c-.63,1.51-2.29,1.68-3.73,1.7-.77.3-1.51.69-2.32.89-.02.84-.95.78-1.1-.03-.48-.69-3.05-1.3-4.42-1.91l-10.72-4.83c-.4-.81,1.87-2.83,2.58-4.71.97.34,1.82.91,2.87,1.38l16.84,7.52Z"/>
  <path class="st40" d="M268.31,54.11c-1.7.89-4.13,1.87-5.96,2.25-.24-.85-1.28-1.16-2.05-1.69l-6.31-4.34c-.97-.67-1.81-1.35-2.75-2.09-.82-.66-1.81-.96-2.59-1.75-.66-.66-1.85-.72-2.3-1.64.63-.65,1.57-.79,2.5-1.02,1.08-.27,2.18-1.21,3.26-1.03,1.72.92,7.59,5.61,8.94,6.29.85.43,1.55,1.12,2.35,1.67l4.91,3.35Z"/>
  <path class="st113" d="M260.55,39.73c.84.77,1.85,1.41,2.88,2.12l6.37,4.43,5.35,3.59c.53.35.86.89.93,1.4-.52.85-4.66,1.74-5.44,1.95-.44-.86-1.37-1.24-2.19-1.84l-2.49-1.84-11.3-7.84,4.78-2.01,1.1.03Z"/>
  <path class="st36" d="M244.42,45.76c-.16.45-.04,1,.63,1.2.78.24,1.22.86,1.83,1.29l3.51,2.5,6.81,4.72c.96.66,2,1.04,2.76,1.78-2,1.01-3.69,1.83-5.98,2.3l-.99-.2c-4.61-3.51-9.38-6.9-14.32-10.18-.51-.17-.88-.45-1.09-.87l.49-.87,3.04-1.3c1.25-.69,2.35-.81,3.32-.37Z"/>
  <path class="st104" d="M272.82,85.04c.75-.13,1.8.13,2.68.14,2,.03,1.04,3.87,1.98,4.53-.43.13-.75.48-1.42.56l-4.86.56-10.05,1.24c-.22.13-.61.25-.68.12-.53-1.09-.55-3.99-.4-5.26l.53-.42c-.36-.65-.1-.83.78-.56l.47-.53c1.64-.38,3.14-.3,4.5.24,2.16-.2,4.34-.25,6.48-.63Z"/>
  <path class="st33" d="M244.42,45.76c-2.38.47-4.65,1.5-6.84,2.54.01.93-1.06,1.35-1.67.63.02.14.02.28-.03.4-.08.23-4.13,2.07-4.37,2.1-.31.04-.5-.05-.79-.22.19.88-1.91,1.65-2.41.93-.12.58-.63.83-1.54.75-1.1.86-1.82.88-2.15.05.99-.48,1.46-1.56,2.31-2.32.99-.89,1.82-1.84,2.71-2.82l2.3-2.54c1.68-1.85,3.26-3.5,4.77-5.22,1.39.29,2.27,1.48,3.43,2.25l3.51,2.32c.37.25.94.67.77,1.13Z"/>
  <path class="st151" d="M42.75,163.18c-.56-1.11-1.47-1.84-1.66-3.16,2.08-.94,4.06-1.86,6.14-2.74l5.66-2.37c.97-.41,1.83-.84,2.92-1.11.65,1.59,1.2,3.1,2.48,4.58l-4.72,2.06-10.03,4.3-.79-1.56Z"/>
  <path class="st58" d="M239.67,177.09c-2.09-1.05-4.63-4.16-6.56-5.99l-2.35-2.24c-.52-.5-1.62-.98-1.53-1.83.07-.66,1.12-.97,1.64-1.3.81-.52,1.13-1.37,2.12-1.74,1.72,1.65,3.29,3.3,5.04,4.84l3.21,2.83c.8.71,1.25,1.74,2.52,2.27l-4.08,3.17Z"/>
  <path class="st138" d="M327.1,104.35c-.95-.18-1.63-.46-2.44-.65.02-.94.48-1.65.81-2.55.21-.59-.26-1.79.39-2.22l14.27,2.71c-.61,1.62-.83,3.14-.96,4.98l-12.07-2.27Z"/>
  <path class="st71" d="M334.41,136.52c-1.21-.22-2.04-.93-3.1-1.2s-1.79-.84-2.75-1.25l-7.49-3.19c.6-1.8,1.61-3.09,2.64-4.54,1.32,1.17,3.82,1.94,4.53,2.29,2.53,1.23,4.93,2.44,7.67,3.22,2.1.6-.85,3.21-1.5,4.68Z"/>
  <path class="st148" d="M318.9,155.2c-.04,1.34-.54,2.68-.57,3.99l-.56,1.3c-1.61,1.49-3.19,2.99-4.75,4.52l-1.32.51c-1.96-.55-3.96-1.16-5.77-1.99.57-.52,1.32-.94,1.96-1.53l2.23-2.06c1-.92,1.72-1.85,2.77-2.72.86-.72,1.75-1.53,2.53-2.3.85-.84,1.41-1.8,2.54-2.39.58-.3.27-1.33,1.28-1.4-.55,1.46-.32,2.78-.36,4.08Z"/>
  <path class="st47" d="M125.02,176.4c1.07-1.56-3.65,4.85-2.1,3.01-.7.84-3.44-1.52-5.16-2.05.41-1.55,1.55-2.42,2.34-3.54,1.04-1.49,2.07-2.86,3.19-4.29.74-.93,1.1-2.02,2.21-2.82l4.53,2.47c-.6.49-.87.83-1.13,1.4-.51,1.13-1.34,2.1-2.04,3.11l-1.85,2.71Z"/>
  <path class="st89" d="M54.06,50.12c.02.86-2.32,4.22-2.48,4.24-.28.03-.57-.19-.89-.33l-11.3-4.97c1.02-.95,1.67-3.8,2.5-4.13.56-.22.9.25,1.38.46l10.79,4.72Z"/>
  <path class="st122" d="M155.96,11.94c.09-.22-3.49,2.6-4.35,2.64-.25-1.32-1.31-2.03-1.83-3.01-.79-1.48-1.33-2.89-2.4-4.23-.87-1.09-1.12-2.62-2.04-3.56l4.03-2.72c.42.62,1.11,1.05,1.39,1.73.65,1.54,1.68,2.73,2.45,4.16l1.92,3.56c.2.37,1.09.83.83,1.43Z"/>
  <path class="st60" d="M210.28,18.47c-2.11-.07-3.17.89-5.26.53l.21-7.64c.04-1.54.26-3.01.17-4.6l5.19-.91c-.06,2.06.17,3.89-.15,5.88-.36,2.24.01,4.44-.16,6.74Z"/>
  <path class="st140" d="M184.75,180.14c-.05.89.45,1.67,1.03,2.6-.86.72-1.83.4-2.79.55l-16.12,2.5c.5-1.32,1.11-3.28,1.84-3.38l16.04-2.28Z"/>
  <path class="st115" d="M81.41,94.01c-.43.79-1.52-.07-2.06-.29l-7-2.8c-1.27-.51-2.34-1.18-3.94-1.39l1.67-3.75c2.89,1.7,4.73,1.7,7.55,3.01,1.67.78,3.42,1.14,5.05,2.21-.55.84-.7,1.97-1.27,3Z"/>
  <path class="st152" d="M222.64,15.38c.4,3.64,2.89,6.46,6.33,8.08,5.84,2.76,13.18-.14,15.42-6.33.2.16.07.5.1.79-.33,1.04-.42,2.18-1.14,3.26-3.88,5.78-11.69,7.58-17.48,2.74-2.23-1.86-4.27-4.69-4.12-7.77.05-.96-.24-1.93.04-2.82l.46-.17c-.03.84.09,1.58.38,2.23Z"/>
  <path class="st119" d="M216.33,182.9l-4.05-1.09c.88-3.24,1.08-5.94,2.28-9,1.71.1,3.28.49,4.96,1.08l-1.9,8.1c-.14.59-.51,1.11-1.28.9Z"/>
  <path class="st87" d="M64.82,173.69c-1.07.53-1.93.5-3.11.25-1.7-.36-3.08-1.43-3.2-3.24-.11-1.58.91-3.12,2.46-3.71,2.74-1.04,6.05,1.05,6.04,3.55,0,1.45-.88,2.5-2.19,3.15Z"/>
  <path class="st68" d="M164.68,32.77c-.73,1.43-2,1.82-3.34,1.86-1.42.04-2.56-.69-3.48-1.91s-.36-2.51.5-3.5c1.29-1.49,2.87-1.92,4.67-1.07.93.44,1.52.97,1.9,1.75.46.96.27,1.83-.26,2.88Z"/>
  <path class="st97" d="M190.94,29.51c-1.15,1.55-3.27,2.01-5.09.96s-1.9-3.99-.38-5.29c1.78-1.52,4.13-1.25,5.51.56.91,1.19.97,2.4-.05,3.77Z"/>
  <path class="st74" d="M271.42,39.79l2.06,4.84c.28.66.7,1.03.83,1.65-1.1-.24-1.71-1.17-2.66-1.83l-2.02-1.4c-1.95-1.35-3.9-2.52-5.71-4.07-.29-.25-.82-.05-1.05-.14,1.27-.5,2.5-1.12,3.73-1.7.48-.22,1.25-.27,1.65-.85,1.44.98,1.81,2.79,3.17,3.5Z"/>
  <path class="st10" d="M170.73,22.84c-.69,1.48-1.89,2.06-3.5,2.02s-2.83-.74-3.13-2.41c-.19-1.03-.21-1.78.32-2.62s1.41-1.2,2.51-1.36c1.78-.26,2.85.61,3.68,2.16.18.33.58.61.68.91.2.62-.35.87-.55,1.31Z"/>
  <path class="st29" d="M104.59,150.76c.02-.65-.79-.83-1.14-1.35-.86-1.28-1.87-2.29-2.9-3.4-.79-.85-1.13-1.99-2.22-2.3-.27-1.01-2.22-1.91-1.37-2.3l.5-.23,11.91,7c-1.37,1.05-3.23,1.58-4.78,2.58Z"/>
  <path class="st35" d="M182.07,21.81c-.95.92-3.15,1.02-4.21.45-1.81-.97-1.89-3.4-.86-4.91.9-1.32,2.44-1.31,3.88-.93,1.25.33,2.32,1.66,2.26,3.28-.03.53-.5,1.53-1.08,2.1Z"/>
  <path class="st24" d="M178.48,31.01c-.78,1.19-1.52,1.67-2.95,1.62-1.59-.05-3.02-.54-3.45-2.19-.34-1.34.15-3.07,1.66-3.67,1.03-.41,1.76-.74,2.89-.37.89.29,3.34,2.32,1.85,4.61Z"/>
  <path class="st15" d="M193.2,21.1c-1.09.2-2.23.1-2.88-.57-.72-.74-1.46-1.64-1.23-2.84.43-2.25,2.75-3.42,4.87-2.66,1.47.52,2.18,1.87,2.01,3.31s-1.1,2.45-2.77,2.76Z"/>
  <path class="st0" d="M75.49,154.41c-1.09.59-2.21.16-2.94-.45-.88-.73-.97-2.32-.18-3.15,1.26-1.31,3.23-.91,4.32.39.5.6.41,1.2.23,1.95-.13.54-.66.83-1.44,1.26Z"/>
  <path class="st53" d="M32.64,150.28c-.79-.54-1.22-1.28-1.18-2.11s.83-1.46,1.74-1.77c1.12-.39,2.4-.07,3.04.87s.42,2.25-.42,2.98c-.89.77-1.98.85-3.17.03Z"/>
  <path class="st103" d="M86.15,145.91c-.79-.52-.8-1.01-.83-1.79-.04-.85.36-1.13,1.1-1.72.99-.79,2.39-.57,3.28.27s.79,2.32.02,3.18c-.93,1.05-2.29.9-3.57.05Z"/>
  <path class="st143" d="M58.26,135.44c-.33.95-1.34,1.48-2.11,1.64-1.03.21-1.9-.38-2.64-1.25-.8-.93-.14-2.39.74-2.99,1.13-.77,2.33-.39,3.23.51.56.57,1.18.97.79,2.09Z"/>
  <path class="st8" d="M61.17,141.65c-.88-.46-1.26-.98-1.39-1.57-.24-1.1.32-1.36,1.05-1.97.66-.55,1.02-.95,1.99-.62.81.27,1.47.54,1.85,1.22.43.76.34,1.67-.25,2.47-.7.95-2.19,1.03-3.26.47Z"/>
  <path class="st4" d="M60.13,147.85c1.17-.64,3.55.69,3.69,2.04.08.82-.24,1.52-1.03,1.99-.87.52-2.09.76-2.97.03-.63-.52-1.35-1.45-.95-2.53.26-.69.82-1.29,1.26-1.54Z"/>
  <path class="st127" d="M42.62,141.87c.76,1.43,1.66,2.3.6,3.63-1.14.45-2.36.65-3.53.19-.78-.31-1.13-1.17-1.17-1.88s.29-1.6,1.09-1.89c.93-.34,2.15-.46,3-.05Z"/>
  <path class="st133" d="M50.86,138.66c-.04,1.22-1.53,2.85-3.25,2.32-.71-.22-1.3-.34-1.59-.92-.8-1.63.38-3.33,1.35-3.51,1.71-.33,3.52,1.15,3.49,2.11Z"/>
  <path class="st15" d="M56.47,146.13c-1.84.7-3.57-.43-3.83-2.27-.11-.77,1.14-1.94,1.98-2.14,1.32-.31,2.25.53,2.7,1.46s.27,2.53-.85,2.95Z"/>
  <path class="st125" d="M32.39,142.35c-.23.7-1.32.9-1.91,1.03-1.41.31-2.5-.64-2.74-1.92s.86-2.52,2.32-2.53c.78,0,1.87.44,2.31,1.16.31.51.25,1.56.02,2.27Z"/>
  <path class="st133" d="M66.88,131.46c-.57,1.5-2.51,1.48-3.69.8-.79-.45-1.2-1.31-1.03-2.12s.66-1.49,1.59-1.77,1.86-.17,2.54.4c.59.5.99,1.64.59,2.69Z"/>
  <path class="st56" d="M70.7,144.15c.74.5.92,2.55,0,3.41-.45.43-1.04.38-1.72.47-1.36.2-2.38-.73-2.57-1.93-.22-1.41.89-2.26,2.35-2.37.7-.06,1.4.06,1.92.42Z"/>
  <path class="st21" d="M77.72,143.53c-.85.83-1.71.98-2.88.53-.77-.3-1.58-1.17-1.4-2.26.16-.96.87-1.66,1.51-1.78,2.22-.44,3.61,1.12,3.6,2.1,0,.72-.3.9-.84,1.42Z"/>
  <path class="st48" d="M71.14,138.21c-1.95.46-3.39-1.57-3.56-1.91-.11-.22,1.09-2.78,2.68-2.64,1.17.1,2.12.84,2.4,2.13.24,1.1-.66,2.22-1.53,2.43Z"/>
  <path class="st120" d="M83.07,148.99c-.78,1.12-1.81,1.24-3.08.9-1.03-.27-1.29-1.24-1.25-2.29.04-.91.43-1.62,1.59-1.9,2.14-.5,3.39,1.54,3.39,1.86,0,.58-.27.87-.65,1.42Z"/>
  <path class="st86" d="M47.55,151.42c-1.11.14-1.93-.61-2.54-1.21-.81-.81-.51-1.71.19-2.42.79-.81,1.75-1.1,2.77-.77.96.31,1.43,1.18,1.48,2.29.04.88-.67,1.96-1.9,2.12Z"/>
  <path class="st96" d="M350.26,64.21c1.17.51,1.49,1.33,1.42,2.41-.07,1.02-1.22,1.53-2.34,1.61s-1.95-.39-2.42-1.25-.08-1.95.54-2.55c.75-.73,1.76-.68,2.82-.22Z"/>
  <path class="st62" d="M47.01,133.43c-1.15.84-2.67.36-3.55-.74-.78-.98-.23-2.45.71-3.03,1.09-.67,2.35-.39,3.17.64.41.51.72.88.72,1.47,0,.66-.3,1.11-1.05,1.66Z"/>
  <path class="st106" d="M40,135.63c.9,1.04-.1,2.29-1.03,2.9-.99.64-2.42.34-3.24-.68-.86-1.07-.24-2.91,1.07-3.28,1.21-.34,2.29.02,3.2,1.07Z"/>
  <path class="st18" d="M81.41,139.45c-.99-.39-1.52-1.03-1.52-1.94s.63-1.65,1.59-2.01,2.09-.22,2.74.54c.71.82.78,1.86.15,2.77s-1.69,1.13-2.95.64Z"/>
  <path class="st90" d="M301.64,62.32c1.36.46,1.74,1.6,1.38,2.77-.33,1.1-1.68,1.54-2.89,1.19-1.01-.29-2.03-.87-1.89-2.08.09-.77.55-1.53,1-1.82.63-.41,1.64-.32,2.4-.07Z"/>
  <path class="st13" d="M310.1,66.56c.21,1.11-.96,2-1.66,2.29-1.15.48-2.44.13-3.12-.91-.62-.95-.08-2.15.63-2.8,1.51-1.39,4.01.64,4.15,1.42Z"/>
  <path class="st43" d="M357.01,69.86c-.86-.52-1.37-.81-1.42-1.53-.08-1.05.28-1.39,1.12-2,.93-.68,2.23-.66,3.11.11.83.73.99,1.98.28,2.88s-1.98,1.2-3.08.54Z"/>
  <path class="st25" d="M353.56,71.31c.85.45.95,1.3.84,2.04-.12.79-.72,1.21-1.51,1.54-1.12.46-2.13.19-2.87-.66s-.44-2.1.3-2.92c.82-.91,2.03-.64,3.24,0Z"/>
  <path class="st149" d="M93.34,140.77c-1.26-.04-2.13-.64-2.6-1.61-.41-.83.19-1.64.82-2.17.83-.69,1.68-.83,2.58-.47s1.39,1.42,1.27,2.4c-.11.87-.94,1.89-2.08,1.85Z"/>
  <path class="st93" d="M330.92,74.71c.92.74.86,2.42.09,3.06-.86.72-1.96.95-3.03.29-.76-.47-1.36-1.07-1.24-1.93.11-.79.5-1.57,1.47-1.83.77-.21,1.92-.23,2.71.41Z"/>
  <path class="st65" d="M341.85,66.87c-1.22.95-2.8.27-3.61-.76-.35-.45-.39-.74-.46-1.22-.09-.6.43-.68.81-1.12.97-1.12,2.28-1.18,3.31-.31s1.22,2.44-.05,3.42Z"/>
  <path class="st9" d="M71.03,127.74c-1.06-.43-1.86-1.27-1.67-2.2.21-1.05.86-1.77,1.98-1.93.99-.14,1.84.16,2.43.84s.62,1.92,0,2.6-1.64,1.15-2.74.7Z"/>
  <path class="st19" d="M304.87,75.01c-1.88.46-3.21-1.44-3.27-2.1-.1-1.07,1.83-2.66,3.51-2.03.81.31,1.67,1.28,1.38,2.38-.24.89-.98,1.59-1.62,1.74Z"/>
  <path class="st19" d="M298.1,71.92c-.83.95-1.69,1.1-2.71.47-.56-.34-1.22-.59-1.36-1.07-.23-.77-.29-1.36.21-1.92,1.11-1.22,2.9-1.37,4.02-.17.79.85.57,1.84-.17,2.69Z"/>
  <path class="st46" d="M78.53,132.75c-1.23,1.32-3.36,1.13-4.23-.38-.35-.62-.21-1.85.24-2.35,1.1-1.23,2.73-.83,3.88.33.47.47.61,1.86.1,2.4Z"/>
  <path class="st55" d="M91.42,121.74c.16.95-.63,2.44-2.32,2.48-1.09.03-1.78-.25-2.28-1.11-.42-.73-.56-1.75.24-2.38.59-.46,1.19-.87,1.85-.84.76.04,2.45,1.56,2.5,1.85Z"/>
  <path class="st32" d="M292.2,85.36c-.44-.51-.94-.83-.9-1.52.05-.8.64-1.03,1.33-1.44,1.13-.69,2.34-.51,3.16.44.77.89.57,2.48-.39,3.02-1.22.67-2.27.59-3.2-.49Z"/>
  <path class="st18" d="M61.72,124.84c.08.91-.53,1.64-.96,1.96-.54.4-1.58.3-2.21.07-1.03-.38-1.65-1.01-1.65-1.99s.6-1.62,1.69-2c1.23-.43,2.98.46,3.12,1.97Z"/>
  <path class="st81" d="M335.29,62.64c-.77.4-1.37.82-2.16.64-.63-.14-1.55-.48-1.62-1.39-.08-1.02-.02-2.09.74-2.58,1.6-1.03,3.74.42,3.87,1.57.09.8.02,1.31-.83,1.76Z"/>
  <path class="st107" d="M346.45,71.45c.11,1.25-1.09,1.72-1.81,1.95-.9.29-1.95.02-2.61-.78-.41-.49-.53-1.05-.44-1.69.06-.46.47-.98,1.14-1.36,1.31-.74,3.57.07,3.73,1.87Z"/>
  <path class="st158" d="M272.65,81.34c.1-.84.27-1.88.82-2.54,1.1-.28,2.68-.48,3.42.5.45.59.71,1.26.59,1.84s-.76.96-1.18,1.22c-1.77,1.1-2.7.03-3.66-1.01Z"/>
  <path class="st17" d="M294.43,62.28c-1.26.12-2.03-.65-2.21-1.5-.25-1.18.1-2.08,1.16-2.59.84-.41,1.72-.39,2.51.11.66.42,1.04,1.58.76,2.41s-1.08,1.46-2.21,1.57Z"/>
  <path class="st155" d="M340.4,54.24c.38.49.63.73.66,1.15.04.48-.37.64-.63,1.06-.74,1.24-2.29,1.53-3.41.64s-1.1-2.27-.14-3.28,2.62-.75,3.52.42Z"/>
  <path class="st65" d="M368.63,59.16c-.98.51-1.66.49-2.53.15-.66-.26-1.4-1.02-1.26-2.07.13-.93,1.07-1.58,1.84-1.74.87-.18,1.95-.08,2.69.71.82.88.32,2.4-.75,2.95Z"/>
  <path class="st136" d="M335.69,68.59c.99.64.96,2.34.15,3.11-.94.89-1.95.85-3.19.19s-1.13-2.86,0-3.39c1.04-.48,1.85-.66,3.03.1Z"/>
  <path class="st55" d="M313.26,78.28c-.41,1.16-1.8,1.16-2.74.88-1.04-.3-1.55-.81-1.7-1.69-.18-1.03.28-1.56,1.22-2.1.81-.47,1.82-.41,2.58.08.81.52,1.06,1.66.64,2.83Z"/>
  <path class="st26" d="M301.69,80.42c-1.01.81-2,.9-2.88.23-.77-.59-1.48-1.5-1.09-2.65.27-.79,1.21-1.06,1.81-1.21,1.35-.34,2.91,1.37,3,2.16.07.59-.28,1.02-.83,1.47Z"/>
  <path class="st117" d="M306.69,85.13c-1.44,0-2.7-2.15-2.71-2.21-.1-.46,1.89-3.11,3.84-1.83,1.09.72,1.29,1.88.69,3.2-.32.7-1.09.86-1.82.85Z"/>
  <path class="st73" d="M328.49,68.21c-1.06-.02-1.88-.05-2.39-.8-.42-.62-.94-1.37-.4-2.15.71-1.03,1.75-1.46,2.62-1.24,1.45.37,1.84,1.27,1.81,2.73-.02.92-.5,1.48-1.64,1.45Z"/>
  <path class="st55" d="M339.69,74.87c1.08.73,1.02,2.84.11,3.43-1.31.87-2.55.68-3.39-.49-.57-.79-.59-2.26.55-3.1.57-.42,1.93-.38,2.72.16Z"/>
  <path class="st72" d="M374.02,51.55c.82.9.06,2.21-.74,2.84-.88.7-2.26.29-3.09-.51-.93-.89-.49-2.35.38-3.07,1.04-.87,2.36-.46,3.45.74Z"/>
  <path class="st90" d="M292.33,67.43c-1.02,1.28-3.34.87-4.02-.49-.48-.95-.19-1.91.5-2.48.79-.66,1.53-.51,2.7-.18s1.79,1.93.82,3.15Z"/>
  <path class="st133" d="M53.89,129.79c-1.93,1.6-4.17-1.36-4.18-1.47-.16-1,1.71-2.38,2.23-2.44,1.37-.15,2.75,1.36,2.73,2.17-.01.59-.2,1.26-.78,1.74Z"/>
  <path class="st64" d="M90.08,133.86c-.43.98-1.27.92-1.98.97-1.43.11-2.52-1.89-2.51-2.2.01-.66,1.71-2.13,2.26-2.12.72.01,1.73.08,2.12.8s.45,1.79.12,2.56Z"/>
  <path class="st61" d="M279.09,78.09c-.58-.52-.89-.9-.82-1.65s.6-1.11,1.46-1.62c.81-.49,2.6-.04,3.07.89.55,1.07.11,2.47-.75,2.82-1.13.47-2.03.39-2.96-.44Z"/>
  <path class="st13" d="M366.39,62.99c-.77,1.46-2.03,2.67-3.89,1.62-.99-.56-1.08-1.94-.54-2.9.59-1.06,1.77-1.24,2.93-.74.81.35,1.2.84,1.51,2.02Z"/>
  <path class="st133" d="M68.29,119.45c.45.63.47,1.29.3,1.83-.15.47-.54.8-1.13,1.08-1.15.55-2.46.31-3.04-.7s-.48-2.54.71-3.07c1.04-.46,2.48-.09,3.16.85Z"/>
  <path class="st92" d="M321.17,79.23c-.89,1.25-2.68.86-3.54,0-.57-.56-.88-.96-.77-1.71.23-1.57,2.12-1.86,3.7-1.52.82.71,1.37,2.16.61,3.23Z"/>
  <path class="st63" d="M348.04,58.8c.47.92,0,2.08-.72,2.58-.83.58-1.94.56-2.82-.17-.5-.41-.89-.96-.92-1.53-.03-.61.32-1.34.96-1.81,1.04-.77,2.87-.27,3.49.94Z"/>
  <path class="st72" d="M353.44,56.64c-1.01.75-1.7.78-2.75.25-.63-.32-1.39-1.14-1.23-2.1.13-.78.63-1.31,1.23-1.49,1.59-.49,3.29.37,3.49,1.3s.07,1.45-.74,2.05Z"/>
  <path class="st116" d="M343.4,52.57c-.71-.86-.42-1.56.27-2.46.53-.69,1.61-.81,2.53-.52.6.19,1.46,1.03,1.41,1.82-.09,1.39-.65,1.98-1.76,2.27-1.04.28-1.69-.19-2.45-1.11Z"/>
  <path class="st147" d="M356.52,63.23c-1.23.25-2.92-.75-3.13-1.96-.16-.92,1.02-1.88,1.73-2.17,1.24-.51,2.37.28,2.73,1.27s.11,2.56-1.33,2.86Z"/>
  <path class="st31" d="M289.99,77.61c-.75-.95-.19-1.9.4-2.5.74-.75,1.71-.83,2.57-.4s1.51,1.48,1.12,2.52c-.34.9-1.01,1.58-1.77,1.6-.89.03-1.66-.39-2.32-1.23Z"/>
  <path class="st23" d="M282.49,84.75c.85.73.61,2.4-.34,2.94-1.27.72-2.65.19-3.72-.64-.02-.71-.26-1.66.27-2.23.94-1.03,2.71-.99,3.79-.06Z"/>
  <path class="st160" d="M85.49,127.02c.13,1.17-.77,1.57-1.61,1.91-.94.38-1.78-.31-2.5-1.12-.67-.75-.39-1.75.19-2.38.64-.69,1.39-.84,2.41-.65.9.17,1.36,1.04,1.5,2.24Z"/>
  <path class="st19" d="M323.85,74.09c-1.13.4-2.04.13-2.69-.55-.58-.6-.82-1.4-.34-2.41.32-.67,1.24-1.48,2.22-1.15s1.69.81,1.83,1.59c.16.91,0,2.16-1.02,2.52Z"/>
  <path class="st130" d="M277.11,70.37c.56,1.1-.44,1.94-.97,2.31-.79.54-1.7.52-2.69,0-1.16-.6-1.15-2.86.17-3.5,1.09-.53,2.93.08,3.49,1.18Z"/>
  <path class="st79" d="M282.06,68.83c-1.2.7-2.67-.06-3.58-.66-.25-1.02-.2-1.74.43-2.33,1.06-.98,2.24-1.07,3.38-.22.89.66,1.05,2.47-.23,3.22Z"/>
  <path class="st129" d="M286.81,83.68c-1.89.29-3.27-1.01-3.31-2.15-.02-.7.53-.91,1.09-1.4.78-.7,1.54-.49,2.5-.13.67.26,1.39,1.17,1.21,2.15-.15.81-.92,1.45-1.48,1.53Z"/>
  <path class="st75" d="M272.15,67.74c-2.41,1-3.83-2.06-3.82-2.03-.03-.33.36-.45.55-.73.82-1.22,2.31-1.49,3.48-.69,1.06.73,1.35,2.8-.2,3.44Z"/>
  <path class="st20" d="M366.67,49.98c-1.09.55-1.93.54-2.75.03-.67-.41-1.38-1.38-.96-2.44.26-.67,1.41-1.21,2.01-1.21.83,0,1.92.39,2.32,1.24.36.77.16,1.98-.62,2.37Z"/>
  <path class="st105" d="M99.59,136.47c-1.02.22-1.77.05-2.32-.5s-.99-1.31-.59-2.21c.47-1.03,1.38-1.38,2.32-1.29,1.02.1,1.7.67,1.86,1.64s-.03,2.09-1.27,2.36Z"/>
  <path class="st147" d="M80.46,121.21c.14,1.32-1.19,2.13-2.12,2.14-1.29.01-2.21-.74-2.33-2.24-.09-1.05,1.09-1.94,2.02-1.89,1.05.06,2.28.57,2.43,1.99Z"/>
  <path class="st79" d="M288.23,72.48c-.44,1-1.85.98-2.71.8-.72-.15-1.91-1.2-1.63-2.01.54-1.52,1.75-2.08,2.81-1.83,1.35.32,2.17,1.57,1.52,3.04Z"/>
  <path class="st37" d="M95.59,127.05c.88.98.24,2.26-.65,2.79-1.13.67-2.27.44-2.93-.69-.57-.99-.31-2.3.82-3.06.89-.61,1.97.08,2.77.96Z"/>
  <path class="st51" d="M331.45,53.74c-.88-.24-1.45-.68-1.6-1.28-.23-.93.2-1.45.83-2.08.8-.79,1.68-.69,2.64-.24s1.21,1.51.82,2.41c-.48,1.1-1.36,1.55-2.69,1.18Z"/>
  <path class="st12" d="M316.79,70.21c-.25,1.38-1.51,1.76-2.59,1.71-.95-.05-1.68-1.08-2.12-2.11.36-.39.73-1.03,1.15-1.58.45-.59,1.73-.48,2.31-.1.53.34,1.41,1.17,1.24,2.08Z"/>
  <path class="st39" d="M287.92,62.76c-2.04,1.8-4.43-1.01-4.4-1.33.05-.57,2.31-2.02,2.95-2.09.82-.09,1.5.67,1.76,1.18.36.72.31,1.7-.31,2.24Z"/>
  <path class="st63" d="M363.03,54.2c.35,1-.54,2.14-1.31,2.41-1.02.36-2.12-.18-2.59-.97-.54-.92-.56-2.12.49-2.77,1.21-.74,2.92-.06,3.41,1.33Z"/>
  <path class="st52" d="M370.87,45.98c-.86.26-2.84-.47-2.91-1.78-.05-.82.28-1.3,1.09-1.69s1.68-.51,2.59-.04c.74.38,1.03,1.2.87,1.88-.2.82-.62,1.33-1.63,1.63Z"/>
  <path class="st156" d="M356.02,51.48c-1.28.24-2.89-1.37-2.61-2.33.38-1.33,1.41-1.76,2.39-1.72s1.91.63,1.99,1.89c.05.77-.69,1.95-1.77,2.15Z"/>
  <path class="st50" d="M326.35,59.24c.39-1.39.12-2.98.89-4.23,1-.21,1.98.38,2.36,1.2.43.94.29,1.96-.43,2.71-.42.44-.92.91-1.46.85-.48-.05-.92-.36-1.35-.53Z"/>
  <path class="st5" d="M327.48,83.12c-1.51.27-3.01.37-4.54.56-.16-1.57.4-2.93,2.11-2.95,1.36-.01,2.5.91,2.43,2.39Z"/>
  <path class="st100" d="M336.4,81.98c-1.61.21-3.18.69-4.87.58-.13-1.03.36-1.96,1.29-2.32,1.65-.65,3.1.49,3.58,1.74Z"/>
  <path class="st57" d="M363.15,43.64c-.01,1.3-2.22,2.08-3.2,1.8-.62-.18-1.45-.76-1.93-1.28l4.65-1.16c.29-.07.49.42.48.65Z"/>
  <path class="st69" d="M317.73,84.28c-1.72.34-3.31.55-5.09.76.42-.99,1.21-2.01,2.21-2.15,1.16-.16,2.63.32,2.89,1.39Z"/>
  <path class="st85" d="M340.88,48.44c-.66,1.34-.93,2-2.13,2.19-1.05.16-2-.54-2.42-1.63,1.29-.58,3.93-1.22,4.55-.56Z"/>
  <path class="st2" d="M290.38,87.97c-.35.33-.87.44-1.34.54-1.26.25-2.49.39-3.76.36.24-.84.57-1.56,1.29-1.79,1.56-.51,2.28-.04,3.82.9Z"/>
  <path class="st28" d="M352.07,46.38c-.63,1.47-3.14,1.47-4.31.28-.42-.26,3.63-1.46,3.73-1.5.27-.09.82.68.59,1.22Z"/>
  <path class="st76" d="M277.61,63.57c-.45.03-1.09-.76-.83-.96,1.02-.76,2.34-.86,3.55-1.09.09.48.07.78.02,1.1-.89.45-1.64.73-2.74.94Z"/>
  <path class="st48" d="M375.35,45.19c.75-.2-.19,3.16-.04,3-.59.62-1.37-.36-1.53-.85-.49-1.45,1.86-2.23,1.58-2.15Z"/>
  <path class="st6" d="M302.47,86.27c-.23.14-.56.38-.96.42l-3.88.45c1.22-1.42,3.23-1.85,4.84-.87Z"/>
  <path class="st144" d="M381.19,86.26v-9.47c.53,3.04.52,6.42,0,9.47Z"/>
  <path class="st70" d="M222.64,15.38c-1.11,0-.14-2.11-.84-2.05.48-1.49-.09-1.9,1.09-2.22-.35,1.38-.29,2.88-.26,4.28Z"/>
  <path class="st128" d="M108.67,18.54c0,.23-.11.45-.33.53-1.05.52-3.17.22-4.02-.57-.01-.1.09-.32.22-.27,1.35.18,2.78-.15,4.13.31Z"/>
  <path class="st14" d="M287.86,94.59c.02.24-.26.29-.56.29l-4.04-.03c0-.21.28-.26.56-.26h4.04Z"/>
  <path class="st111" d="M293.32,94.26c-.16.22-.43.36-.83.36l-3.77-.03c-.41-.57,4.16-.13,4.6-.33Z"/>
  <path class="st41" d="M69.8,11.52c-1.38.07-2.25-.22-3.16-.67,1.25-.31,2.21.29,3.16.67Z"/>
  <path class="st112" d="M64.02,50.27c-.53-.79-.94-1.85-.65-3.1.07.99.85,1.41.65,3.1Z"/>
  <path class="st22" d="M369.72,134.5c-1.21.51-2.68.48-3.73,0h3.73Z"/>
  <path class="st126" d="M41.13,37.74c-1.1.26-2.08.41-3.16.29-.02-.23.26-.29.56-.29h2.6Z"/>
  <path class="st124" d="M194.22,168.09c-.86.47-2.33.55-3.15-.03,1.05.03,2.1.06,3.15.03Z"/>
  <path class="st88" d="M198.3,57.85c2.39.02,8.07,1.55,10.57,2.33,1.03-.09,1.53-.11,2.52.26,3.24,1.23,5.83,2.75,8.71,4.64,1.61,1.06,3.63,2.58,4.73,4.07,1.12.28,1.54.72,1.27,1.32.22.95,1.06,1.57,1.72,2.36.93,1.11,1.58,2.37,2.48,3.56,1.04,1.38,1.65,3.03,2.51,4.6,1.36,2.51,1.82,5.42,2.32,8.13.22,0,.55-.02.61.12.49,1.18.48,3.91.43,5.24-.04,1.09-.12,2.18-.28,3.26-.77.79-.8,1.91-1.03,3.04-.48,2.42-.9,4.94-2.08,7.06-.84,1.52-1.38,3.11-2.36,4.47-.91,1.27-1.67,2.53-2.68,3.69-3.14,3.63-6.71,6.59-10.96,8.79-9.12,4.73-18.92,6.55-29.08,5.58-6.94-.67-15.4-3.52-21.11-7.6-4.65-3.33-8.44-7.29-11.25-12.29-1.06-1.89-1.61-3.87-2.48-5.88-1.01-2.33-1.11-4.83-1.67-7.18l-.55-.61c-.48-5.1.23-10.39,2.25-15.09l.73-.32c.6-1.64,2.41-4.47,3.56-6.35,1.41-2.32,3.7-4.39,5.56-6.19.52-.51,1.15-.64,1.33-1.3.09-.24.18-.47.31-.69s.25-.4.42-.52c10.32-7.48,20.81-9.85,33.11-9.1l.4.58Z"/>
  <path class="st11" d="M228.41,157.72c-9.96,2.5-21.76,4.76-32.75,4.12-.08-8.82-.03-17.61.16-26.36,5.92-.11,11.72-1.36,17.27-3.38.88.17.91.09.1-.24,5.96-2.25,11.29-5.76,15.47-10.55.66-.76,1.3-1.42,1.83-2.23l2.26-3.49c1.01-1.48,1.34-3.23,2.06-4.88,1.05-2.38,1.7-4.76,1.71-7.61l12.84,2.15,23.36,3.75c-.27,2.82-.59,5.62-1.56,8.25-.73,2-1.17,3.98-1.75,6.03-.11.39-2.91,6.19-3.36,6.98-7.51,13.34-18.39,20.3-32.39,25.81-1.77.7-3.54,1.14-5.26,1.67Z"/>
  <path class="st30" d="M181.56,144.12l.06,12.11-.57.34-4.98-.55c-8.47-.93-22.54-5.46-30.36-8.96-.3-.21,2.74-4.39,2.42-3.8l1.83-3.38c.42-.78,1.13-1.35,1.46-2.24.41-1.12,1.12-1.9,1.78-2.8.91-1.25,1.51-2.65,2.69-3.69.6-1.31,1.09-2.6,1.91-3.78.28-.4.72-.66.59-1.14,2.97,2.8,10.31,7.34,14.4,8.75l8.66,2.98.1,6.16Z"/>
  <path class="st42" d="M260.59,86.52c.22,1.21-.38,5.08.55,5.55-.86-.15-.69,6.76-.75,7.39l-.51,5.12-24-6.82c-.2-.06-.35-.34-.58-.44.14.06.52-4.37.14-6.44l-.32-1.75,11.38-1.39c.17-.17.34-.32.54-.45.71-.45,5.59-.84,6.88-.88.44-.01.85.2,1.22.39.11-.29.3-.5.57-.66.4-.23,4.47-.34,4.88.36Z"/>
  <path class="st67" d="M153.63,81.43l-1.02,2.81c-2.08,5.72-1.21,8.45-1.41,13.22-.14,3.4-.5,6.78-.19,10.35-.13.66-3.82-3.68-4.01-3.91l-2.24-2.67c-1.06-1.26-1.97-2.51-3.06-3.77l-2.29-2.64-2.79-3.46c-.42-.52-.67-.98-1.08-1.37-.73-.7-5.15-5.53-5.44-6.82l10.98-.89,12.55-.85Z"/>
  <path class="st38" d="M181.56,144.12l2.04.1c3.64.17,7.09.79,10.71.76l-.06,11.94c-4.54.42-8.91.13-13.2-.35l-.06-11.48c0-.52.15-.9.57-.98Z"/>
  <path class="st137" d="M290.45,129.33c-.51.73-1.27,1.65-1.94,2.3-2.94,2.86-5.99,5.63-8.99,8.34-2.83,2.69-5.67,5.4-8.47,8.1-1.43,1.38-2.85,2.79-4.16,4.3-.57.08-.75.18-.56.3-1.99.17-3.88-.8-5.71-1.48l-.15-.64c7.29-6.84,14.55-13.71,21.79-20.61.6-1,1.42-1.59,2.46-1.78.71-.24,5.71.54,5.74,1.17Z"/>
  <path class="st142" d="M281.26,127.29c.26.7-.07,1.45-.99,2.25-7.33,6.82-14.74,13.58-22.23,20.27-.36.14-.66.3-.9.48-.67-.18-1.35.06-2.12-.58,3.57-3.37,8.32-8.82,10.6-12.77.39-.68.95-1.2,1.27-1.87,2.83-2.89,5.71-5.78,8.64-8.67l1.41-.18c1.48.08,2.86.79,4.31,1.08Z"/>
  <path class="st54" d="M114.04,101.38l-7.64,1.26c1.13-4.26-.7-2.16.38-6.33.21-.8.16-1.86-.46-2.25.89,0,1.82.14,2.62-.39,1.17.5,1.26,2.08,2.1,3.1,1.19,1.45,2.3,2.97,3.01,4.61Z"/>
  <path class="st16" d="M213.18,131.85l.58.2c-5.63,2.19-11.55,3.61-17.82,3.62v26.09c1.65-.04,3.19.19,4.78-.12,8.25-.35,15.68-.91,23.66-3.29-.22.06,5.05-1.36,4.03-.63-6.49,1.98-13.18,3.3-20.07,4.11-.96-.31-1.77.19-2.64.19l-10.32.04v-26.63c1.04-.61,2.07-.28,3.18-.35,5.13-.33,9.92-1.69,14.63-3.24Z"/>
  <path class="st84" d="M365.13,173.55l-9.3-1.94c-2.84-.59-5.51-1.1-8.35-1.71l-12.49-2.68c-4.31-.92-9.94-2.16-13.85-2.86.23-.35.65-.36,1.18-.25l26.11,5.42,8.34,1.75,8.93,2.04c-.07.34-.36.23-.57.22Z"/>
  <path class="st135" d="M150.49,45.39l-6.51,4.41c-4.42,3-8.06,6.79-10.9,11.16l-1.45-.25c-.48-2.3-1.02-4.71-1.93-7-.62-1.55-.74-3.13-1.56-4.45-.47-.23-.69-.72-.67-1.47l-1.04-4.03c.41-.52.33-1.18.2-1.9l-.63-3.33,4.7-1.46c1.64-.51,3.16-.68,4.85-.11,3.52,1.2,6.61,3.15,9.73,5.13l5.21,3.29Z"/>
  <path class="st141" d="M191.95,50.57c2.33.13,4.69-.11,6.91.63l-.55,6.66-5.82-.06c-11.24-.12-19.62,3.53-28.41,9.8l-8.93-2.05,7.91-6.06c6.35-4.86,21.57-9.34,28.89-8.92Z"/>
  <path class="st150" d="M102.06,82.82c0,.23-.24.28-.45.28-.17,0-.33-.14-.45-.28.14-.01.33.13.6-.16-.7,0-2.14-2.56-2.04-3.28.83.29.88,1.37,1.38,2.08l.96,1.36Z"/>
  <path class="st121" d="M99.15,78.22c-.72.55-2.17-3.31-2.3-3.73.2-.24,1.98,3.17,2.3,3.73Z"/>
  <path class="st77" d="M132.74,123.07c-3.33-1.33-6.56-3.01-9.76-4.65,1.63-.18,3.13-.79,4.92-1.24l4.18,4.76c.34.38.81.61.66,1.13Z"/>
  <path class="st83" d="M228.31,52.15c4.93,3.36,10.02,6.87,15.28,10.51v.7c-1.67.99-3.54,1.58-5.42,2.16h-.9c-4.28-2.94-8.49-5.99-12.6-9.17-1.15-.41-1.72-1.07-1.72-1.97,0-.09-.26-.38-.15-.5.49-.55,1.17-.85,1.82-.94.32-.04.97.15,1.27-.18.7-.76,1.77-.37,2.42-.62Z"/>
  <path class="st3" d="M212.61,58.7l5.82,3.96,9.63,6.7-1.96,1.13c-.39-.56-1.6-.53-1.89-1.19-.47-1.08-1.28-1.2-2.01-1.82-3.97-3.41-8.44-5.76-13.33-7.29.31-.08,1.25.12.5-.51,1.55-.45,2.25-1.65,3.23-.98Z"/>
  <path class="st154" d="M243.65,67.62c.63,1,1.64,1.74,2.39,2.73.8,1.06,1.27,2.17,2.17,2.98,1.22,1.31,2.33,2.7,3.32,4.19.38.65,1.19,2.32.52,2.78,1.26,1.34,2.69,4.08,3.35,5.84l-.26.67c-2.86.48-5.76.58-8.64.93-1.18.33-2.49-4.12-3.77-6.61l-2.14-4.16-2.42-4.17c-.5-.87-1.39-1.48-1.5-2.6l6.98-2.59Z"/>
  <path class="st45" d="M251.6,60.41c-1.71,1.05-3.7,1.58-5.61,2.25l-.61-.11c-4.9-3.49-9.8-7.03-14.7-10.6l.05-.73c-.15.06,3.22-1.82,5.19-2.29.56.02,1.11.35,1.65,1,4.72,3.2,9.39,6.45,14,9.75l.04.73Z"/>
  <path class="st123" d="M261.38,85.96l-.78.56c-1.78.2-3.68,0-5.45.29-1.08-1.66-2.33-4.65-3.09-6.52,1.19.26,1.99,1.27,3.07,1.9,2.19,1.27,4.13,2.69,6.26,3.77Z"/>
</svg>