<?xml version="1.0" encoding="UTF-8"?>
<svg id="Capa_1" xmlns="http://www.w3.org/2000/svg" version="1.1" viewBox="0 0 200 200">
  <!-- Generator: Adobe Illustrator 30.2.1, SVG Export Plug-In . SVG Version: 2.1.1 Build 1)  -->
  <path d="M168.38,177.93c-1.74,2.26-3.58.06-4.63.73-1.63,1.04-3.2,2.06-5,2.82-.73-.68-1.13-1.63-1.6-2.52.43-.6,1.22-.57,1.43-1.43-3.47-.18-6.61-.37-9.98-1.09.26-3.61.8-7.19,2.15-10.55.8-1.97,2.15-3.59,3.98-4.57,1.33-.71,2.71-.74,4.21-1.22l-4.38-1.12,2.06-4.02-3.14-1.73,3.03-4.17c1.09.22,1.37,1.41,2.64,1.49l-1.93-4.46c-.72-1.65-1.34-3.3-1.33-5.09,1.97.52,3.68,1.16,5.26,2.22-.76,1.43-1.18,2.91-.22,4.46,2.43-2.34,5.93-2.16,8.32.19,1.22-1.45.96-3.3-.13-4.65,1.54-1.2,3.32-1.82,5.32-2.33-.52,3.32-1.88,6.3-3.33,9.53.94.63,2.29-1.92,2.86-1.21,1.05,1.32,1.97,2.69,2.88,4.1-1.11.65-2.19.92-3.17,1.68.6,1.37,1.47,2.57,1.91,4.05-1.22.61-2.55.26-3.77,1.1,2.37.34,4.06,1.33,5.35,3.01-2.76,2.68-5.58,5.25-8.94,7.12l-1.9,1.06c1.07.85,2.47,3.91,3.33,3.55,1.12-.47-.5-2.59-1.01-3.25,6.18-4.27,11.76-9.1,16.76-14.66.93,1.32.79,2.67-.11,3.81-1.67,2.13-3.56,3.92-5.61,5.71,1.51,3.15,2.11,6.55,1.86,9.99-3.68.62-7.23.54-10.91.6-.88.01-1.65.02-2.27.83ZM167.84,157.59c.88-1.26,1.25-2.61,1.24-4.12l-7.9.06c-.21,2.03.61,4.16,2.38,5.29,1.44.92,3.3.18,4.28-1.23ZM165.65,163.36c1.32-1.3,2.71-2.52,3.51-4.23-.66-.18-.99.26-1.34.51-4.2,2.98-7.4-2.54-6.38-.23.15.34,3.43,4.72,4.22,3.94ZM161.42,173.31c-2.02-.32-3.83-.68-5.93-.68,1.58,1.26,3.19,2.28,5.03,2.81.73.21,1.52-1.87.9-2.14Z"/>
  <path d="M170.25,32.52c-1.34.56-2.32,2.1-2.28,3.58.1,4.55,3.31,8.04,7.67,9.1,2.79.68,5.5-.11,7.97-1.78,2.37,1.73,4.77,3.27,7.68,4l-.08,3.79-48.07.02c-1.05,0-1.83.16-2.88-.09.08-11.07,7.25-21.87,16.6-27.43,3.96-2.36,8.64-3.05,12.89-1.55,1.85.65,3.18,1.97,3.68,3.81,1.95.99,3.57,2.42,4.31,4.48.48,1.31.1,2.93-1.23,3.46-1.56.62-2.5-2.34-3.43-2.06-.52.11-.93,2.76-1.65,2.57-.6-.16-.44-1.6-1.19-1.89ZM160.68,34.88c.47-.62.39-1.33.51-2.11.22-1.48,1.73-2.79,3.16-2.09,1.2.59,1.75,1.91,2.84,2.83.86-.48,1.59-1.55,1.89-2.53.69-2.32-1.96-1.98-3.43-3.22-1.38-1.16-3.34-.99-4.65.21-.63.57-1.33.67-2.04.53-2.16-.42-3.32,1.26-4.86,2.02-3.83,1.89-7.34,4.52-8.47,9.05.69.2.99-.54,1.33-1.06,2.46-3.8,3.59-.9,4.58-2.96.59-1.23,2.15-1.67,3.27-.91,1.41.95.41-2.14,2.36-2.55,2.51-.52,2.45,1.7,3.51,2.78ZM158.98,46.11c-.96-1.25-1.75-2.5-2.37-3.89-.14-.32.46-.53.68-.58.45-.11,1.33,1.78,2.25,1.27.46-.26.36-1.41.94-1.48.8-.1,1.7,2,2.83,1.48.37-1.01-.21-2.38-.94-3.15-.56-.59-1.4-.71-2.05-.32-2.09,1.25-2.07-2.03-6.44.69-.64.13-1.54-.25-2.28.13l-4.16,2.08c-1.35.68-2.6,1.84-2.69,3.49,1.12-.51,1.68-1.33,2.64-1.63,1.26-.39,2.04.29,2.78,1.37.54-1.06.41-1.95,1.24-2.59.89-.68,2.81-.65,3.5.37.87,1.3,1.5,2.56,2.71,3.6s2.76,1.92,4.53,1.83c-1.02-1.09-2.26-1.52-3.15-2.67ZM174.48,49.08c-3.21-.99-5.78-2.56-8.25-4.73-.15,2.98,6.11,5.37,8.25,4.73Z"/>
  <path d="M170.14,109.85c-2.68,2.97-7.37,2.67-9.64-.56-.4-.56.04-1.05.53-1.67l-18.39-10.31c1.82-2.97,3.84-5.7,6.49-7.93l8.18,10.38c.46.39,1.07.57,1.51,0l-8.72-11.2c2.41-2.09,5.23-3.6,8.4-4.61l3.46,14.19c.23.2.3.42.44.48.2.09.43.01.49-.11.08-.16.06-.46.04-.7l-3.34-14.14c3.71-.97,7.42-1,11.22-.07l-3.42,14.81c.11.29.43.29.67.24s.39-.3.51-.63l3.31-14.1c3.17.91,5.97,2.45,8.57,4.57l-8.44,11.04c.56.6,1.22.4,1.61-.14l7.77-10.01c2.79,2.31,4.88,5.02,6.69,8l-17.99,10.25c.63.81.69,1.53.05,2.24ZM165.65,103.17c.7-1.58,1.07-2.96,1.4-4.54-1.13-.2-1.93-.36-2.94-.02.49,1.63.88,3.08,1.54,4.56ZM163.37,104.26c-.08-1.98-.77-3.38-1.35-4.97-.9.1-1.5.26-2.37.75,1.43,1.35,2.1,3.1,3.73,4.22ZM171.5,100.06c-.93-.53-1.5-.67-2.36-.71-.45,1.67-1.11,3.12-1.19,4.99,1.45-1.37,2.43-2.82,3.54-4.28ZM160.87,105.15c-.76-1.57-1.67-2.82-2.8-3.99-.37-.38-1.73.44-1.59.93,1.33,1.12,2.8,2.32,4.38,3.06ZM174.89,101.93c-.5-.56-1.14-.92-1.9-.79-.95,1.33-1.96,2.44-2.65,4.03,1.77-.92,3.08-2.03,4.55-3.24Z"/>
  <path d="M101.59,49.21h-3.3s-.08,3.94-.08,3.94h-9.79s-.05-4.08-.05-4.08c-2.58-.11-5.15-.13-7.49-1.71,3.62-1.18,7.03-2.05,10.15-3.96.24-.96.2-1.89.13-2.88-1.71.03-6.24-.63-7.09-2.48,2.93-.97,5.84-1.64,8.32-3.49.58-.46.18-1.71.16-2.41-.92-.14-6.65-1.69-6.21-2.88,4.79-1.13,8.49-2.52,11.84-6.18.21-.23.65-.22.78-.47-.05.1-.04-4.56-.1-5.1-.03-.32.53-.64.35-1.01-.12-.23-.32-.52-.52-.84,1.24-1.23.36-4.07,1.08-4.29.35-.11.54.1.57.44l.23,2.94c.03.32.33.57.42.83.09.28-.5.73-.4.96.32.76.3,1.44.4,2.25.27,2.41-.38.77.09,3.72,2.83,3.66,7.58,5.66,12.22,6.8-1.18,1.96-5.19,2.29-5.77,2.86-.52.52-.11,1.64-.1,2.37,2.57,1.6,5.24,2.65,8.27,3.53-1.94,1.86-4.41,2.22-6.89,2.47l-.03,2.11c0,.56.3.9.77,1.15,2.9,1.51,5.94,2.49,9.19,3.47-2.2,1.59-4.64,1.47-7.03,1.75l-.09,4.14h-9.94s-.08-3.96-.08-3.96ZM93.79,40.44v2.45s2.68.02,2.68.02v-2.45s-2.68-.02-2.68-.02ZM101.62,40.41h-3.23s0,2.51,0,2.51h3.23s0-2.51,0-2.51ZM106.11,42.93c.03-.99.03-1.57-.03-2.41-.97-.14-1.85-.11-2.83.02.05.78-.01,1.45.16,2.28.95.19,1.79.06,2.71.12Z"/>
  <path d="M57.76,48.92l-49.73-.06c5.58-5.15,10.31-10.2,14.37-16.16,1.92-2.69,3.37-5.43,5.06-8.35h11.91c4.87,9.06,11.22,17.05,18.82,23.89.12.11.06.31.09.38.04.09-.03.31-.51.31ZM37.4,33.76c2.42-2.26,4.05.75,4.96-.04-1.53-2.52-2.82-4.85-4.18-7.38l-9.53-.03-4.32,7.64c1.34-.3,2.2-1.13,3.47-.96,1.76.24,2.15,2.21,3.48,1.04.69-.6,1.52-1.35,2.5-1.4,1.45-.07,2.38,2.28,3.62,1.12Z"/>
  <path d="M104.76,104.08c2.68.56,4.46-3.13,3.99-5.27-.42-1.91-1.24-3.2-2.66-4.41-1.15-.98-5.58-3.68-7.04-2.39l4.06,1.89c.62.29,1.06.87,1.02,1.53-.03.59-.55,1.27-1.31,1.48-3.47.96-7.19-1.18-8.23-4.63.82-1.29,1.67-6.43-.48-7.03.68,2.58.81,5.22-.49,7.64-.43.8-1.44,1.33-2.35,1.53-3.06.68-6.26.32-9.03-1.21-1.36-.75-2.86-2.65-2.1-4.19,1.26-2.58,3.7-4.29,5.84-5.98s4.45-1.62,6.68-2.48c1.62-.62,2.77-1.97,4.84-1.76,2.59.27,5.44.69,7.56,2.42l-1.78,1.02c1.85.3,2.99,2.26,4.59,2.83,3,1.07,6.03,2.15,8.02,4.89.28.38,1.1,1.12.63,1.55-.93.58-2.18.26-3.35.27,2.66,4.47,2.53,9.97-.34,14.26-.31.46-1.12,1.26-1.53,1.02-.6-.35-.07-1.2-.5-1.8-1.2,1.04-2.36,1.75-3.72,2.38-.51,2.65-2.26,4.56-4.63,5.7-2.11,1.02-4.37,1.76-6.82,1.25,1.43-1.79,2.59-3.56,3.21-5.71l-6.58-2.8c3.69-3.02,8.1-2.94,12.49-2.03Z"/>
  <path d="M107.58,158.1l-15.36.04-.58,15.33c.49.31.97.16,1.49.3.15,1.11.13,2.18.04,3.39l-8.61-.02v-3.27c.53-.16,1-.08,1.55-.33l1.37-15.39-4.63-.08.2-3.29,4.56-.05c.19-.83.21-1.57.23-2.55l-4.73-.11c-.22-.77-.13-1.54-.43-2.28l-1.74-.26c-.45-1.24-.85-2.47-.94-3.89,2.22.47,4.28.82,6.61,1.02,8.17.69,16.17.76,24.35.24,3.01-.19,5.73-.55,8.72-1.29-.16,1.43-.51,2.6-.93,3.8l-1.62.43c-.3.71-.25,1.47-.47,2.25l-4.79.17c-.2.88-.16,1.73.15,2.49h4.68c.25,1.08.22,2.17.24,3.34l-4.69.05c.4,4.64.76,10.87,1.59,15.29.08.45,1.14.26,1.43.39.28,1.08.18,2.18.1,3.35h-8.62s-.02-3.34-.02-3.34l1.36-.27-.21-8.78-.29-6.66ZM98.12,154.65c-.02-1.16.12-1.7-.12-2.49l-5.48.06c-.27.9-.24,1.67-.09,2.54l5.68-.1ZM107.53,154.67c0-1.19-.01-1.74-.22-2.52l-5.45.05c-.17.8-.37,2.03.15,2.45,1.89.14,3.63.07,5.52,0Z"/>
  <path d="M32.88,165.86c-5.28-2.83-1.68-.67-7.68-1.55-.42,1.55,3.17,1.07,3.78,1.09-.2.87-.96,1.18-1.69,1.44-1.52.54-2.97.09-3.8-1.31-1.21-2.07-3.73-.93-5.93-.42-1.6.38-3.61.43-4.75-.82-.62-.67-.33-1.79.14-2.46,1.45-2.07,2.9-.65,3.4-2.18.33-1.02,1.44-1.73,2.55-1.68,1.02.04,1.41-.32,2.12-.89,1.32-1.08,3.51-.43,4.33,1.12,1.94-.26,3.53.48,4.21,2.43,1.57-.72,5.18-3.22,3.94-5.1-.85-1.29-2.84-1.06-4.15-.58-1.8.66-3.56,1.05-5.26.19-1.16-.58-1.44-1.78-.99-2.84.67-1.6,2.19-1.78,3.43-2.56.9-.56,1.13-2.18,2.52-2.29l2.45-.2c1.75-2.46,5.11-2.84,7.3-.83.54.49.78,1.16,1.09,1.9,3.9.02,2.04,2.19,4.48,2.6,1.48.24,2.69,1.55,2.24,3.04-.67,2.24-4.04,1.11-4.59,1.7-3.43,3.71-4.55,2.76-8.59,5.37,1.62.77,3.07,1.6,4.77,2.1.14-1.02.15-1.81.66-2.47,1.08-1.38,2.66-.52,3.08-1.47.66-1.47,2.03-2.01,3.56-2.03,1.38-.02,2.6.48,3.04,1.99,2.57-.42,4.37,1.09,5.34,3.24.36.8,1.21,1.75.49,2.64-.99,1.23-2.76,1.35-4.27,1.07-2.47-.47-4.65-2.03-5.41-.56-1.29,2.52-3.85,1.33-5.57,1.73-.67.37-.82,1.4-1.37,2.06l-9.41.06c.15-.66.77-.72,1.24-.95,1.23-.59,2-1.36,3.26-2.56Z"/>
  <path d="M38.81,105.17c-1.28.66-.36,2.74-1.47,3.65-.68.56-1.02-.76-1.44-.91-1.27-.4-2.81-.05-4.12-.15-.4.36-.48.94-.86,1.06-1.66.51-1.08-2.64-1.81-3.27-.67-.57-1.5-.83-2.12-1.45-1.48-1.49-2.3-3.34-2.7-5.51-1.91.15-5.15,1.34-5.47-.88-.49-3.43.6-6.76,2.78-9.42-1.45-.31-3.21.73-3.47-.66-.09-.47.4-.74.88-.83l6.4-1.27c-1.53-2.48,1.34-5.13,3.51-6.18,4-1.91,10.82-1.47,13,3.23l5.75-2.15c.44-.16.89,0,1.14.21.21.19.45.97.07,1.11l-6.14,2.27c-.28.1-.51.33-.52.51-.01.21.21.81.5.78l7.27-.86c.53-.06.79.37.8.77.05,1.79-4.27.98-6.01,1.43,3.02,2.07,4.58,6.6,4.43,9.97-.03.73-.33,1.87-1.04,2.12-1.52.53-3.07.02-4.7-.25-1.07,2.91-1.59,5.09-4.66,6.66ZM40.79,95.62c-.35-2.53-2.22-4.37-4.53-4.66-.65.39-1.05.85-1.58,1.24-1.66,1.23-2.52-.55-3.93-1.32-2.34.58-4.06,2.49-4.24,5.05-.25,3.53,1.61,7.08,4.57,8.98,1.66,1.07,3.42,1.15,5.14.11,3.11-1.87,5.09-5.66,4.58-9.41Z"/>
  <path d="M37.67,175.94l-7.88-.07c-.79,0-1.03.6-1.32,1.18l-6.45.12c-.74-1.15-.13-2.24-2.01-2.24l-2.04-4.82,30.64-.03-1.95,4.83c-.42.16-1.12.03-1.42.45-.37.53-.35,1.15-.7,1.76l-6.03-.06c-.28-.12-.28-1.13-.84-1.13Z"/>
  <path d="M45.99,108.54c2.25,1.17,4.16,2.75,4.99,5.44l-33.11.05c-.11-.74.1-1.2.4-1.72,1.61-2.7,4.53-4.51,7.74-4.6,2.39-.07,6.23,3.5,8.02,5.39,3.63-3.8,6.46-7.12,11.96-4.57Z"/>
</svg>